G75*
%MOIN*%
%OFA0B0*%
%FSLAX24Y24*%
%IPPOS*%
%LPD*%
%AMOC8*
5,1,8,0,0,1.08239X$1,22.5*
%
%ADD10R,0.0433X0.0394*%
%ADD11R,0.0425X0.0413*%
%ADD12R,0.1500X0.0760*%
%ADD13OC8,0.0630*%
%ADD14R,0.1095X0.1095*%
%ADD15C,0.0472*%
%ADD16R,0.0669X0.0354*%
%ADD17R,0.0260X0.0866*%
%ADD18C,0.0270*%
%ADD19C,0.0100*%
D10*
X005365Y000715D03*
X006065Y000715D03*
X006765Y000715D03*
X006765Y001385D03*
X006065Y001385D03*
X005365Y001385D03*
X006415Y005465D03*
X006415Y006135D03*
D11*
X005715Y006144D03*
X005715Y005456D03*
D12*
X003715Y004950D03*
X003715Y001950D03*
D13*
X003565Y000850D03*
X004565Y000850D03*
X004565Y006050D03*
X003565Y006050D03*
D14*
X008015Y006050D03*
X008015Y000850D03*
D15*
X004565Y002950D03*
X004565Y003950D03*
D16*
X005515Y004277D03*
X005515Y002623D03*
D17*
X006565Y002269D03*
X007065Y002269D03*
X007565Y002269D03*
X008065Y002269D03*
X008065Y004631D03*
X007565Y004631D03*
X007065Y004631D03*
X006565Y004631D03*
D18*
X008215Y003200D03*
X006265Y003000D03*
X003815Y003550D03*
D19*
X003015Y000650D02*
X003021Y000591D01*
X003066Y000483D01*
X003148Y000401D01*
X003257Y000356D01*
X003315Y000350D01*
X007358Y000350D01*
X007358Y001443D01*
X007422Y001507D01*
X008608Y001507D01*
X008673Y001443D01*
X008673Y000350D01*
X009315Y000350D01*
X009374Y000356D01*
X009482Y000401D01*
X009565Y000483D01*
X009609Y000591D01*
X009615Y000650D01*
X009615Y006250D01*
X009609Y006309D01*
X009565Y006417D01*
X009482Y006499D01*
X009374Y006544D01*
X009315Y006550D01*
X008673Y006550D01*
X008673Y005457D01*
X008608Y005393D01*
X007422Y005393D01*
X007358Y005457D01*
X007358Y006550D01*
X003315Y006550D01*
X003257Y006544D01*
X003148Y006499D01*
X003066Y006417D01*
X003021Y006309D01*
X003015Y006250D01*
X003015Y005480D01*
X003665Y005480D01*
X003665Y005000D01*
X003765Y005000D01*
X003765Y005480D01*
X004485Y005480D01*
X004523Y005470D01*
X004557Y005450D01*
X004585Y005422D01*
X004605Y005388D01*
X004615Y005350D01*
X004615Y005000D01*
X003765Y005000D01*
X003765Y004900D01*
X003765Y004420D01*
X004485Y004420D01*
X004523Y004430D01*
X004557Y004450D01*
X004585Y004478D01*
X004605Y004512D01*
X004615Y004550D01*
X004615Y004900D01*
X003765Y004900D01*
X003665Y004900D01*
X003665Y004420D01*
X003015Y004420D01*
X003015Y002440D01*
X003555Y002440D01*
X003555Y002516D01*
X004055Y003016D01*
X004149Y003110D01*
X004257Y003110D01*
X004272Y003146D01*
X004369Y003244D01*
X004496Y003296D01*
X004634Y003296D01*
X004741Y003252D01*
X004855Y003366D01*
X004855Y003366D01*
X004949Y003460D01*
X007449Y003460D01*
X007905Y003916D01*
X007905Y004088D01*
X007890Y004088D01*
X007825Y004152D01*
X007825Y005110D01*
X007890Y005174D01*
X008241Y005174D01*
X008305Y005110D01*
X008305Y004152D01*
X008241Y004088D01*
X008225Y004088D01*
X008225Y003784D01*
X008131Y003690D01*
X007581Y003140D01*
X006472Y003140D01*
X006473Y003139D01*
X006510Y003049D01*
X006510Y002981D01*
X006631Y002860D01*
X006679Y002812D01*
X006741Y002812D01*
X006805Y002748D01*
X006805Y001790D01*
X006741Y001726D01*
X006765Y001726D01*
X006741Y001726D02*
X006390Y001726D01*
X006325Y001790D01*
X005731Y001790D01*
X005630Y001689D01*
X005692Y001627D01*
X005692Y001142D01*
X005627Y001078D01*
X005264Y001078D01*
X005319Y001022D01*
X005627Y001022D01*
X005692Y000958D01*
X005692Y000473D01*
X005627Y000409D01*
X005103Y000409D01*
X005039Y000473D01*
X005039Y000850D01*
X004990Y000899D01*
X004990Y000674D01*
X004741Y000425D01*
X004389Y000425D01*
X004140Y000674D01*
X004140Y001026D01*
X004254Y001140D01*
X004081Y001140D01*
X003979Y001037D01*
X003990Y001026D01*
X003990Y000674D01*
X003741Y000425D01*
X003389Y000425D01*
X003140Y000674D01*
X003140Y001026D01*
X003389Y001275D01*
X003741Y001275D01*
X003753Y001264D01*
X003949Y001460D01*
X004881Y001460D01*
X004975Y001366D01*
X005039Y001303D01*
X005039Y001627D01*
X005103Y001691D01*
X005205Y001691D01*
X005205Y001716D01*
X005505Y002016D01*
X005599Y002110D01*
X006314Y002110D01*
X006325Y002135D01*
X006325Y002714D01*
X006284Y002755D01*
X006216Y002755D01*
X006126Y002792D01*
X006057Y002861D01*
X006020Y002951D01*
X006020Y003049D01*
X006057Y003139D01*
X006059Y003140D01*
X005081Y003140D01*
X004911Y002970D01*
X004911Y002881D01*
X004859Y002754D01*
X004761Y002656D01*
X004634Y002604D01*
X004496Y002604D01*
X004369Y002656D01*
X004272Y002754D01*
X004264Y002773D01*
X003931Y002440D01*
X004511Y002440D01*
X004575Y002376D01*
X004575Y001524D01*
X004511Y001460D01*
X003015Y001460D01*
X003015Y000650D01*
X003016Y000643D02*
X003172Y000643D01*
X003140Y000741D02*
X003015Y000741D01*
X003015Y000840D02*
X003140Y000840D01*
X003140Y000938D02*
X003015Y000938D01*
X003015Y001037D02*
X003151Y001037D01*
X003249Y001135D02*
X003015Y001135D01*
X003015Y001234D02*
X003348Y001234D01*
X003015Y001332D02*
X003821Y001332D01*
X003919Y001431D02*
X003015Y001431D01*
X003565Y000850D02*
X004015Y001300D01*
X004815Y001300D01*
X005350Y000765D01*
X005365Y000715D01*
X005039Y000741D02*
X004990Y000741D01*
X004959Y000643D02*
X005039Y000643D01*
X005039Y000544D02*
X004860Y000544D01*
X004762Y000446D02*
X005066Y000446D01*
X005664Y000446D02*
X005766Y000446D01*
X005739Y000473D02*
X005803Y000409D01*
X006327Y000409D01*
X006392Y000473D01*
X006392Y000555D01*
X006439Y000555D01*
X006439Y000473D01*
X006503Y000409D01*
X007027Y000409D01*
X007092Y000473D01*
X007092Y000700D01*
X007231Y000840D01*
X007325Y000934D01*
X007325Y001434D01*
X007617Y001726D01*
X007741Y001726D01*
X007833Y001726D01*
X007843Y001716D02*
X007815Y001744D01*
X007795Y001778D01*
X007795Y001780D01*
X007741Y001726D01*
X007843Y001716D02*
X007877Y001696D01*
X007915Y001686D01*
X008050Y001686D01*
X008050Y002254D01*
X008080Y002254D01*
X008080Y001686D01*
X008215Y001686D01*
X008253Y001696D01*
X008287Y001716D01*
X008315Y001744D01*
X008335Y001778D01*
X008345Y001816D01*
X008345Y002254D01*
X008080Y002254D01*
X008080Y002284D01*
X008050Y002284D01*
X008050Y002852D01*
X007915Y002852D01*
X007877Y002842D01*
X007843Y002822D01*
X007815Y002794D01*
X007795Y002760D01*
X007795Y002758D01*
X007741Y002812D01*
X007390Y002812D01*
X007325Y002748D01*
X007325Y001886D01*
X007305Y001866D01*
X007305Y002748D01*
X007241Y002812D01*
X006890Y002812D01*
X006825Y002748D01*
X006825Y001790D01*
X006827Y001788D01*
X006730Y001691D01*
X006503Y001691D01*
X006439Y001627D01*
X006439Y001142D01*
X006503Y001078D01*
X007005Y001078D01*
X007005Y001066D01*
X006961Y001022D01*
X006503Y001022D01*
X006439Y000958D01*
X006439Y000875D01*
X006392Y000875D01*
X006392Y000958D01*
X006327Y001022D01*
X005803Y001022D01*
X005739Y000958D01*
X005739Y000473D01*
X005739Y000544D02*
X005692Y000544D01*
X005692Y000643D02*
X005739Y000643D01*
X005739Y000741D02*
X005692Y000741D01*
X005692Y000840D02*
X005739Y000840D01*
X005739Y000938D02*
X005692Y000938D01*
X005757Y001068D02*
X005791Y001048D01*
X005829Y001038D01*
X006017Y001038D01*
X006017Y001336D01*
X006114Y001336D01*
X006114Y001433D01*
X006432Y001433D01*
X006432Y001601D01*
X006421Y001639D01*
X006402Y001674D01*
X006374Y001702D01*
X006340Y001721D01*
X006301Y001731D01*
X006114Y001731D01*
X006114Y001433D01*
X006017Y001433D01*
X006017Y001731D01*
X005829Y001731D01*
X005791Y001721D01*
X005757Y001702D01*
X005729Y001674D01*
X005709Y001639D01*
X005699Y001601D01*
X005699Y001433D01*
X006017Y001433D01*
X006017Y001336D01*
X005699Y001336D01*
X005699Y001168D01*
X005709Y001130D01*
X005729Y001096D01*
X005757Y001068D01*
X005707Y001135D02*
X005684Y001135D01*
X005692Y001234D02*
X005699Y001234D01*
X005692Y001332D02*
X005699Y001332D01*
X005692Y001431D02*
X006017Y001431D01*
X006114Y001431D02*
X006439Y001431D01*
X006432Y001336D02*
X006114Y001336D01*
X006114Y001038D01*
X006301Y001038D01*
X006340Y001048D01*
X006374Y001068D01*
X006402Y001096D01*
X006421Y001130D01*
X006432Y001168D01*
X006432Y001336D01*
X006432Y001332D02*
X006439Y001332D01*
X006432Y001234D02*
X006439Y001234D01*
X006446Y001135D02*
X006423Y001135D01*
X006439Y000938D02*
X006392Y000938D01*
X006114Y001135D02*
X006017Y001135D01*
X006017Y001234D02*
X006114Y001234D01*
X006114Y001332D02*
X006017Y001332D01*
X006017Y001529D02*
X006114Y001529D01*
X006114Y001628D02*
X006017Y001628D01*
X006017Y001726D02*
X006114Y001726D01*
X006322Y001726D02*
X006389Y001726D01*
X006425Y001628D02*
X006439Y001628D01*
X006432Y001529D02*
X006439Y001529D01*
X006765Y001500D02*
X006765Y001385D01*
X006765Y001500D02*
X007065Y001800D01*
X007065Y002269D01*
X007305Y002317D02*
X007325Y002317D01*
X007325Y002219D02*
X007305Y002219D01*
X007305Y002120D02*
X007325Y002120D01*
X007325Y002022D02*
X007305Y002022D01*
X007305Y001923D02*
X007325Y001923D01*
X007565Y001900D02*
X007565Y002269D01*
X007325Y002416D02*
X007305Y002416D01*
X007305Y002514D02*
X007325Y002514D01*
X007325Y002613D02*
X007305Y002613D01*
X007305Y002711D02*
X007325Y002711D01*
X007387Y002810D02*
X007243Y002810D01*
X006887Y002810D02*
X006743Y002810D01*
X006805Y002711D02*
X006825Y002711D01*
X006825Y002613D02*
X006805Y002613D01*
X006805Y002514D02*
X006825Y002514D01*
X006825Y002416D02*
X006805Y002416D01*
X006805Y002317D02*
X006825Y002317D01*
X006825Y002219D02*
X006805Y002219D01*
X006805Y002120D02*
X006825Y002120D01*
X006825Y002022D02*
X006805Y002022D01*
X006805Y001923D02*
X006825Y001923D01*
X006825Y001825D02*
X006805Y001825D01*
X006415Y001950D02*
X006565Y002269D01*
X006565Y002700D01*
X006265Y003000D01*
X006038Y002908D02*
X005954Y002908D01*
X005942Y002920D02*
X005908Y002940D01*
X005870Y002950D01*
X005554Y002950D01*
X005554Y002662D01*
X006000Y002662D01*
X006000Y002820D01*
X005990Y002858D01*
X005970Y002892D01*
X005942Y002920D01*
X006020Y003007D02*
X004948Y003007D01*
X004911Y002908D02*
X005076Y002908D01*
X005088Y002920D02*
X005060Y002892D01*
X005041Y002858D01*
X005031Y002820D01*
X005031Y002662D01*
X005477Y002662D01*
X005477Y002950D01*
X005161Y002950D01*
X005123Y002940D01*
X005088Y002920D01*
X005031Y002810D02*
X004882Y002810D01*
X004816Y002711D02*
X005031Y002711D01*
X005031Y002585D02*
X005031Y002426D01*
X005041Y002388D01*
X005060Y002354D01*
X005088Y002326D01*
X005123Y002306D01*
X005161Y002296D01*
X005477Y002296D01*
X005477Y002585D01*
X005031Y002585D01*
X005031Y002514D02*
X004005Y002514D01*
X004104Y002613D02*
X004475Y002613D01*
X004655Y002613D02*
X005477Y002613D01*
X005477Y002585D02*
X005477Y002662D01*
X005554Y002662D01*
X005554Y002585D01*
X006000Y002585D01*
X006000Y002426D01*
X005990Y002388D01*
X005970Y002354D01*
X005942Y002326D01*
X005908Y002306D01*
X005870Y002296D01*
X005554Y002296D01*
X005554Y002585D01*
X005477Y002585D01*
X005477Y002514D02*
X005554Y002514D01*
X005554Y002416D02*
X005477Y002416D01*
X005477Y002317D02*
X005554Y002317D01*
X005554Y002613D02*
X006325Y002613D01*
X006325Y002514D02*
X006000Y002514D01*
X005997Y002416D02*
X006325Y002416D01*
X006325Y002317D02*
X005926Y002317D01*
X006325Y002219D02*
X004575Y002219D01*
X004575Y002317D02*
X005104Y002317D01*
X005033Y002416D02*
X004535Y002416D01*
X004315Y002711D02*
X004202Y002711D01*
X004215Y002950D02*
X004565Y002950D01*
X004665Y002950D01*
X005015Y003300D01*
X007515Y003300D01*
X008065Y003850D01*
X008065Y004631D01*
X007825Y004583D02*
X007805Y004583D01*
X007805Y004681D02*
X007825Y004681D01*
X007825Y004780D02*
X007805Y004780D01*
X007805Y004878D02*
X007825Y004878D01*
X007825Y004977D02*
X007805Y004977D01*
X007805Y005075D02*
X007825Y005075D01*
X007805Y005110D02*
X007741Y005174D01*
X007390Y005174D01*
X007325Y005110D01*
X007325Y004152D01*
X007390Y004088D01*
X007405Y004088D01*
X007405Y004066D01*
X007149Y003810D01*
X004882Y003810D01*
X004911Y003881D01*
X004911Y004019D01*
X004896Y004055D01*
X004958Y004117D01*
X005071Y004117D01*
X005071Y004054D01*
X005135Y003990D01*
X005895Y003990D01*
X005897Y003992D01*
X006049Y003840D01*
X006981Y003840D01*
X007075Y003934D01*
X007225Y004084D01*
X007225Y004088D01*
X007241Y004088D01*
X007305Y004152D01*
X007305Y005110D01*
X007241Y005174D01*
X007225Y005174D01*
X007225Y005766D01*
X007131Y005860D01*
X006742Y006250D01*
X006742Y006377D01*
X006677Y006441D01*
X006153Y006441D01*
X006089Y006377D01*
X006089Y005892D01*
X006153Y005828D01*
X006677Y005828D01*
X006694Y005845D01*
X006905Y005634D01*
X006905Y005174D01*
X006890Y005174D01*
X006825Y005110D01*
X006825Y004160D01*
X006805Y004160D01*
X006805Y005110D01*
X006741Y005174D01*
X006725Y005174D01*
X006725Y005206D01*
X006742Y005223D01*
X006742Y005708D01*
X006677Y005772D01*
X006153Y005772D01*
X006089Y005708D01*
X006089Y005625D01*
X006038Y005625D01*
X006038Y005708D01*
X005973Y005772D01*
X005457Y005772D01*
X005413Y005728D01*
X005025Y006116D01*
X004990Y006151D01*
X004990Y006226D01*
X004741Y006475D01*
X004389Y006475D01*
X004140Y006226D01*
X004140Y005874D01*
X004389Y005625D01*
X004741Y005625D01*
X004903Y005786D01*
X005393Y005296D01*
X005393Y005203D01*
X005457Y005139D01*
X005973Y005139D01*
X006038Y005203D01*
X006038Y005305D01*
X006089Y005305D01*
X006089Y005223D01*
X006153Y005159D01*
X006374Y005159D01*
X006325Y005110D01*
X006325Y004160D01*
X006181Y004160D01*
X005960Y004382D01*
X005960Y004500D01*
X005895Y004564D01*
X005135Y004564D01*
X005071Y004500D01*
X005071Y004437D01*
X004826Y004437D01*
X004670Y004281D01*
X004634Y004296D01*
X004496Y004296D01*
X004369Y004244D01*
X004272Y004146D01*
X004219Y004019D01*
X004219Y003881D01*
X004272Y003754D01*
X004316Y003710D01*
X004002Y003710D01*
X003954Y003758D01*
X003864Y003795D01*
X003766Y003795D01*
X003676Y003758D01*
X003607Y003689D01*
X003570Y003599D01*
X003570Y003501D01*
X003607Y003411D01*
X003676Y003342D01*
X003766Y003305D01*
X003864Y003305D01*
X003954Y003342D01*
X004002Y003390D01*
X004831Y003390D01*
X004925Y003484D01*
X004931Y003490D01*
X007281Y003490D01*
X007375Y003584D01*
X007725Y003934D01*
X007725Y004088D01*
X007741Y004088D01*
X007805Y004152D01*
X007805Y005110D01*
X007741Y005174D02*
X007889Y005174D01*
X008241Y005174D02*
X009615Y005174D01*
X009615Y005075D02*
X008305Y005075D01*
X008305Y004977D02*
X009615Y004977D01*
X009615Y004878D02*
X008305Y004878D01*
X008305Y004780D02*
X009615Y004780D01*
X009615Y004681D02*
X008305Y004681D01*
X008305Y004583D02*
X009615Y004583D01*
X009615Y004484D02*
X008305Y004484D01*
X008305Y004386D02*
X009615Y004386D01*
X009615Y004287D02*
X008305Y004287D01*
X008305Y004189D02*
X009615Y004189D01*
X009615Y004090D02*
X008243Y004090D01*
X008225Y003992D02*
X009615Y003992D01*
X009615Y003893D02*
X008225Y003893D01*
X008225Y003795D02*
X009615Y003795D01*
X009615Y003696D02*
X008137Y003696D01*
X008039Y003598D02*
X009615Y003598D01*
X009615Y003499D02*
X007940Y003499D01*
X007842Y003401D02*
X009615Y003401D01*
X009615Y003302D02*
X007743Y003302D01*
X007645Y003204D02*
X009615Y003204D01*
X009615Y003105D02*
X006487Y003105D01*
X006510Y003007D02*
X009615Y003007D01*
X009615Y002908D02*
X006583Y002908D01*
X006325Y002711D02*
X006000Y002711D01*
X006000Y002810D02*
X006109Y002810D01*
X006043Y003105D02*
X005046Y003105D01*
X004791Y003302D02*
X003015Y003302D01*
X003015Y003204D02*
X004329Y003204D01*
X004144Y003105D02*
X003015Y003105D01*
X003015Y003007D02*
X004045Y003007D01*
X003947Y002908D02*
X003015Y002908D01*
X003015Y002810D02*
X003848Y002810D01*
X003750Y002711D02*
X003015Y002711D01*
X003015Y002613D02*
X003651Y002613D01*
X003555Y002514D02*
X003015Y002514D01*
X003715Y002450D02*
X004215Y002950D01*
X003715Y002450D02*
X003715Y001950D01*
X004575Y001923D02*
X005412Y001923D01*
X005313Y001825D02*
X004575Y001825D01*
X004575Y001726D02*
X005215Y001726D01*
X005365Y001650D02*
X005665Y001950D01*
X006415Y001950D01*
X006318Y002120D02*
X004575Y002120D01*
X004575Y002022D02*
X005510Y002022D01*
X005667Y001726D02*
X005808Y001726D01*
X005706Y001628D02*
X005691Y001628D01*
X005692Y001529D02*
X005699Y001529D01*
X005365Y001650D02*
X005365Y001385D01*
X005039Y001431D02*
X004911Y001431D01*
X005009Y001332D02*
X005039Y001332D01*
X005039Y001529D02*
X004575Y001529D01*
X004575Y001628D02*
X005039Y001628D01*
X004249Y001135D02*
X004076Y001135D01*
X004151Y001037D02*
X003980Y001037D01*
X003990Y000938D02*
X004140Y000938D01*
X004140Y000840D02*
X003990Y000840D01*
X003990Y000741D02*
X004140Y000741D01*
X004172Y000643D02*
X003959Y000643D01*
X003860Y000544D02*
X004270Y000544D01*
X004369Y000446D02*
X003762Y000446D01*
X003369Y000446D02*
X003104Y000446D01*
X003041Y000544D02*
X003270Y000544D01*
X004990Y000840D02*
X005039Y000840D01*
X005305Y001037D02*
X006975Y001037D01*
X007165Y001000D02*
X007165Y001500D01*
X007565Y001900D01*
X007519Y001628D02*
X009615Y001628D01*
X009615Y001529D02*
X007420Y001529D01*
X007358Y001431D02*
X007325Y001431D01*
X007325Y001332D02*
X007358Y001332D01*
X007358Y001234D02*
X007325Y001234D01*
X007325Y001135D02*
X007358Y001135D01*
X007358Y001037D02*
X007325Y001037D01*
X007165Y001000D02*
X006881Y000715D01*
X006765Y000715D01*
X006065Y000715D01*
X006392Y000544D02*
X006439Y000544D01*
X006466Y000446D02*
X006364Y000446D01*
X007064Y000446D02*
X007358Y000446D01*
X007358Y000544D02*
X007092Y000544D01*
X007092Y000643D02*
X007358Y000643D01*
X007358Y000741D02*
X007132Y000741D01*
X007231Y000840D02*
X007358Y000840D01*
X007358Y000938D02*
X007325Y000938D01*
X008050Y001726D02*
X008080Y001726D01*
X008080Y001825D02*
X008050Y001825D01*
X008050Y001923D02*
X008080Y001923D01*
X008080Y002022D02*
X008050Y002022D01*
X008050Y002120D02*
X008080Y002120D01*
X008080Y002219D02*
X008050Y002219D01*
X008080Y002284D02*
X008345Y002284D01*
X008345Y002722D01*
X008335Y002760D01*
X008315Y002794D01*
X008287Y002822D01*
X008253Y002842D01*
X008215Y002852D01*
X008080Y002852D01*
X008080Y002284D01*
X008080Y002317D02*
X008050Y002317D01*
X008050Y002416D02*
X008080Y002416D01*
X008080Y002514D02*
X008050Y002514D01*
X008050Y002613D02*
X008080Y002613D01*
X008080Y002711D02*
X008050Y002711D01*
X008050Y002810D02*
X008080Y002810D01*
X008300Y002810D02*
X009615Y002810D01*
X009615Y002711D02*
X008345Y002711D01*
X008345Y002613D02*
X009615Y002613D01*
X009615Y002514D02*
X008345Y002514D01*
X008345Y002416D02*
X009615Y002416D01*
X009615Y002317D02*
X008345Y002317D01*
X008345Y002219D02*
X009615Y002219D01*
X009615Y002120D02*
X008345Y002120D01*
X008345Y002022D02*
X009615Y002022D01*
X009615Y001923D02*
X008345Y001923D01*
X008345Y001825D02*
X009615Y001825D01*
X009615Y001726D02*
X008297Y001726D01*
X008673Y001431D02*
X009615Y001431D01*
X009615Y001332D02*
X008673Y001332D01*
X008673Y001234D02*
X009615Y001234D01*
X009615Y001135D02*
X008673Y001135D01*
X008673Y001037D02*
X009615Y001037D01*
X009615Y000938D02*
X008673Y000938D01*
X008673Y000840D02*
X009615Y000840D01*
X009615Y000741D02*
X008673Y000741D01*
X008673Y000643D02*
X009614Y000643D01*
X009590Y000544D02*
X008673Y000544D01*
X008673Y000446D02*
X009527Y000446D01*
X007831Y002810D02*
X007743Y002810D01*
X007488Y003499D02*
X007290Y003499D01*
X007389Y003598D02*
X007586Y003598D01*
X007487Y003696D02*
X007685Y003696D01*
X007783Y003795D02*
X007586Y003795D01*
X007684Y003893D02*
X007882Y003893D01*
X007905Y003992D02*
X007725Y003992D01*
X007743Y004090D02*
X007888Y004090D01*
X007825Y004189D02*
X007805Y004189D01*
X007805Y004287D02*
X007825Y004287D01*
X007825Y004386D02*
X007805Y004386D01*
X007805Y004484D02*
X007825Y004484D01*
X007565Y004631D02*
X007565Y004000D01*
X007215Y003650D01*
X004865Y003650D01*
X004765Y003550D01*
X003815Y003550D01*
X003618Y003401D02*
X003015Y003401D01*
X003015Y003499D02*
X003571Y003499D01*
X003570Y003598D02*
X003015Y003598D01*
X003015Y003696D02*
X003615Y003696D01*
X003765Y003795D02*
X003015Y003795D01*
X003015Y003893D02*
X004219Y003893D01*
X004219Y003992D02*
X003015Y003992D01*
X003015Y004090D02*
X004248Y004090D01*
X004314Y004189D02*
X003015Y004189D01*
X003015Y004287D02*
X004474Y004287D01*
X004656Y004287D02*
X004676Y004287D01*
X004774Y004386D02*
X003015Y004386D01*
X003665Y004484D02*
X003765Y004484D01*
X003765Y004583D02*
X003665Y004583D01*
X003665Y004681D02*
X003765Y004681D01*
X003765Y004780D02*
X003665Y004780D01*
X003665Y004878D02*
X003765Y004878D01*
X003765Y004977D02*
X006325Y004977D01*
X006325Y005075D02*
X004615Y005075D01*
X004615Y005174D02*
X005422Y005174D01*
X005393Y005272D02*
X004615Y005272D01*
X004610Y005371D02*
X005318Y005371D01*
X005220Y005469D02*
X004524Y005469D01*
X004348Y005666D02*
X003839Y005666D01*
X003937Y005765D02*
X004250Y005765D01*
X004151Y005863D02*
X004030Y005863D01*
X004030Y005857D02*
X004030Y006020D01*
X003595Y006020D01*
X003595Y005585D01*
X003758Y005585D01*
X004030Y005857D01*
X004030Y005962D02*
X004140Y005962D01*
X004140Y006060D02*
X003595Y006060D01*
X003595Y006080D02*
X003595Y006020D01*
X003535Y006020D01*
X003100Y006020D01*
X003100Y005857D01*
X003373Y005585D01*
X003535Y005585D01*
X003535Y006020D01*
X003535Y006080D01*
X003100Y006080D01*
X003100Y006243D01*
X003373Y006515D01*
X003535Y006515D01*
X003535Y006080D01*
X003595Y006080D01*
X003595Y006515D01*
X003758Y006515D01*
X004030Y006243D01*
X004030Y006080D01*
X003595Y006080D01*
X003535Y006060D02*
X003015Y006060D01*
X003015Y005962D02*
X003100Y005962D01*
X003100Y005863D02*
X003015Y005863D01*
X003015Y005765D02*
X003193Y005765D01*
X003292Y005666D02*
X003015Y005666D01*
X003015Y005568D02*
X005121Y005568D01*
X005023Y005666D02*
X004782Y005666D01*
X004881Y005765D02*
X004924Y005765D01*
X005180Y005962D02*
X005353Y005962D01*
X005353Y005918D02*
X005363Y005880D01*
X005383Y005846D01*
X005410Y005818D01*
X005445Y005798D01*
X005483Y005788D01*
X005665Y005788D01*
X005665Y006094D01*
X005765Y006094D01*
X005765Y005788D01*
X005948Y005788D01*
X005986Y005798D01*
X006020Y005818D01*
X006048Y005846D01*
X006068Y005880D01*
X006078Y005918D01*
X006078Y006094D01*
X005765Y006094D01*
X005765Y006194D01*
X006078Y006194D01*
X006078Y006371D01*
X006068Y006409D01*
X006048Y006443D01*
X006020Y006471D01*
X005986Y006491D01*
X005948Y006501D01*
X005765Y006501D01*
X005765Y006194D01*
X005665Y006194D01*
X005665Y006094D01*
X005353Y006094D01*
X005353Y005918D01*
X005373Y005863D02*
X005278Y005863D01*
X005377Y005765D02*
X005449Y005765D01*
X005665Y005863D02*
X005765Y005863D01*
X005765Y005962D02*
X005665Y005962D01*
X005665Y006060D02*
X005765Y006060D01*
X005765Y006159D02*
X006089Y006159D01*
X006078Y006257D02*
X006089Y006257D01*
X006078Y006356D02*
X006089Y006356D01*
X006037Y006454D02*
X007358Y006454D01*
X007358Y006356D02*
X006742Y006356D01*
X006742Y006257D02*
X007358Y006257D01*
X007358Y006159D02*
X006833Y006159D01*
X006631Y006135D02*
X007065Y005700D01*
X007065Y004631D01*
X007065Y004150D01*
X006915Y004000D01*
X006115Y004000D01*
X005838Y004277D01*
X005515Y004277D01*
X004892Y004277D01*
X004565Y003950D01*
X004255Y003795D02*
X003865Y003795D01*
X004589Y004484D02*
X005071Y004484D01*
X005071Y004090D02*
X004931Y004090D01*
X004911Y003992D02*
X005133Y003992D01*
X004911Y003893D02*
X005996Y003893D01*
X005897Y003992D02*
X005897Y003992D01*
X006153Y004189D02*
X006325Y004189D01*
X006325Y004287D02*
X006054Y004287D01*
X005960Y004386D02*
X006325Y004386D01*
X006325Y004484D02*
X005960Y004484D01*
X006325Y004583D02*
X004615Y004583D01*
X004615Y004681D02*
X006325Y004681D01*
X006325Y004780D02*
X004615Y004780D01*
X004615Y004878D02*
X006325Y004878D01*
X006565Y004631D02*
X006565Y005300D01*
X006415Y005450D01*
X006415Y005465D01*
X005725Y005465D01*
X005715Y005456D01*
X005460Y005456D01*
X004865Y006050D01*
X004565Y006050D01*
X004140Y006159D02*
X004030Y006159D01*
X004016Y006257D02*
X004171Y006257D01*
X004270Y006356D02*
X003917Y006356D01*
X003819Y006454D02*
X004368Y006454D01*
X004762Y006454D02*
X005393Y006454D01*
X005383Y006443D02*
X005363Y006409D01*
X005353Y006371D01*
X005353Y006194D01*
X005665Y006194D01*
X005665Y006501D01*
X005483Y006501D01*
X005445Y006491D01*
X005410Y006471D01*
X005383Y006443D01*
X005353Y006356D02*
X004861Y006356D01*
X004959Y006257D02*
X005353Y006257D01*
X005353Y006060D02*
X005081Y006060D01*
X004990Y006159D02*
X005665Y006159D01*
X005665Y006257D02*
X005765Y006257D01*
X005765Y006356D02*
X005665Y006356D01*
X005665Y006454D02*
X005765Y006454D01*
X006078Y006060D02*
X006089Y006060D01*
X006078Y005962D02*
X006089Y005962D01*
X006058Y005863D02*
X006118Y005863D01*
X006145Y005765D02*
X005981Y005765D01*
X006038Y005666D02*
X006089Y005666D01*
X006089Y005272D02*
X006038Y005272D01*
X006008Y005174D02*
X006138Y005174D01*
X006741Y005174D02*
X006889Y005174D01*
X006825Y005075D02*
X006805Y005075D01*
X006805Y004977D02*
X006825Y004977D01*
X006825Y004878D02*
X006805Y004878D01*
X006805Y004780D02*
X006825Y004780D01*
X006825Y004681D02*
X006805Y004681D01*
X006805Y004583D02*
X006825Y004583D01*
X006825Y004484D02*
X006805Y004484D01*
X006805Y004386D02*
X006825Y004386D01*
X006825Y004287D02*
X006805Y004287D01*
X006805Y004189D02*
X006825Y004189D01*
X007133Y003992D02*
X007330Y003992D01*
X007232Y003893D02*
X007034Y003893D01*
X007243Y004090D02*
X007388Y004090D01*
X007325Y004189D02*
X007305Y004189D01*
X007305Y004287D02*
X007325Y004287D01*
X007325Y004386D02*
X007305Y004386D01*
X007305Y004484D02*
X007325Y004484D01*
X007325Y004583D02*
X007305Y004583D01*
X007305Y004681D02*
X007325Y004681D01*
X007325Y004780D02*
X007305Y004780D01*
X007305Y004878D02*
X007325Y004878D01*
X007325Y004977D02*
X007305Y004977D01*
X007305Y005075D02*
X007325Y005075D01*
X007389Y005174D02*
X007241Y005174D01*
X007225Y005272D02*
X009615Y005272D01*
X009615Y005371D02*
X007225Y005371D01*
X007225Y005469D02*
X007358Y005469D01*
X007358Y005568D02*
X007225Y005568D01*
X007225Y005666D02*
X007358Y005666D01*
X007358Y005765D02*
X007225Y005765D01*
X007128Y005863D02*
X007358Y005863D01*
X007358Y005962D02*
X007030Y005962D01*
X006931Y006060D02*
X007358Y006060D01*
X006873Y005666D02*
X006742Y005666D01*
X006774Y005765D02*
X006685Y005765D01*
X006742Y005568D02*
X006905Y005568D01*
X006905Y005469D02*
X006742Y005469D01*
X006742Y005371D02*
X006905Y005371D01*
X006905Y005272D02*
X006742Y005272D01*
X006631Y006135D02*
X006415Y006135D01*
X008673Y006159D02*
X009615Y006159D01*
X009614Y006257D02*
X008673Y006257D01*
X008673Y006356D02*
X009590Y006356D01*
X009527Y006454D02*
X008673Y006454D01*
X008673Y006060D02*
X009615Y006060D01*
X009615Y005962D02*
X008673Y005962D01*
X008673Y005863D02*
X009615Y005863D01*
X009615Y005765D02*
X008673Y005765D01*
X008673Y005666D02*
X009615Y005666D01*
X009615Y005568D02*
X008673Y005568D01*
X008673Y005469D02*
X009615Y005469D01*
X005554Y002908D02*
X005477Y002908D01*
X005477Y002810D02*
X005554Y002810D01*
X005554Y002711D02*
X005477Y002711D01*
X004889Y003401D02*
X004842Y003401D01*
X003765Y005075D02*
X003665Y005075D01*
X003665Y005174D02*
X003765Y005174D01*
X003765Y005272D02*
X003665Y005272D01*
X003665Y005371D02*
X003765Y005371D01*
X003765Y005469D02*
X003665Y005469D01*
X003595Y005666D02*
X003535Y005666D01*
X003535Y005765D02*
X003595Y005765D01*
X003595Y005863D02*
X003535Y005863D01*
X003535Y005962D02*
X003595Y005962D01*
X003595Y006159D02*
X003535Y006159D01*
X003535Y006257D02*
X003595Y006257D01*
X003595Y006356D02*
X003535Y006356D01*
X003535Y006454D02*
X003595Y006454D01*
X003312Y006454D02*
X003103Y006454D01*
X003040Y006356D02*
X003213Y006356D01*
X003115Y006257D02*
X003016Y006257D01*
X003015Y006159D02*
X003100Y006159D01*
M02*
