G75*
%MOIN*%
%OFA0B0*%
%FSLAX24Y24*%
%IPPOS*%
%LPD*%
%AMOC8*
5,1,8,0,0,1.08239X$1,22.5*
%
%ADD10C,0.0080*%
%ADD11C,0.0060*%
D10*
X003265Y000550D02*
X003265Y000650D01*
X003265Y000550D02*
X003365Y000550D01*
X003765Y000550D02*
X003865Y000550D01*
X003865Y000650D01*
X004265Y000650D02*
X004265Y000550D01*
X004365Y000550D01*
X004765Y000550D02*
X004865Y000550D01*
X004865Y000650D01*
X004865Y001050D02*
X004865Y001150D01*
X004765Y001150D01*
X004365Y001150D02*
X004265Y001150D01*
X004265Y001050D01*
X003865Y001050D02*
X003865Y001150D01*
X003765Y001150D01*
X003365Y001150D02*
X003265Y001150D01*
X003265Y001050D01*
X004685Y001570D02*
X004925Y001570D01*
X004925Y001490D02*
X004925Y001650D01*
X004885Y001785D02*
X004725Y001785D01*
X004685Y001825D01*
X004685Y001905D01*
X004725Y001945D01*
X004885Y001785D01*
X004925Y001825D01*
X004925Y001905D01*
X004885Y001945D01*
X004725Y001945D01*
X004685Y002079D02*
X004925Y002079D01*
X004845Y002079D02*
X004685Y002239D01*
X004805Y002119D02*
X004925Y002239D01*
X005584Y002640D02*
X005584Y002800D01*
X005584Y002720D02*
X005824Y002720D01*
X005962Y002791D02*
X005962Y004109D01*
X005824Y004135D02*
X005824Y004055D01*
X005784Y004015D01*
X005704Y004015D02*
X005664Y004095D01*
X005664Y004135D01*
X005704Y004175D01*
X005784Y004175D01*
X005824Y004135D01*
X005704Y004015D02*
X005584Y004015D01*
X005584Y004175D01*
X005624Y003881D02*
X005584Y003840D01*
X005584Y003760D01*
X005624Y003720D01*
X005624Y003586D02*
X005584Y003586D01*
X005624Y003586D02*
X005704Y003506D01*
X005824Y003506D01*
X005704Y003506D02*
X005624Y003426D01*
X005584Y003426D01*
X005584Y003291D02*
X005824Y003291D01*
X005584Y003131D01*
X005824Y003131D01*
X005824Y003015D02*
X005824Y002935D01*
X005824Y002975D02*
X005584Y002975D01*
X005584Y002935D02*
X005584Y003015D01*
X004875Y003340D02*
X004875Y003500D01*
X004875Y003420D02*
X004635Y003420D01*
X004715Y003340D01*
X004675Y003635D02*
X004635Y003675D01*
X004635Y003755D01*
X004675Y003795D01*
X004835Y003635D01*
X004875Y003675D01*
X004875Y003755D01*
X004835Y003795D01*
X004675Y003795D01*
X004675Y003929D02*
X004635Y003969D01*
X004635Y004049D01*
X004675Y004089D01*
X004835Y003929D01*
X004875Y003969D01*
X004875Y004049D01*
X004835Y004089D01*
X004675Y004089D01*
X004635Y004224D02*
X004875Y004224D01*
X004795Y004224D02*
X004635Y004384D01*
X004755Y004264D02*
X004875Y004384D01*
X004875Y004690D02*
X004715Y004850D01*
X004675Y004850D01*
X004635Y004810D01*
X004635Y004730D01*
X004675Y004690D01*
X004875Y004690D02*
X004875Y004850D01*
X004875Y004985D02*
X004715Y005145D01*
X004675Y005145D01*
X004635Y005105D01*
X004635Y005025D01*
X004675Y004985D01*
X004875Y004985D02*
X004875Y005145D01*
X004835Y005279D02*
X004675Y005279D01*
X004635Y005319D01*
X004635Y005399D01*
X004675Y005439D01*
X004835Y005279D01*
X004875Y005319D01*
X004875Y005399D01*
X004835Y005439D01*
X004675Y005439D01*
X004635Y005574D02*
X004875Y005574D01*
X004795Y005574D02*
X004635Y005734D01*
X004755Y005614D02*
X004875Y005734D01*
X004539Y006043D02*
X004486Y005990D01*
X004379Y005990D01*
X004326Y006043D01*
X004195Y006043D02*
X004195Y005990D01*
X004142Y005990D01*
X004142Y006043D01*
X004195Y006043D01*
X003987Y006043D02*
X003934Y005990D01*
X003827Y005990D01*
X003773Y006043D01*
X003987Y006257D01*
X003987Y006043D01*
X003773Y006043D02*
X003773Y006257D01*
X003827Y006310D01*
X003934Y006310D01*
X003987Y006257D01*
X003619Y006257D02*
X003619Y006150D01*
X003565Y006097D01*
X003405Y006097D01*
X003512Y006097D02*
X003619Y005990D01*
X003405Y005990D02*
X003405Y006310D01*
X003565Y006310D01*
X003619Y006257D01*
X004326Y006257D02*
X004379Y006310D01*
X004486Y006310D01*
X004539Y006257D01*
X004539Y006204D01*
X004486Y006150D01*
X004539Y006097D01*
X004539Y006043D01*
X004486Y006150D02*
X004433Y006150D01*
X007871Y004106D02*
X007871Y002791D01*
X008183Y003275D02*
X008103Y003355D01*
X008343Y003355D01*
X008343Y003275D02*
X008343Y003435D01*
X008303Y003570D02*
X008143Y003570D01*
X008103Y003610D01*
X008103Y003690D01*
X008143Y003730D01*
X008303Y003570D01*
X008343Y003610D01*
X008343Y003690D01*
X008303Y003730D01*
X008143Y003730D01*
X008223Y003864D02*
X008223Y004024D01*
X008343Y003984D02*
X008103Y003984D01*
X008223Y003864D01*
X007278Y003889D02*
X007280Y003916D01*
X007286Y003943D01*
X007295Y003969D01*
X007308Y003993D01*
X007324Y004016D01*
X007343Y004035D01*
X007365Y004052D01*
X007389Y004066D01*
X007414Y004076D01*
X007441Y004083D01*
X007468Y004086D01*
X007496Y004085D01*
X007523Y004080D01*
X007549Y004072D01*
X007573Y004060D01*
X007596Y004044D01*
X007617Y004026D01*
X007634Y004005D01*
X007649Y003981D01*
X007660Y003956D01*
X007668Y003930D01*
X007672Y003903D01*
X007672Y003875D01*
X007668Y003848D01*
X007660Y003822D01*
X007649Y003797D01*
X007634Y003773D01*
X007617Y003752D01*
X007596Y003734D01*
X007574Y003718D01*
X007549Y003706D01*
X007523Y003698D01*
X007496Y003693D01*
X007468Y003692D01*
X007441Y003695D01*
X007414Y003702D01*
X007389Y003712D01*
X007365Y003726D01*
X007343Y003743D01*
X007324Y003762D01*
X007308Y003785D01*
X007295Y003809D01*
X007286Y003835D01*
X007280Y003862D01*
X007278Y003889D01*
X005824Y003881D02*
X005824Y003720D01*
X005664Y003881D01*
X005624Y003881D01*
X004835Y003929D02*
X004675Y003929D01*
X004675Y003635D02*
X004835Y003635D01*
X004685Y001570D02*
X004765Y001490D01*
X009005Y000790D02*
X009325Y000790D01*
X009325Y001004D01*
X009272Y001158D02*
X009165Y001158D01*
X009112Y001212D01*
X009112Y001318D01*
X009165Y001372D01*
X009272Y001372D01*
X009325Y001318D01*
X009325Y001212D01*
X009272Y001158D01*
X009608Y001062D02*
X009822Y001062D01*
X009875Y001115D01*
X009822Y001307D02*
X009608Y001307D01*
X009662Y001254D02*
X009662Y001361D01*
X009662Y001499D02*
X009662Y001660D01*
X009715Y001713D01*
X009822Y001713D01*
X009875Y001660D01*
X009875Y001499D01*
X009982Y001499D02*
X009662Y001499D01*
X009822Y001307D02*
X009875Y001361D01*
X009662Y001115D02*
X009662Y001008D01*
X009715Y000854D02*
X009875Y000854D01*
X009715Y000854D02*
X009662Y000800D01*
X009662Y000693D01*
X009715Y000640D01*
X009555Y000640D02*
X009875Y000640D01*
X009325Y001527D02*
X009325Y001687D01*
X009272Y001740D01*
X009218Y001687D01*
X009218Y001580D01*
X009165Y001527D01*
X009112Y001580D01*
X009112Y001740D01*
X009112Y001895D02*
X009112Y002002D01*
X009058Y001948D02*
X009272Y001948D01*
X009325Y002002D01*
X009662Y001921D02*
X009715Y001921D01*
X009715Y001868D01*
X009662Y001868D01*
X009662Y001921D01*
X009822Y001921D02*
X009875Y001921D01*
X009875Y001868D01*
X009822Y001868D01*
X009822Y001921D01*
X009875Y002052D02*
X009555Y002265D01*
X009875Y002420D02*
X009555Y002634D01*
X009555Y002789D02*
X009875Y002789D01*
X009875Y002949D01*
X009822Y003002D01*
X009715Y003002D01*
X009662Y002949D01*
X009662Y002789D01*
X009325Y002722D02*
X009005Y002722D01*
X009112Y002616D01*
X009005Y002509D01*
X009325Y002509D01*
X009272Y002877D02*
X009165Y002877D01*
X009112Y002930D01*
X009112Y003037D01*
X009165Y003091D01*
X009272Y003091D01*
X009325Y003037D01*
X009325Y002930D01*
X009272Y002877D01*
X009662Y003157D02*
X009662Y003210D01*
X009875Y003210D01*
X009875Y003157D02*
X009875Y003264D01*
X009662Y003402D02*
X009662Y003509D01*
X009608Y003456D02*
X009822Y003456D01*
X009875Y003509D01*
X009875Y003648D02*
X009875Y003701D01*
X009822Y003701D01*
X009822Y003648D01*
X009875Y003648D01*
X009875Y003832D02*
X009875Y003939D01*
X009875Y003885D02*
X009555Y003885D01*
X009555Y003832D01*
X009325Y003774D02*
X009325Y003667D01*
X009272Y003614D01*
X009165Y003614D01*
X009112Y003667D01*
X009112Y003774D01*
X009165Y003827D01*
X009218Y003827D01*
X009218Y003614D01*
X009112Y003459D02*
X009112Y003299D01*
X009165Y003245D01*
X009272Y003245D01*
X009325Y003299D01*
X009325Y003459D01*
X009005Y003459D01*
X009502Y003210D02*
X009555Y003210D01*
X009325Y003982D02*
X009325Y004089D01*
X009325Y004035D02*
X009005Y004035D01*
X009005Y003982D01*
X009662Y004078D02*
X009822Y004078D01*
X009875Y004131D01*
X009875Y004291D01*
X009929Y004291D02*
X009982Y004238D01*
X009982Y004184D01*
X009929Y004291D02*
X009662Y004291D01*
X009875Y004446D02*
X009555Y004659D01*
X009662Y004814D02*
X009822Y004814D01*
X009875Y004868D01*
X009875Y005028D01*
X009662Y005028D01*
X009662Y005183D02*
X009662Y005236D01*
X009715Y005289D01*
X009662Y005343D01*
X009715Y005396D01*
X009875Y005396D01*
X009875Y005289D02*
X009715Y005289D01*
X009662Y005183D02*
X009875Y005183D01*
X009875Y005551D02*
X009875Y005658D01*
X009875Y005604D02*
X009555Y005604D01*
X009555Y005551D01*
X009325Y005578D02*
X009112Y005578D01*
X009218Y005578D02*
X009112Y005685D01*
X009112Y005738D01*
X009112Y005885D02*
X009112Y005938D01*
X009165Y005992D01*
X009112Y006045D01*
X009165Y006099D01*
X009325Y006099D01*
X009325Y005992D02*
X009165Y005992D01*
X009112Y005885D02*
X009325Y005885D01*
X009662Y005850D02*
X009715Y005903D01*
X009662Y005957D01*
X009715Y006010D01*
X009875Y006010D01*
X009875Y005903D02*
X009715Y005903D01*
X009662Y005850D02*
X009662Y005796D01*
X009875Y005796D01*
X009822Y006165D02*
X009768Y006218D01*
X009768Y006378D01*
X009715Y006378D02*
X009875Y006378D01*
X009875Y006218D01*
X009822Y006165D01*
X009662Y006218D02*
X009662Y006325D01*
X009715Y006378D01*
X009325Y005423D02*
X009165Y005423D01*
X009112Y005370D01*
X009112Y005263D01*
X009218Y005263D02*
X009218Y005423D01*
X009325Y005423D02*
X009325Y005263D01*
X009272Y005210D01*
X009218Y005263D01*
X009325Y005071D02*
X009325Y004964D01*
X009325Y005018D02*
X009005Y005018D01*
X009005Y004964D01*
X009112Y004809D02*
X009325Y004809D01*
X009165Y004809D02*
X009165Y004596D01*
X009112Y004596D02*
X009005Y004703D01*
X009112Y004809D01*
X009112Y004596D02*
X009325Y004596D01*
D11*
X008835Y004618D02*
X008792Y004575D01*
X008618Y004748D01*
X008792Y004748D01*
X008835Y004705D01*
X008835Y004618D01*
X008792Y004575D02*
X008618Y004575D01*
X008575Y004618D01*
X008575Y004705D01*
X008618Y004748D01*
X008575Y004869D02*
X008835Y004869D01*
X008748Y004869D02*
X008575Y005043D01*
X008705Y004913D02*
X008835Y005043D01*
X008835Y004453D02*
X008835Y004280D01*
X008835Y004367D02*
X008575Y004367D01*
X008662Y004280D01*
M02*
