G75*
G70*
%OFA0B0*%
%FSLAX24Y24*%
%IPPOS*%
%LPD*%
%AMOC8*
5,1,8,0,0,1.08239X$1,22.5*
%
%ADD10C,0.0080*%
D10*
X005915Y001950D02*
X005915Y004950D01*
X006915Y005950D01*
X007415Y005950D01*
X007415Y006140D02*
X007362Y006193D01*
X007415Y006140D02*
X007522Y006140D01*
X007575Y006193D01*
X007575Y006407D01*
X007522Y006460D01*
X007415Y006460D01*
X007362Y006407D01*
X007207Y006460D02*
X007047Y006460D01*
X006993Y006407D01*
X006993Y006300D01*
X007047Y006247D01*
X007207Y006247D01*
X007100Y006247D02*
X006993Y006140D01*
X007207Y006140D02*
X007207Y006460D01*
X006839Y006354D02*
X006732Y006460D01*
X006732Y006140D01*
X006839Y006140D02*
X006625Y006140D01*
X006470Y006140D02*
X006257Y006354D01*
X006257Y006407D01*
X006310Y006460D01*
X006417Y006460D01*
X006470Y006407D01*
X006470Y006140D02*
X006257Y006140D01*
X006102Y006140D02*
X005888Y006354D01*
X005888Y006407D01*
X005942Y006460D01*
X006049Y006460D01*
X006102Y006407D01*
X005734Y006460D02*
X005734Y006300D01*
X005627Y006354D01*
X005573Y006354D01*
X005520Y006300D01*
X005520Y006193D01*
X005573Y006140D01*
X005680Y006140D01*
X005734Y006193D01*
X005888Y006140D02*
X006102Y006140D01*
X005734Y006460D02*
X005520Y006460D01*
X003205Y004660D02*
X003205Y004380D01*
X003205Y004520D02*
X003626Y004520D01*
X003485Y004380D01*
X003011Y003850D02*
X003013Y003887D01*
X003019Y003924D01*
X003028Y003959D01*
X003042Y003994D01*
X003058Y004027D01*
X003079Y004058D01*
X003102Y004087D01*
X003128Y004113D01*
X003157Y004136D01*
X003188Y004157D01*
X003221Y004173D01*
X003256Y004187D01*
X003291Y004196D01*
X003328Y004202D01*
X003365Y004204D01*
X003402Y004202D01*
X003439Y004196D01*
X003474Y004187D01*
X003509Y004173D01*
X003542Y004157D01*
X003573Y004136D01*
X003602Y004113D01*
X003628Y004087D01*
X003651Y004058D01*
X003672Y004027D01*
X003688Y003994D01*
X003702Y003959D01*
X003711Y003924D01*
X003717Y003887D01*
X003719Y003850D01*
X003717Y003813D01*
X003711Y003776D01*
X003702Y003741D01*
X003688Y003706D01*
X003672Y003673D01*
X003651Y003642D01*
X003628Y003613D01*
X003602Y003587D01*
X003573Y003564D01*
X003542Y003543D01*
X003509Y003527D01*
X003474Y003513D01*
X003439Y003504D01*
X003402Y003498D01*
X003365Y003496D01*
X003328Y003498D01*
X003291Y003504D01*
X003256Y003513D01*
X003221Y003527D01*
X003188Y003543D01*
X003157Y003564D01*
X003128Y003587D01*
X003102Y003613D01*
X003079Y003642D01*
X003058Y003673D01*
X003042Y003706D01*
X003028Y003741D01*
X003019Y003776D01*
X003013Y003813D01*
X003011Y003850D01*
X005915Y001950D02*
X006915Y000950D01*
X007415Y000950D01*
X009415Y000950D02*
X010015Y000950D01*
X010015Y005950D02*
X009415Y005950D01*
M02*
