G75*
%MOIN*%
%OFA0B0*%
%FSLAX24Y24*%
%IPPOS*%
%LPD*%
%AMOC8*
5,1,8,0,0,1.08239X$1,22.5*
%
%ADD10C,0.0080*%
D10*
X003093Y001340D02*
X003093Y001660D01*
X003306Y001660D02*
X003306Y001340D01*
X003461Y001393D02*
X003515Y001340D01*
X003621Y001340D01*
X003675Y001393D01*
X003675Y001607D01*
X003621Y001660D01*
X003515Y001660D01*
X003461Y001607D01*
X003306Y001500D02*
X003093Y001500D01*
X003829Y001660D02*
X004043Y001660D01*
X003936Y001660D02*
X003936Y001340D01*
X004182Y001340D02*
X004289Y001340D01*
X004235Y001340D02*
X004235Y001660D01*
X004182Y001660D02*
X004289Y001660D01*
X004443Y001660D02*
X004443Y001340D01*
X004550Y001447D01*
X004657Y001340D01*
X004657Y001660D01*
X004812Y001607D02*
X004865Y001660D01*
X004972Y001660D01*
X005025Y001607D01*
X005025Y001554D01*
X004972Y001500D01*
X004865Y001500D01*
X004812Y001447D01*
X004812Y001393D01*
X004865Y001340D01*
X004972Y001340D01*
X005025Y001393D01*
X005515Y001950D02*
X005515Y004950D01*
X006515Y005950D01*
X007015Y005950D01*
X007015Y006140D02*
X006962Y006193D01*
X007015Y006140D02*
X007122Y006140D01*
X007175Y006193D01*
X007175Y006407D01*
X007122Y006460D01*
X007015Y006460D01*
X006962Y006407D01*
X006807Y006460D02*
X006647Y006460D01*
X006593Y006407D01*
X006593Y006300D01*
X006647Y006247D01*
X006807Y006247D01*
X006700Y006247D02*
X006593Y006140D01*
X006439Y006140D02*
X006225Y006140D01*
X006332Y006140D02*
X006332Y006460D01*
X006439Y006354D01*
X006807Y006460D02*
X006807Y006140D01*
X006070Y006140D02*
X005857Y006354D01*
X005857Y006407D01*
X005910Y006460D01*
X006017Y006460D01*
X006070Y006407D01*
X005702Y006407D02*
X005649Y006460D01*
X005542Y006460D01*
X005488Y006407D01*
X005488Y006354D01*
X005702Y006140D01*
X005488Y006140D01*
X005334Y006193D02*
X005280Y006140D01*
X005173Y006140D01*
X005120Y006193D01*
X005120Y006300D01*
X005173Y006354D01*
X005227Y006354D01*
X005334Y006300D01*
X005334Y006460D01*
X005120Y006460D01*
X005857Y006140D02*
X006070Y006140D01*
X004612Y005515D02*
X004612Y005435D01*
X004572Y005395D01*
X004411Y005395D01*
X004371Y005435D01*
X004371Y005515D01*
X004411Y005555D01*
X004572Y005555D02*
X004612Y005515D01*
X004572Y005261D02*
X004612Y005221D01*
X004612Y005141D01*
X004572Y005101D01*
X004411Y005101D01*
X004371Y005141D01*
X004371Y005221D01*
X004411Y005261D01*
X004451Y004966D02*
X004612Y004966D01*
X004451Y004966D02*
X004371Y004886D01*
X004451Y004806D01*
X004612Y004806D01*
X003776Y004580D02*
X003355Y004580D01*
X003355Y004440D02*
X003355Y004720D01*
X003449Y004846D02*
X003449Y004926D01*
X003489Y004966D01*
X003569Y004966D01*
X003569Y004886D01*
X003489Y004806D02*
X003449Y004846D01*
X003489Y004806D02*
X003649Y004806D01*
X003689Y004846D01*
X003689Y004926D01*
X003649Y004966D01*
X003689Y005101D02*
X003449Y005101D01*
X003449Y005261D02*
X003689Y005261D01*
X003689Y005395D02*
X003689Y005515D01*
X003649Y005555D01*
X003489Y005555D01*
X003449Y005515D01*
X003449Y005395D01*
X003689Y005395D01*
X003449Y005261D02*
X003689Y005101D01*
X003776Y004580D02*
X003635Y004440D01*
X003211Y003950D02*
X003213Y003987D01*
X003219Y004024D01*
X003228Y004059D01*
X003242Y004094D01*
X003258Y004127D01*
X003279Y004158D01*
X003302Y004187D01*
X003328Y004213D01*
X003357Y004236D01*
X003388Y004257D01*
X003421Y004273D01*
X003456Y004287D01*
X003491Y004296D01*
X003528Y004302D01*
X003565Y004304D01*
X003602Y004302D01*
X003639Y004296D01*
X003674Y004287D01*
X003709Y004273D01*
X003742Y004257D01*
X003773Y004236D01*
X003802Y004213D01*
X003828Y004187D01*
X003851Y004158D01*
X003872Y004127D01*
X003888Y004094D01*
X003902Y004059D01*
X003911Y004024D01*
X003917Y003987D01*
X003919Y003950D01*
X003917Y003913D01*
X003911Y003876D01*
X003902Y003841D01*
X003888Y003806D01*
X003872Y003773D01*
X003851Y003742D01*
X003828Y003713D01*
X003802Y003687D01*
X003773Y003664D01*
X003742Y003643D01*
X003709Y003627D01*
X003674Y003613D01*
X003639Y003604D01*
X003602Y003598D01*
X003565Y003596D01*
X003528Y003598D01*
X003491Y003604D01*
X003456Y003613D01*
X003421Y003627D01*
X003388Y003643D01*
X003357Y003664D01*
X003328Y003687D01*
X003302Y003713D01*
X003279Y003742D01*
X003258Y003773D01*
X003242Y003806D01*
X003228Y003841D01*
X003219Y003876D01*
X003213Y003913D01*
X003211Y003950D01*
X005515Y001950D02*
X006515Y000950D01*
X007015Y000950D01*
X009015Y000950D02*
X009615Y000950D01*
X009616Y000951D02*
X009670Y000955D01*
X009724Y000963D01*
X009777Y000975D01*
X009830Y000991D01*
X009881Y001010D01*
X009931Y001033D01*
X009979Y001059D01*
X010025Y001088D01*
X010069Y001121D01*
X010110Y001156D01*
X010149Y001195D01*
X010186Y001236D01*
X010219Y001279D01*
X010249Y001324D01*
X010276Y001372D01*
X010300Y001421D01*
X010320Y001472D01*
X010337Y001524D01*
X010350Y001577D01*
X010359Y001631D01*
X010364Y001686D01*
X010366Y001740D01*
X010364Y001795D01*
X010358Y001849D01*
X010348Y001903D01*
X010335Y001956D01*
X010318Y002008D01*
X010297Y002059D01*
X010273Y002108D01*
X010246Y002155D01*
X010215Y002200D01*
X010154Y002251D01*
X010096Y002306D01*
X010040Y002363D01*
X009988Y002423D01*
X009938Y002485D01*
X009892Y002550D01*
X009849Y002617D01*
X009809Y002686D01*
X009773Y002757D01*
X009740Y002829D01*
X009711Y002904D01*
X009686Y002979D01*
X009664Y003056D01*
X009647Y003133D01*
X009633Y003212D01*
X009623Y003291D01*
X009617Y003370D01*
X009615Y003450D01*
X009617Y003530D01*
X009623Y003609D01*
X009633Y003688D01*
X009647Y003767D01*
X009664Y003844D01*
X009686Y003921D01*
X009711Y003996D01*
X009740Y004071D01*
X009773Y004143D01*
X009809Y004214D01*
X009849Y004283D01*
X009892Y004350D01*
X009938Y004415D01*
X009988Y004477D01*
X010040Y004537D01*
X010096Y004594D01*
X010154Y004649D01*
X010215Y004700D01*
X010216Y004700D02*
X010248Y004743D01*
X010277Y004788D01*
X010303Y004836D01*
X010326Y004885D01*
X010345Y004935D01*
X010360Y004987D01*
X010372Y005040D01*
X010380Y005093D01*
X010384Y005147D01*
X010385Y005201D01*
X010381Y005255D01*
X010374Y005309D01*
X010364Y005361D01*
X010349Y005413D01*
X010331Y005464D01*
X010309Y005514D01*
X010284Y005562D01*
X010256Y005608D01*
X010224Y005651D01*
X010190Y005693D01*
X010152Y005732D01*
X010112Y005768D01*
X010070Y005802D01*
X010025Y005832D01*
X009979Y005859D01*
X009930Y005883D01*
X009880Y005903D01*
X009829Y005920D01*
X009776Y005933D01*
X009723Y005942D01*
X009670Y005948D01*
X009616Y005950D01*
X009615Y005950D02*
X009015Y005950D01*
M02*
