G75*
%MOIN*%
%OFA0B0*%
%FSLAX24Y24*%
%IPPOS*%
%LPD*%
%AMOC8*
5,1,8,0,0,1.08239X$1,22.5*
%
%ADD10C,0.0080*%
D10*
X003093Y001340D02*
X003093Y001660D01*
X003306Y001660D02*
X003306Y001340D01*
X003306Y001500D02*
X003093Y001500D01*
X003461Y001393D02*
X003515Y001340D01*
X003621Y001340D01*
X003675Y001393D01*
X003675Y001607D01*
X003621Y001660D01*
X003515Y001660D01*
X003461Y001607D01*
X003829Y001660D02*
X004043Y001660D01*
X003936Y001660D02*
X003936Y001340D01*
X004182Y001340D02*
X004289Y001340D01*
X004235Y001340D02*
X004235Y001660D01*
X004182Y001660D02*
X004289Y001660D01*
X004443Y001660D02*
X004443Y001340D01*
X004550Y001447D01*
X004657Y001340D01*
X004657Y001660D01*
X004812Y001607D02*
X004865Y001660D01*
X004972Y001660D01*
X005025Y001607D01*
X005025Y001554D01*
X004972Y001500D01*
X004865Y001500D01*
X004812Y001447D01*
X004812Y001393D01*
X004865Y001340D01*
X004972Y001340D01*
X005025Y001393D01*
X005465Y001950D02*
X005465Y004950D01*
X006465Y005950D01*
X006965Y005950D01*
X006965Y006140D02*
X006912Y006193D01*
X006965Y006140D02*
X007072Y006140D01*
X007125Y006193D01*
X007125Y006407D01*
X007072Y006460D01*
X006965Y006460D01*
X006912Y006407D01*
X006757Y006460D02*
X006597Y006460D01*
X006543Y006407D01*
X006543Y006300D01*
X006597Y006247D01*
X006757Y006247D01*
X006650Y006247D02*
X006543Y006140D01*
X006389Y006140D02*
X006175Y006140D01*
X006282Y006140D02*
X006282Y006460D01*
X006389Y006354D01*
X006020Y006407D02*
X005967Y006460D01*
X005860Y006460D01*
X005807Y006407D01*
X005807Y006354D01*
X006020Y006140D01*
X005807Y006140D01*
X005652Y006140D02*
X005438Y006354D01*
X005438Y006407D01*
X005492Y006460D01*
X005599Y006460D01*
X005652Y006407D01*
X005284Y006460D02*
X005284Y006300D01*
X005177Y006354D01*
X005123Y006354D01*
X005070Y006300D01*
X005070Y006193D01*
X005123Y006140D01*
X005230Y006140D01*
X005284Y006193D01*
X005438Y006140D02*
X005652Y006140D01*
X005284Y006460D02*
X005070Y006460D01*
X005009Y005496D02*
X005009Y005336D01*
X004929Y005256D01*
X004849Y005336D01*
X004849Y005496D01*
X004714Y005456D02*
X004714Y005296D01*
X004674Y005256D01*
X004594Y005256D01*
X004554Y005296D01*
X004420Y005296D02*
X004380Y005256D01*
X004300Y005256D01*
X004260Y005296D01*
X004420Y005296D02*
X004420Y005456D01*
X004380Y005496D01*
X004300Y005496D01*
X004260Y005456D01*
X004554Y005456D02*
X004594Y005496D01*
X004674Y005496D01*
X004714Y005456D01*
X003909Y005434D02*
X003909Y005274D01*
X003869Y005234D01*
X003789Y005234D01*
X003749Y005274D01*
X003749Y005354D01*
X003829Y005354D01*
X003749Y005434D02*
X003789Y005474D01*
X003869Y005474D01*
X003909Y005434D01*
X003614Y005474D02*
X003614Y005234D01*
X003454Y005234D02*
X003454Y005474D01*
X003320Y005474D02*
X003200Y005474D01*
X003160Y005434D01*
X003160Y005274D01*
X003200Y005234D01*
X003320Y005234D01*
X003320Y005474D01*
X003454Y005234D02*
X003614Y005474D01*
X004261Y004450D02*
X004263Y004487D01*
X004269Y004524D01*
X004278Y004559D01*
X004292Y004594D01*
X004308Y004627D01*
X004329Y004658D01*
X004352Y004687D01*
X004378Y004713D01*
X004407Y004736D01*
X004438Y004757D01*
X004471Y004773D01*
X004506Y004787D01*
X004541Y004796D01*
X004578Y004802D01*
X004615Y004804D01*
X004652Y004802D01*
X004689Y004796D01*
X004724Y004787D01*
X004759Y004773D01*
X004792Y004757D01*
X004823Y004736D01*
X004852Y004713D01*
X004878Y004687D01*
X004901Y004658D01*
X004922Y004627D01*
X004938Y004594D01*
X004952Y004559D01*
X004961Y004524D01*
X004967Y004487D01*
X004969Y004450D01*
X004967Y004413D01*
X004961Y004376D01*
X004952Y004341D01*
X004938Y004306D01*
X004922Y004273D01*
X004901Y004242D01*
X004878Y004213D01*
X004852Y004187D01*
X004823Y004164D01*
X004792Y004143D01*
X004759Y004127D01*
X004724Y004113D01*
X004689Y004104D01*
X004652Y004098D01*
X004615Y004096D01*
X004578Y004098D01*
X004541Y004104D01*
X004506Y004113D01*
X004471Y004127D01*
X004438Y004143D01*
X004407Y004164D01*
X004378Y004187D01*
X004352Y004213D01*
X004329Y004242D01*
X004308Y004273D01*
X004292Y004306D01*
X004278Y004341D01*
X004269Y004376D01*
X004263Y004413D01*
X004261Y004450D01*
X005205Y004240D02*
X005486Y004240D01*
X005345Y004240D02*
X005345Y004660D01*
X005486Y004520D01*
X006757Y006140D02*
X006757Y006460D01*
X008965Y005950D02*
X009565Y005950D01*
X009566Y005950D02*
X009620Y005948D01*
X009673Y005942D01*
X009726Y005933D01*
X009779Y005920D01*
X009830Y005903D01*
X009880Y005883D01*
X009929Y005859D01*
X009975Y005832D01*
X010020Y005802D01*
X010062Y005768D01*
X010102Y005732D01*
X010140Y005693D01*
X010174Y005651D01*
X010206Y005608D01*
X010234Y005562D01*
X010259Y005514D01*
X010281Y005464D01*
X010299Y005413D01*
X010314Y005361D01*
X010324Y005309D01*
X010331Y005255D01*
X010335Y005201D01*
X010334Y005147D01*
X010330Y005093D01*
X010322Y005040D01*
X010310Y004987D01*
X010295Y004935D01*
X010276Y004885D01*
X010253Y004836D01*
X010227Y004788D01*
X010198Y004743D01*
X010166Y004700D01*
X010165Y004700D02*
X010104Y004649D01*
X010046Y004594D01*
X009990Y004537D01*
X009938Y004477D01*
X009888Y004415D01*
X009842Y004350D01*
X009799Y004283D01*
X009759Y004214D01*
X009723Y004143D01*
X009690Y004071D01*
X009661Y003996D01*
X009636Y003921D01*
X009614Y003844D01*
X009597Y003767D01*
X009583Y003688D01*
X009573Y003609D01*
X009567Y003530D01*
X009565Y003450D01*
X009567Y003370D01*
X009573Y003291D01*
X009583Y003212D01*
X009597Y003133D01*
X009614Y003056D01*
X009636Y002979D01*
X009661Y002904D01*
X009690Y002829D01*
X009723Y002757D01*
X009759Y002686D01*
X009799Y002617D01*
X009842Y002550D01*
X009888Y002485D01*
X009938Y002423D01*
X009990Y002363D01*
X010046Y002306D01*
X010104Y002251D01*
X010165Y002200D01*
X010196Y002155D01*
X010223Y002108D01*
X010247Y002059D01*
X010268Y002008D01*
X010285Y001956D01*
X010298Y001903D01*
X010308Y001849D01*
X010314Y001795D01*
X010316Y001740D01*
X010314Y001686D01*
X010309Y001631D01*
X010300Y001577D01*
X010287Y001524D01*
X010270Y001472D01*
X010250Y001421D01*
X010226Y001372D01*
X010199Y001324D01*
X010169Y001279D01*
X010136Y001236D01*
X010099Y001195D01*
X010060Y001156D01*
X010019Y001121D01*
X009975Y001088D01*
X009929Y001059D01*
X009881Y001033D01*
X009831Y001010D01*
X009780Y000991D01*
X009727Y000975D01*
X009674Y000963D01*
X009620Y000955D01*
X009566Y000951D01*
X009565Y000950D02*
X008965Y000950D01*
X006965Y000950D02*
X006465Y000950D01*
X005465Y001950D01*
M02*
