G75*
%MOIN*%
%OFA0B0*%
%FSLAX24Y24*%
%IPPOS*%
%LPD*%
%AMOC8*
5,1,8,0,0,1.08239X$1,22.5*
%
%ADD10C,0.0080*%
D10*
X003265Y000550D02*
X003265Y000650D01*
X003265Y000550D02*
X003365Y000550D01*
X003765Y000550D02*
X003865Y000550D01*
X003865Y000650D01*
X004265Y000650D02*
X004265Y000550D01*
X004365Y000550D01*
X004765Y000550D02*
X004865Y000550D01*
X004865Y000650D01*
X004865Y001050D02*
X004865Y001150D01*
X004765Y001150D01*
X004365Y001150D02*
X004265Y001150D01*
X004265Y001050D01*
X003865Y001050D02*
X003865Y001150D01*
X003765Y001150D01*
X003365Y001150D02*
X003265Y001150D01*
X003265Y001050D01*
X005235Y001740D02*
X005235Y001860D01*
X005275Y001900D01*
X005355Y001900D01*
X005395Y001860D01*
X005395Y001740D01*
X005395Y001820D02*
X005475Y001900D01*
X005475Y002035D02*
X005475Y002195D01*
X005475Y002115D02*
X005235Y002115D01*
X005315Y002035D01*
X005235Y001740D02*
X005475Y001740D01*
X005935Y001740D02*
X005935Y001860D01*
X005975Y001900D01*
X006055Y001900D01*
X006095Y001860D01*
X006095Y001740D01*
X006095Y001820D02*
X006175Y001900D01*
X006175Y001740D02*
X005935Y001740D01*
X006055Y002035D02*
X006055Y002195D01*
X005935Y002155D02*
X006055Y002035D01*
X006175Y002155D02*
X005935Y002155D01*
X005909Y002663D02*
X006106Y002663D01*
X006106Y004237D01*
X005909Y004237D01*
X006252Y004218D02*
X006252Y002682D01*
X006253Y002682D02*
X006255Y002663D01*
X006260Y002644D01*
X006270Y002628D01*
X006282Y002613D01*
X006297Y002601D01*
X006313Y002591D01*
X006332Y002586D01*
X006351Y002584D01*
X006331Y002938D02*
X008299Y002938D01*
X008378Y002682D02*
X008376Y002663D01*
X008371Y002644D01*
X008361Y002628D01*
X008349Y002613D01*
X008334Y002601D01*
X008318Y002591D01*
X008299Y002586D01*
X008280Y002584D01*
X008378Y002682D02*
X008378Y004218D01*
X008376Y004237D01*
X008371Y004256D01*
X008361Y004272D01*
X008349Y004287D01*
X008334Y004299D01*
X008318Y004309D01*
X008299Y004314D01*
X008280Y004316D01*
X008705Y004085D02*
X008705Y004032D01*
X008705Y004085D02*
X009025Y004085D01*
X009025Y004032D02*
X009025Y004139D01*
X008918Y003877D02*
X008918Y003664D01*
X008865Y003664D02*
X008812Y003717D01*
X008812Y003824D01*
X008865Y003877D01*
X008918Y003877D01*
X009025Y003824D02*
X009025Y003717D01*
X008972Y003664D01*
X008865Y003664D01*
X008812Y003509D02*
X008812Y003349D01*
X008865Y003295D01*
X008972Y003295D01*
X009025Y003349D01*
X009025Y003509D01*
X008705Y003509D01*
X009152Y003210D02*
X009205Y003210D01*
X009312Y003210D02*
X009312Y003157D01*
X009312Y003210D02*
X009525Y003210D01*
X009525Y003157D02*
X009525Y003264D01*
X009312Y003402D02*
X009312Y003509D01*
X009258Y003456D02*
X009472Y003456D01*
X009525Y003509D01*
X009525Y003648D02*
X009472Y003648D01*
X009472Y003701D01*
X009525Y003701D01*
X009525Y003648D01*
X009525Y003832D02*
X009525Y003939D01*
X009525Y003885D02*
X009205Y003885D01*
X009205Y003832D01*
X009312Y004078D02*
X009472Y004078D01*
X009525Y004131D01*
X009525Y004291D01*
X009579Y004291D02*
X009632Y004238D01*
X009632Y004184D01*
X009579Y004291D02*
X009312Y004291D01*
X009525Y004446D02*
X009205Y004659D01*
X009025Y004646D02*
X008812Y004646D01*
X008705Y004753D01*
X008812Y004859D01*
X009025Y004859D01*
X008865Y004859D02*
X008865Y004646D01*
X009312Y004814D02*
X009472Y004814D01*
X009525Y004868D01*
X009525Y005028D01*
X009312Y005028D01*
X009312Y005183D02*
X009312Y005236D01*
X009365Y005289D01*
X009312Y005343D01*
X009365Y005396D01*
X009525Y005396D01*
X009525Y005289D02*
X009365Y005289D01*
X009312Y005183D02*
X009525Y005183D01*
X009525Y005551D02*
X009525Y005658D01*
X009525Y005604D02*
X009205Y005604D01*
X009205Y005551D01*
X009025Y005628D02*
X008812Y005628D01*
X008918Y005628D02*
X008812Y005735D01*
X008812Y005788D01*
X008812Y005935D02*
X008812Y005988D01*
X008865Y006042D01*
X008812Y006095D01*
X008865Y006149D01*
X009025Y006149D01*
X009025Y006042D02*
X008865Y006042D01*
X008812Y005935D02*
X009025Y005935D01*
X009312Y005957D02*
X009365Y005903D01*
X009525Y005903D01*
X009525Y005796D02*
X009312Y005796D01*
X009312Y005850D01*
X009365Y005903D01*
X009312Y005957D02*
X009365Y006010D01*
X009525Y006010D01*
X009472Y006165D02*
X009418Y006218D01*
X009418Y006378D01*
X009365Y006378D02*
X009312Y006325D01*
X009312Y006218D01*
X009472Y006165D02*
X009525Y006218D01*
X009525Y006378D01*
X009365Y006378D01*
X009025Y005473D02*
X008865Y005473D01*
X008812Y005420D01*
X008812Y005313D01*
X008918Y005313D02*
X008918Y005473D01*
X009025Y005473D02*
X009025Y005313D01*
X008972Y005260D01*
X008918Y005313D01*
X009025Y005121D02*
X009025Y005014D01*
X009025Y005068D02*
X008705Y005068D01*
X008705Y005014D01*
X008090Y003891D02*
X007930Y003891D01*
X007930Y003771D01*
X008010Y003811D01*
X008050Y003811D01*
X008090Y003771D01*
X008090Y003691D01*
X008050Y003651D01*
X007970Y003651D01*
X007930Y003691D01*
X007796Y003651D02*
X007636Y003651D01*
X007796Y003811D01*
X007796Y003851D01*
X007756Y003891D01*
X007676Y003891D01*
X007636Y003851D01*
X007501Y003851D02*
X007501Y003891D01*
X007501Y003851D02*
X007421Y003771D01*
X007421Y003651D01*
X007421Y003771D02*
X007341Y003851D01*
X007341Y003891D01*
X007206Y003891D02*
X007206Y003651D01*
X007046Y003891D01*
X007046Y003651D01*
X006930Y003651D02*
X006850Y003651D01*
X006890Y003651D02*
X006890Y003891D01*
X006850Y003891D02*
X006930Y003891D01*
X006715Y003891D02*
X006555Y003891D01*
X006635Y003891D02*
X006635Y003651D01*
X006567Y003214D02*
X006685Y003017D01*
X006449Y003017D01*
X006567Y003214D01*
X005161Y003450D02*
X005163Y003487D01*
X005169Y003524D01*
X005178Y003559D01*
X005192Y003594D01*
X005208Y003627D01*
X005229Y003658D01*
X005252Y003687D01*
X005278Y003713D01*
X005307Y003736D01*
X005338Y003757D01*
X005371Y003773D01*
X005406Y003787D01*
X005441Y003796D01*
X005478Y003802D01*
X005515Y003804D01*
X005552Y003802D01*
X005589Y003796D01*
X005624Y003787D01*
X005659Y003773D01*
X005692Y003757D01*
X005723Y003736D01*
X005752Y003713D01*
X005778Y003687D01*
X005801Y003658D01*
X005822Y003627D01*
X005838Y003594D01*
X005852Y003559D01*
X005861Y003524D01*
X005867Y003487D01*
X005869Y003450D01*
X005867Y003413D01*
X005861Y003376D01*
X005852Y003341D01*
X005838Y003306D01*
X005822Y003273D01*
X005801Y003242D01*
X005778Y003213D01*
X005752Y003187D01*
X005723Y003164D01*
X005692Y003143D01*
X005659Y003127D01*
X005624Y003113D01*
X005589Y003104D01*
X005552Y003098D01*
X005515Y003096D01*
X005478Y003098D01*
X005441Y003104D01*
X005406Y003113D01*
X005371Y003127D01*
X005338Y003143D01*
X005307Y003164D01*
X005278Y003187D01*
X005252Y003213D01*
X005229Y003242D01*
X005208Y003273D01*
X005192Y003306D01*
X005178Y003341D01*
X005169Y003376D01*
X005163Y003413D01*
X005161Y003450D01*
X005121Y004237D02*
X004925Y004237D01*
X004925Y002663D01*
X005121Y002663D01*
X007105Y001265D02*
X007145Y001305D01*
X007185Y001305D01*
X007225Y001265D01*
X007265Y001305D01*
X007305Y001305D01*
X007345Y001265D01*
X007345Y001185D01*
X007305Y001145D01*
X007225Y001225D02*
X007225Y001265D01*
X007105Y001265D02*
X007105Y001185D01*
X007145Y001145D01*
X007145Y001011D02*
X007225Y001011D01*
X007265Y000971D01*
X007265Y000851D01*
X007265Y000931D02*
X007345Y001011D01*
X007345Y000851D02*
X007105Y000851D01*
X007105Y000971D01*
X007145Y001011D01*
X008705Y000840D02*
X009025Y000840D01*
X009025Y001054D01*
X008972Y001208D02*
X008865Y001208D01*
X008812Y001262D01*
X008812Y001368D01*
X008865Y001422D01*
X008972Y001422D01*
X009025Y001368D01*
X009025Y001262D01*
X008972Y001208D01*
X009258Y001307D02*
X009472Y001307D01*
X009525Y001361D01*
X009525Y001499D02*
X009525Y001660D01*
X009472Y001713D01*
X009365Y001713D01*
X009312Y001660D01*
X009312Y001499D01*
X009632Y001499D01*
X009312Y001361D02*
X009312Y001254D01*
X009312Y001115D02*
X009312Y001008D01*
X009258Y001062D02*
X009472Y001062D01*
X009525Y001115D01*
X009525Y000854D02*
X009365Y000854D01*
X009312Y000800D01*
X009312Y000693D01*
X009365Y000640D01*
X009205Y000640D02*
X009525Y000640D01*
X009025Y001577D02*
X009025Y001737D01*
X008972Y001790D01*
X008918Y001737D01*
X008918Y001630D01*
X008865Y001577D01*
X008812Y001630D01*
X008812Y001790D01*
X008812Y001945D02*
X008812Y002052D01*
X008758Y001998D02*
X008972Y001998D01*
X009025Y002052D01*
X009205Y002265D02*
X009525Y002052D01*
X009525Y001921D02*
X009472Y001921D01*
X009472Y001868D01*
X009525Y001868D01*
X009525Y001921D01*
X009365Y001921D02*
X009365Y001868D01*
X009312Y001868D01*
X009312Y001921D01*
X009365Y001921D01*
X009525Y002420D02*
X009205Y002634D01*
X009205Y002789D02*
X009525Y002789D01*
X009525Y002949D01*
X009472Y003002D01*
X009365Y003002D01*
X009312Y002949D01*
X009312Y002789D01*
X009025Y002772D02*
X008705Y002772D01*
X008812Y002666D01*
X008705Y002559D01*
X009025Y002559D01*
X008972Y002927D02*
X008865Y002927D01*
X008812Y002980D01*
X008812Y003087D01*
X008865Y003141D01*
X008972Y003141D01*
X009025Y003087D01*
X009025Y002980D01*
X008972Y002927D01*
X006351Y004316D02*
X006332Y004314D01*
X006313Y004309D01*
X006297Y004299D01*
X006282Y004287D01*
X006270Y004272D01*
X006260Y004256D01*
X006255Y004237D01*
X006253Y004218D01*
X005886Y004690D02*
X005779Y004690D01*
X005726Y004743D01*
X005595Y004743D02*
X005595Y004690D01*
X005542Y004690D01*
X005542Y004743D01*
X005595Y004743D01*
X005387Y004743D02*
X005334Y004690D01*
X005227Y004690D01*
X005173Y004743D01*
X005387Y004957D01*
X005387Y004743D01*
X005173Y004743D02*
X005173Y004957D01*
X005227Y005010D01*
X005334Y005010D01*
X005387Y004957D01*
X005726Y004957D02*
X005779Y005010D01*
X005886Y005010D01*
X005939Y004957D01*
X005939Y004904D01*
X005886Y004850D01*
X005939Y004797D01*
X005939Y004743D01*
X005886Y004690D01*
X005886Y004850D02*
X005833Y004850D01*
X005019Y004850D02*
X004965Y004797D01*
X004805Y004797D01*
X004912Y004797D02*
X005019Y004690D01*
X004805Y004690D02*
X004805Y005010D01*
X004965Y005010D01*
X005019Y004957D01*
X005019Y004850D01*
X005125Y005590D02*
X005285Y005590D01*
X005325Y005630D01*
X005325Y005710D01*
X005285Y005750D01*
X005325Y005885D02*
X005325Y006045D01*
X005325Y005965D02*
X005085Y005965D01*
X005165Y005885D01*
X005125Y005750D02*
X005085Y005710D01*
X005085Y005630D01*
X005125Y005590D01*
X004865Y005750D02*
X004765Y005750D01*
X004865Y005750D02*
X004865Y005850D01*
X004365Y005750D02*
X004265Y005750D01*
X004265Y005850D01*
X003865Y005850D02*
X003865Y005750D01*
X003765Y005750D01*
X003365Y005750D02*
X003265Y005750D01*
X003265Y005850D01*
X003265Y006250D02*
X003265Y006350D01*
X003365Y006350D01*
X003765Y006350D02*
X003865Y006350D01*
X003865Y006250D01*
X004265Y006250D02*
X004265Y006350D01*
X004365Y006350D01*
X004765Y006350D02*
X004865Y006350D01*
X004865Y006250D01*
X006755Y005965D02*
X006755Y005885D01*
X006795Y005845D01*
X006755Y005965D02*
X006795Y006005D01*
X006835Y006005D01*
X006995Y005845D01*
X006995Y006005D01*
X006995Y005711D02*
X006915Y005631D01*
X006915Y005671D02*
X006915Y005551D01*
X006995Y005551D02*
X006755Y005551D01*
X006755Y005671D01*
X006795Y005711D01*
X006875Y005711D01*
X006915Y005671D01*
M02*
