G75*
%MOIN*%
%OFA0B0*%
%FSLAX24Y24*%
%IPPOS*%
%LPD*%
%AMOC8*
5,1,8,0,0,1.08239X$1,22.5*
%
%ADD10C,0.0060*%
%ADD11C,0.0080*%
D10*
X003265Y000550D02*
X003265Y000650D01*
X003265Y000550D02*
X003365Y000550D01*
X003765Y000550D02*
X003865Y000550D01*
X003865Y000650D01*
X004265Y000650D02*
X004265Y000550D01*
X004365Y000550D01*
X004765Y000550D02*
X004865Y000550D01*
X004865Y000650D01*
X004865Y001050D02*
X004865Y001150D01*
X004765Y001150D01*
X004365Y001150D02*
X004265Y001150D01*
X004265Y001050D01*
X003865Y001050D02*
X003865Y001150D01*
X003765Y001150D01*
X003365Y001150D02*
X003265Y001150D01*
X003265Y001050D01*
X005225Y001730D02*
X005225Y001860D01*
X005268Y001903D01*
X005355Y001903D01*
X005398Y001860D01*
X005398Y001730D01*
X005398Y001817D02*
X005485Y001903D01*
X005485Y002025D02*
X005485Y002198D01*
X005485Y002111D02*
X005225Y002111D01*
X005312Y002025D01*
X005225Y001730D02*
X005485Y001730D01*
X005725Y001730D02*
X005725Y001860D01*
X005768Y001903D01*
X005855Y001903D01*
X005898Y001860D01*
X005898Y001730D01*
X005898Y001817D02*
X005985Y001903D01*
X005985Y001730D02*
X005725Y001730D01*
X005855Y002025D02*
X005855Y002198D01*
X005725Y002155D02*
X005855Y002025D01*
X005985Y002155D02*
X005725Y002155D01*
X005706Y002663D02*
X005509Y002663D01*
X005706Y002663D02*
X005706Y004237D01*
X005509Y004237D01*
X005952Y004218D02*
X005952Y002682D01*
X005953Y002682D02*
X005955Y002663D01*
X005960Y002644D01*
X005970Y002628D01*
X005982Y002613D01*
X005997Y002601D01*
X006013Y002591D01*
X006032Y002586D01*
X006051Y002584D01*
X006031Y002938D02*
X007999Y002938D01*
X008078Y002682D02*
X008076Y002663D01*
X008071Y002644D01*
X008061Y002628D01*
X008049Y002613D01*
X008034Y002601D01*
X008018Y002591D01*
X007999Y002586D01*
X007980Y002584D01*
X008078Y002682D02*
X008078Y004218D01*
X008076Y004237D01*
X008071Y004256D01*
X008061Y004272D01*
X008049Y004287D01*
X008034Y004299D01*
X008018Y004309D01*
X007999Y004314D01*
X007980Y004316D01*
X007794Y003901D02*
X007620Y003901D01*
X007620Y003771D01*
X007707Y003814D01*
X007750Y003814D01*
X007794Y003771D01*
X007794Y003684D01*
X007750Y003641D01*
X007664Y003641D01*
X007620Y003684D01*
X007499Y003641D02*
X007326Y003641D01*
X007499Y003814D01*
X007499Y003857D01*
X007456Y003901D01*
X007369Y003901D01*
X007326Y003857D01*
X007204Y003857D02*
X007204Y003901D01*
X007204Y003857D02*
X007118Y003771D01*
X007118Y003641D01*
X007118Y003771D02*
X007031Y003857D01*
X007031Y003901D01*
X006910Y003901D02*
X006910Y003641D01*
X006736Y003901D01*
X006736Y003641D01*
X006627Y003641D02*
X006540Y003641D01*
X006583Y003641D02*
X006583Y003901D01*
X006540Y003901D02*
X006627Y003901D01*
X006419Y003901D02*
X006245Y003901D01*
X006332Y003901D02*
X006332Y003641D01*
X006267Y003214D02*
X006385Y003017D01*
X006149Y003017D01*
X006267Y003214D01*
X004761Y003450D02*
X004763Y003487D01*
X004769Y003524D01*
X004778Y003559D01*
X004792Y003594D01*
X004808Y003627D01*
X004829Y003658D01*
X004852Y003687D01*
X004878Y003713D01*
X004907Y003736D01*
X004938Y003757D01*
X004971Y003773D01*
X005006Y003787D01*
X005041Y003796D01*
X005078Y003802D01*
X005115Y003804D01*
X005152Y003802D01*
X005189Y003796D01*
X005224Y003787D01*
X005259Y003773D01*
X005292Y003757D01*
X005323Y003736D01*
X005352Y003713D01*
X005378Y003687D01*
X005401Y003658D01*
X005422Y003627D01*
X005438Y003594D01*
X005452Y003559D01*
X005461Y003524D01*
X005467Y003487D01*
X005469Y003450D01*
X005467Y003413D01*
X005461Y003376D01*
X005452Y003341D01*
X005438Y003306D01*
X005422Y003273D01*
X005401Y003242D01*
X005378Y003213D01*
X005352Y003187D01*
X005323Y003164D01*
X005292Y003143D01*
X005259Y003127D01*
X005224Y003113D01*
X005189Y003104D01*
X005152Y003098D01*
X005115Y003096D01*
X005078Y003098D01*
X005041Y003104D01*
X005006Y003113D01*
X004971Y003127D01*
X004938Y003143D01*
X004907Y003164D01*
X004878Y003187D01*
X004852Y003213D01*
X004829Y003242D01*
X004808Y003273D01*
X004792Y003306D01*
X004778Y003341D01*
X004769Y003376D01*
X004763Y003413D01*
X004761Y003450D01*
X004721Y004237D02*
X004525Y004237D01*
X004525Y002663D01*
X004721Y002663D01*
X003185Y003030D02*
X002925Y003030D01*
X002925Y003160D01*
X002968Y003203D01*
X003055Y003203D01*
X003098Y003160D01*
X003098Y003030D01*
X003098Y003117D02*
X003185Y003203D01*
X003142Y003325D02*
X002968Y003325D01*
X002925Y003368D01*
X002925Y003455D01*
X002968Y003498D01*
X003142Y003325D01*
X003185Y003368D01*
X003185Y003455D01*
X003142Y003498D01*
X002968Y003498D01*
X003142Y003619D02*
X003142Y003663D01*
X003185Y003663D01*
X003185Y003619D01*
X003142Y003619D01*
X003142Y003767D02*
X003185Y003810D01*
X003185Y003897D01*
X003142Y003940D01*
X003098Y003940D01*
X003055Y003897D01*
X003055Y003853D01*
X003055Y003897D02*
X003012Y003940D01*
X002968Y003940D01*
X002925Y003897D01*
X002925Y003810D01*
X002968Y003767D01*
X005075Y005623D02*
X005118Y005580D01*
X005292Y005580D01*
X005335Y005623D01*
X005335Y005710D01*
X005292Y005753D01*
X005335Y005875D02*
X005335Y006048D01*
X005335Y005961D02*
X005075Y005961D01*
X005162Y005875D01*
X005118Y005753D02*
X005075Y005710D01*
X005075Y005623D01*
X004865Y005750D02*
X004765Y005750D01*
X004865Y005750D02*
X004865Y005850D01*
X004365Y005750D02*
X004265Y005750D01*
X004265Y005850D01*
X003865Y005850D02*
X003865Y005750D01*
X003765Y005750D01*
X003365Y005750D02*
X003265Y005750D01*
X003265Y005850D01*
X003265Y006250D02*
X003265Y006350D01*
X003365Y006350D01*
X003765Y006350D02*
X003865Y006350D01*
X003865Y006250D01*
X004265Y006250D02*
X004265Y006350D01*
X004365Y006350D01*
X004765Y006350D02*
X004865Y006350D01*
X004865Y006250D01*
X006745Y005965D02*
X006745Y005879D01*
X006788Y005835D01*
X006788Y005714D02*
X006875Y005714D01*
X006918Y005671D01*
X006918Y005541D01*
X006918Y005627D02*
X007005Y005714D01*
X007005Y005835D02*
X006832Y006009D01*
X006788Y006009D01*
X006745Y005965D01*
X007005Y006009D02*
X007005Y005835D01*
X006788Y005714D02*
X006745Y005671D01*
X006745Y005541D01*
X007005Y005541D01*
X006051Y004316D02*
X006032Y004314D01*
X006013Y004309D01*
X005997Y004299D01*
X005982Y004287D01*
X005970Y004272D01*
X005960Y004256D01*
X005955Y004237D01*
X005953Y004218D01*
X007138Y001309D02*
X007182Y001309D01*
X007225Y001265D01*
X007268Y001309D01*
X007312Y001309D01*
X007355Y001265D01*
X007355Y001179D01*
X007312Y001135D01*
X007225Y001222D02*
X007225Y001265D01*
X007138Y001309D02*
X007095Y001265D01*
X007095Y001179D01*
X007138Y001135D01*
X007138Y001014D02*
X007225Y001014D01*
X007268Y000971D01*
X007268Y000841D01*
X007268Y000927D02*
X007355Y001014D01*
X007355Y000841D02*
X007095Y000841D01*
X007095Y000971D01*
X007138Y001014D01*
D11*
X008255Y001740D02*
X008522Y001740D01*
X008575Y001793D01*
X008575Y001900D01*
X008522Y001954D01*
X008255Y001954D01*
X008255Y002108D02*
X008255Y002162D01*
X008575Y002162D01*
X008575Y002215D02*
X008575Y002108D01*
X008758Y001998D02*
X008972Y001998D01*
X009025Y002052D01*
X008812Y002052D02*
X008812Y001945D01*
X008812Y001790D02*
X008812Y001630D01*
X008865Y001577D01*
X008918Y001630D01*
X008918Y001737D01*
X008972Y001790D01*
X009025Y001737D01*
X009025Y001577D01*
X008972Y001422D02*
X008865Y001422D01*
X008812Y001368D01*
X008812Y001262D01*
X008865Y001208D01*
X008972Y001208D01*
X009025Y001262D01*
X009025Y001368D01*
X008972Y001422D01*
X009208Y001357D02*
X009422Y001357D01*
X009475Y001411D01*
X009475Y001549D02*
X009475Y001710D01*
X009422Y001763D01*
X009315Y001763D01*
X009262Y001710D01*
X009262Y001549D01*
X009582Y001549D01*
X009262Y001411D02*
X009262Y001304D01*
X009262Y001165D02*
X009262Y001058D01*
X009208Y001112D02*
X009422Y001112D01*
X009475Y001165D01*
X009475Y000904D02*
X009315Y000904D01*
X009262Y000850D01*
X009262Y000743D01*
X009315Y000690D01*
X009155Y000690D02*
X009475Y000690D01*
X009025Y000840D02*
X009025Y001054D01*
X009025Y000840D02*
X008705Y000840D01*
X009262Y001918D02*
X009315Y001918D01*
X009315Y001971D01*
X009262Y001971D01*
X009262Y001918D01*
X009422Y001918D02*
X009422Y001971D01*
X009475Y001971D01*
X009475Y001918D01*
X009422Y001918D01*
X009475Y002102D02*
X009155Y002315D01*
X009025Y002559D02*
X008705Y002559D01*
X008812Y002666D01*
X008705Y002772D01*
X009025Y002772D01*
X009155Y002839D02*
X009475Y002839D01*
X009475Y002999D01*
X009422Y003052D01*
X009315Y003052D01*
X009262Y002999D01*
X009262Y002839D01*
X009155Y002684D02*
X009475Y002470D01*
X008972Y002927D02*
X008865Y002927D01*
X008812Y002980D01*
X008812Y003087D01*
X008865Y003141D01*
X008972Y003141D01*
X009025Y003087D01*
X009025Y002980D01*
X008972Y002927D01*
X008575Y002960D02*
X008522Y002906D01*
X008468Y002960D01*
X008468Y003120D01*
X008415Y003120D02*
X008362Y003066D01*
X008362Y002960D01*
X008575Y002960D02*
X008575Y003120D01*
X008415Y003120D01*
X008812Y003349D02*
X008812Y003509D01*
X008705Y003509D02*
X009025Y003509D01*
X009025Y003349D01*
X008972Y003295D01*
X008865Y003295D01*
X008812Y003349D01*
X009102Y003260D02*
X009155Y003260D01*
X009262Y003260D02*
X009262Y003207D01*
X009262Y003260D02*
X009475Y003260D01*
X009475Y003207D02*
X009475Y003314D01*
X009422Y003506D02*
X009475Y003559D01*
X009422Y003506D02*
X009208Y003506D01*
X009262Y003559D02*
X009262Y003452D01*
X009422Y003698D02*
X009422Y003751D01*
X009475Y003751D01*
X009475Y003698D01*
X009422Y003698D01*
X009475Y003882D02*
X009475Y003989D01*
X009475Y003935D02*
X009155Y003935D01*
X009155Y003882D01*
X009025Y003824D02*
X009025Y003717D01*
X008972Y003664D01*
X008865Y003664D01*
X008812Y003717D01*
X008812Y003824D01*
X008865Y003877D01*
X008918Y003877D01*
X008918Y003664D01*
X008575Y003643D02*
X008255Y003643D01*
X008362Y003750D01*
X008255Y003856D01*
X008575Y003856D01*
X008575Y004011D02*
X008575Y004118D01*
X008575Y004065D02*
X008362Y004065D01*
X008362Y004011D01*
X008255Y004065D02*
X008202Y004065D01*
X008415Y004257D02*
X008522Y004257D01*
X008575Y004310D01*
X008575Y004470D01*
X008362Y004470D02*
X008362Y004310D01*
X008415Y004257D01*
X008705Y004085D02*
X008705Y004032D01*
X008705Y004085D02*
X009025Y004085D01*
X009025Y004032D02*
X009025Y004139D01*
X009262Y004128D02*
X009422Y004128D01*
X009475Y004181D01*
X009475Y004341D01*
X009529Y004341D02*
X009582Y004288D01*
X009582Y004234D01*
X009529Y004341D02*
X009262Y004341D01*
X009475Y004496D02*
X009155Y004709D01*
X009025Y004646D02*
X008812Y004646D01*
X008705Y004753D01*
X008812Y004859D01*
X009025Y004859D01*
X008865Y004859D02*
X008865Y004646D01*
X008575Y004625D02*
X008362Y004625D01*
X008468Y004625D02*
X008362Y004732D01*
X008362Y004785D01*
X008415Y004932D02*
X008522Y004932D01*
X008575Y004985D01*
X008575Y005092D01*
X008522Y005146D01*
X008415Y005146D01*
X008362Y005092D01*
X008362Y004985D01*
X008415Y004932D01*
X008705Y005014D02*
X008705Y005068D01*
X009025Y005068D01*
X009025Y005121D02*
X009025Y005014D01*
X009262Y005078D02*
X009475Y005078D01*
X009475Y004918D01*
X009422Y004864D01*
X009262Y004864D01*
X009262Y005233D02*
X009262Y005286D01*
X009315Y005339D01*
X009262Y005393D01*
X009315Y005446D01*
X009475Y005446D01*
X009475Y005339D02*
X009315Y005339D01*
X009262Y005233D02*
X009475Y005233D01*
X009025Y005313D02*
X008972Y005260D01*
X008918Y005313D01*
X008918Y005473D01*
X008865Y005473D02*
X009025Y005473D01*
X009025Y005313D01*
X008812Y005313D02*
X008812Y005420D01*
X008865Y005473D01*
X008812Y005628D02*
X009025Y005628D01*
X008918Y005628D02*
X008812Y005735D01*
X008812Y005788D01*
X008812Y005935D02*
X008812Y005988D01*
X008865Y006042D01*
X008812Y006095D01*
X008865Y006149D01*
X009025Y006149D01*
X009025Y006042D02*
X008865Y006042D01*
X008812Y005935D02*
X009025Y005935D01*
X009262Y005900D02*
X009262Y005846D01*
X009475Y005846D01*
X009475Y005953D02*
X009315Y005953D01*
X009262Y006007D01*
X009315Y006060D01*
X009475Y006060D01*
X009315Y005953D02*
X009262Y005900D01*
X009475Y005708D02*
X009475Y005601D01*
X009475Y005654D02*
X009155Y005654D01*
X009155Y005601D01*
X009422Y006215D02*
X009368Y006268D01*
X009368Y006428D01*
X009315Y006428D02*
X009262Y006375D01*
X009262Y006268D01*
X009422Y006215D02*
X009475Y006268D01*
X009475Y006428D01*
X009315Y006428D01*
X008362Y002760D02*
X008362Y002706D01*
X008468Y002599D01*
X008362Y002599D02*
X008575Y002599D01*
X008575Y002461D02*
X008522Y002407D01*
X008308Y002407D01*
X008362Y002354D02*
X008362Y002461D01*
M02*
