G75*
%MOIN*%
%OFA0B0*%
%FSLAX24Y24*%
%IPPOS*%
%LPD*%
%AMOC8*
5,1,8,0,0,1.08239X$1,22.5*
%
%ADD10C,0.0000*%
D10*
X002815Y000650D02*
X002815Y006250D01*
X002817Y006294D01*
X002823Y006337D01*
X002832Y006379D01*
X002845Y006421D01*
X002862Y006461D01*
X002882Y006500D01*
X002905Y006537D01*
X002932Y006571D01*
X002961Y006604D01*
X002994Y006633D01*
X003028Y006660D01*
X003065Y006683D01*
X003104Y006703D01*
X003144Y006720D01*
X003186Y006733D01*
X003228Y006742D01*
X003271Y006748D01*
X003315Y006750D01*
X009315Y006750D01*
X009359Y006748D01*
X009402Y006742D01*
X009444Y006733D01*
X009486Y006720D01*
X009526Y006703D01*
X009565Y006683D01*
X009602Y006660D01*
X009636Y006633D01*
X009669Y006604D01*
X009698Y006571D01*
X009725Y006537D01*
X009748Y006500D01*
X009768Y006461D01*
X009785Y006421D01*
X009798Y006379D01*
X009807Y006337D01*
X009813Y006294D01*
X009815Y006250D01*
X009815Y000650D01*
X009813Y000606D01*
X009807Y000563D01*
X009798Y000521D01*
X009785Y000479D01*
X009768Y000439D01*
X009748Y000400D01*
X009725Y000363D01*
X009698Y000329D01*
X009669Y000296D01*
X009636Y000267D01*
X009602Y000240D01*
X009565Y000217D01*
X009526Y000197D01*
X009486Y000180D01*
X009444Y000167D01*
X009402Y000158D01*
X009359Y000152D01*
X009315Y000150D01*
X003315Y000150D01*
X003271Y000152D01*
X003228Y000158D01*
X003186Y000167D01*
X003144Y000180D01*
X003104Y000197D01*
X003065Y000217D01*
X003028Y000240D01*
X002994Y000267D01*
X002961Y000296D01*
X002932Y000329D01*
X002905Y000363D01*
X002882Y000400D01*
X002862Y000439D01*
X002845Y000479D01*
X002832Y000521D01*
X002823Y000563D01*
X002817Y000606D01*
X002815Y000650D01*
M02*
