G75*
G70*
%OFA0B0*%
%FSLAX24Y24*%
%IPPOS*%
%LPD*%
%AMOC8*
5,1,8,0,0,1.08239X$1,22.5*
%
%ADD10OC8,0.0630*%
%ADD11R,0.1095X0.1095*%
%ADD12R,0.3000X0.3000*%
%ADD13C,0.0500*%
%ADD14C,0.0472*%
%ADD15C,0.0270*%
%ADD16C,0.0120*%
D10*
X003565Y000850D03*
X004565Y000850D03*
D11*
X008415Y000850D03*
X008415Y006050D03*
D12*
X008415Y003450D03*
D13*
X005365Y003850D03*
X005365Y002850D03*
X003365Y002850D03*
X003365Y003850D03*
D14*
X004365Y003850D03*
X004365Y002850D03*
D15*
X004915Y002350D03*
X005965Y001650D03*
X006215Y003050D03*
X008865Y003800D03*
X007265Y005300D03*
D16*
X003365Y001050D02*
X003565Y000850D01*
X003365Y001050D02*
X003365Y002850D01*
X003865Y003350D02*
X003865Y001950D01*
X004165Y001650D01*
X005965Y001650D01*
X004915Y002350D02*
X004915Y003400D01*
X005365Y003850D01*
X005365Y004850D01*
X005815Y005300D01*
X007265Y005300D01*
X008215Y003450D02*
X008865Y003800D01*
X008415Y003450D02*
X008215Y003450D01*
X006215Y003050D02*
X006015Y002850D01*
X005365Y002850D01*
X003865Y003350D02*
X003365Y003850D01*
X004565Y000850D02*
X008415Y000850D01*
M02*
