G75*
%MOIN*%
%OFA0B0*%
%FSLAX24Y24*%
%IPPOS*%
%LPD*%
%AMOC8*
5,1,8,0,0,1.08239X$1,22.5*
%
%ADD10R,0.0433X0.0394*%
%ADD11R,0.0425X0.0413*%
%ADD12R,0.1500X0.0760*%
%ADD13OC8,0.0630*%
%ADD14R,0.1095X0.1095*%
%ADD15C,0.0472*%
%ADD16R,0.0669X0.0354*%
%ADD17R,0.0260X0.0866*%
%ADD18C,0.0100*%
%ADD19C,0.0080*%
%ADD20C,0.0270*%
D10*
X005365Y000715D03*
X006065Y000715D03*
X006765Y000715D03*
X006765Y001385D03*
X006065Y001385D03*
X005365Y001385D03*
X006415Y005465D03*
X006415Y006135D03*
D11*
X005715Y006144D03*
X005715Y005456D03*
D12*
X003715Y004950D03*
X003715Y001950D03*
D13*
X003565Y000850D03*
X004565Y000850D03*
X004565Y006050D03*
X003565Y006050D03*
D14*
X008015Y006050D03*
X008015Y000850D03*
D15*
X004615Y003450D03*
X003615Y003450D03*
D16*
X005115Y002623D03*
X005115Y004277D03*
D17*
X006265Y004631D03*
X006765Y004631D03*
X007265Y004631D03*
X007765Y004631D03*
X007765Y002269D03*
X007265Y002269D03*
X006765Y002269D03*
X006265Y002269D03*
D18*
X003015Y000650D02*
X003021Y000591D01*
X003066Y000483D01*
X003148Y000401D01*
X003257Y000356D01*
X003315Y000350D01*
X007358Y000350D01*
X007358Y001443D01*
X007422Y001507D01*
X008608Y001507D01*
X008673Y001443D01*
X008673Y000350D01*
X009265Y000350D01*
X009324Y000356D01*
X009432Y000401D01*
X009515Y000483D01*
X009559Y000591D01*
X009565Y000650D01*
X009565Y006250D01*
X009559Y006309D01*
X009515Y006417D01*
X009432Y006499D01*
X009324Y006544D01*
X009265Y006550D01*
X008673Y006550D01*
X008673Y005457D01*
X008608Y005393D01*
X007510Y005393D01*
X007510Y005301D01*
X007473Y005211D01*
X007436Y005174D01*
X007441Y005174D01*
X007505Y005110D01*
X007505Y004152D01*
X007441Y004088D01*
X007090Y004088D01*
X007025Y004152D01*
X007025Y005110D01*
X007090Y005174D01*
X007095Y005174D01*
X007057Y005211D01*
X007020Y005301D01*
X007020Y005399D01*
X007057Y005489D01*
X007126Y005558D01*
X007216Y005595D01*
X007314Y005595D01*
X007358Y005577D01*
X007358Y006550D01*
X003315Y006550D01*
X003257Y006544D01*
X003148Y006499D01*
X003066Y006417D01*
X003021Y006309D01*
X003015Y006250D01*
X003015Y005480D01*
X003665Y005480D01*
X003665Y005000D01*
X003765Y005000D01*
X003765Y005480D01*
X004485Y005480D01*
X004523Y005470D01*
X004557Y005450D01*
X004585Y005422D01*
X004605Y005388D01*
X004615Y005350D01*
X004615Y005000D01*
X003765Y005000D01*
X003765Y004900D01*
X003765Y004420D01*
X004485Y004420D01*
X004523Y004430D01*
X004557Y004450D01*
X004585Y004478D01*
X004605Y004512D01*
X004615Y004550D01*
X004615Y004900D01*
X003765Y004900D01*
X003665Y004900D01*
X003665Y004420D01*
X003015Y004420D01*
X003015Y002440D01*
X003215Y002440D01*
X003215Y003262D01*
X003288Y003335D01*
X003269Y003381D01*
X003269Y003519D01*
X003322Y003646D01*
X003419Y003744D01*
X003546Y003796D01*
X003684Y003796D01*
X003811Y003744D01*
X003909Y003646D01*
X003961Y003519D01*
X003961Y003381D01*
X003942Y003335D01*
X004077Y003200D01*
X004376Y003200D01*
X004322Y003254D01*
X004269Y003381D01*
X004269Y003519D01*
X004322Y003646D01*
X004419Y003744D01*
X004465Y003763D01*
X004465Y004212D01*
X004553Y004300D01*
X004671Y004417D01*
X004671Y004500D01*
X004735Y004564D01*
X005495Y004564D01*
X005560Y004500D01*
X005560Y004437D01*
X005805Y004437D01*
X006025Y004216D01*
X006025Y005110D01*
X006090Y005174D01*
X006115Y005174D01*
X006115Y005196D01*
X006089Y005223D01*
X006089Y005305D01*
X006038Y005305D01*
X006038Y005203D01*
X005973Y005139D01*
X005457Y005139D01*
X005393Y005203D01*
X005393Y005296D01*
X004903Y005786D01*
X004741Y005625D01*
X004389Y005625D01*
X004140Y005874D01*
X004140Y006226D01*
X004389Y006475D01*
X004741Y006475D01*
X004990Y006226D01*
X004990Y006151D01*
X005025Y006116D01*
X005413Y005728D01*
X005457Y005772D01*
X005973Y005772D01*
X006038Y005708D01*
X006038Y005625D01*
X006089Y005625D01*
X006089Y005708D01*
X006153Y005772D01*
X006565Y005772D01*
X006510Y005828D01*
X006153Y005828D01*
X006089Y005892D01*
X006089Y006377D01*
X006153Y006441D01*
X006677Y006441D01*
X006742Y006377D01*
X006742Y006020D01*
X006915Y005847D01*
X006915Y005174D01*
X006941Y005174D01*
X007005Y005110D01*
X007005Y004152D01*
X006941Y004088D01*
X006875Y004088D01*
X006875Y004084D01*
X006868Y004077D01*
X006867Y004068D01*
X006822Y004031D01*
X006725Y003934D01*
X006631Y003840D01*
X005949Y003840D01*
X005672Y004117D01*
X005560Y004117D01*
X005560Y004054D01*
X005495Y003990D01*
X004765Y003990D01*
X004765Y003763D01*
X004811Y003744D01*
X004909Y003646D01*
X004961Y003519D01*
X004961Y003381D01*
X004909Y003254D01*
X004855Y003200D01*
X007103Y003200D01*
X007615Y003712D01*
X007615Y004088D01*
X007590Y004088D01*
X007525Y004152D01*
X007525Y005110D01*
X007590Y005174D01*
X007941Y005174D01*
X008005Y005110D01*
X008005Y004152D01*
X007941Y004088D01*
X007915Y004088D01*
X007915Y003588D01*
X007827Y003500D01*
X007227Y002900D01*
X005562Y002900D01*
X005570Y002892D01*
X005590Y002858D01*
X005600Y002820D01*
X005600Y002662D01*
X005154Y002662D01*
X005154Y002585D01*
X005600Y002585D01*
X005600Y002426D01*
X005590Y002388D01*
X005570Y002354D01*
X005542Y002326D01*
X005508Y002306D01*
X005470Y002296D01*
X005154Y002296D01*
X005154Y002585D01*
X005077Y002585D01*
X005077Y002296D01*
X004761Y002296D01*
X004723Y002306D01*
X004688Y002326D01*
X004660Y002354D01*
X004641Y002388D01*
X004631Y002426D01*
X004631Y002585D01*
X005077Y002585D01*
X005077Y002662D01*
X004631Y002662D01*
X004631Y002820D01*
X004641Y002858D01*
X004660Y002892D01*
X004668Y002900D01*
X003953Y002900D01*
X003865Y002988D01*
X003730Y003123D01*
X003684Y003104D01*
X003546Y003104D01*
X003515Y003117D01*
X003515Y002440D01*
X004511Y002440D01*
X004575Y002376D01*
X004575Y001524D01*
X004511Y001460D01*
X003015Y001460D01*
X003015Y000650D01*
X003016Y000643D02*
X003172Y000643D01*
X003140Y000674D02*
X003389Y000425D01*
X003741Y000425D01*
X003990Y000674D01*
X003990Y001026D01*
X003979Y001037D01*
X004081Y001140D01*
X004254Y001140D01*
X004140Y001026D01*
X004140Y000674D01*
X004389Y000425D01*
X004741Y000425D01*
X004990Y000674D01*
X004990Y000899D01*
X005039Y000850D01*
X005039Y000473D01*
X005103Y000409D01*
X005627Y000409D01*
X005692Y000473D01*
X005692Y000958D01*
X005627Y001022D01*
X005319Y001022D01*
X005264Y001078D01*
X005627Y001078D01*
X005692Y001142D01*
X005692Y001627D01*
X005630Y001689D01*
X005731Y001790D01*
X006025Y001790D01*
X006090Y001726D01*
X006114Y001726D01*
X006114Y001433D01*
X006432Y001433D01*
X006432Y001601D01*
X006421Y001639D01*
X006402Y001674D01*
X006374Y001702D01*
X006340Y001721D01*
X006323Y001726D01*
X006441Y001726D01*
X006589Y001726D01*
X006590Y001726D02*
X006605Y001726D01*
X006605Y001691D01*
X006503Y001691D01*
X006439Y001627D01*
X006439Y001142D01*
X006503Y001078D01*
X007005Y001078D01*
X007005Y001066D01*
X006961Y001022D01*
X006503Y001022D01*
X006439Y000958D01*
X006439Y000875D01*
X006392Y000875D01*
X006392Y000958D01*
X006327Y001022D01*
X005803Y001022D01*
X005739Y000958D01*
X005739Y000473D01*
X005803Y000409D01*
X006327Y000409D01*
X006392Y000473D01*
X006392Y000555D01*
X006439Y000555D01*
X006439Y000473D01*
X006503Y000409D01*
X007027Y000409D01*
X007092Y000473D01*
X007092Y000700D01*
X007231Y000840D01*
X007325Y000934D01*
X007325Y001684D01*
X007331Y001690D01*
X007367Y001726D01*
X007441Y001726D01*
X007533Y001726D01*
X007543Y001716D02*
X007515Y001744D01*
X007495Y001778D01*
X007495Y001780D01*
X007441Y001726D01*
X007543Y001716D02*
X007577Y001696D01*
X007615Y001686D01*
X007750Y001686D01*
X007750Y002254D01*
X007780Y002254D01*
X007780Y001686D01*
X007915Y001686D01*
X007953Y001696D01*
X007987Y001716D01*
X008015Y001744D01*
X008035Y001778D01*
X008045Y001816D01*
X008045Y002254D01*
X007780Y002254D01*
X007780Y002284D01*
X007750Y002284D01*
X007750Y002852D01*
X007615Y002852D01*
X007577Y002842D01*
X007543Y002822D01*
X007515Y002794D01*
X007495Y002760D01*
X007495Y002758D01*
X007441Y002812D01*
X007090Y002812D01*
X007025Y002748D01*
X007025Y001836D01*
X007005Y001816D01*
X007005Y001691D01*
X006925Y001691D01*
X006925Y001726D01*
X006941Y001726D01*
X007005Y001726D01*
X006941Y001726D02*
X007005Y001790D01*
X007005Y002748D01*
X006941Y002812D01*
X006590Y002812D01*
X006525Y002748D01*
X006525Y001790D01*
X006590Y001726D01*
X006505Y001790D02*
X006505Y002748D01*
X006441Y002812D01*
X006090Y002812D01*
X006025Y002748D01*
X006025Y002110D01*
X005599Y002110D01*
X005505Y002016D01*
X005358Y001869D01*
X005260Y001967D01*
X005260Y002049D01*
X005223Y002139D01*
X005154Y002208D01*
X005064Y002245D01*
X004966Y002245D01*
X004876Y002208D01*
X004807Y002139D01*
X004770Y002049D01*
X004770Y001951D01*
X004807Y001861D01*
X004876Y001792D01*
X004966Y001755D01*
X005048Y001755D01*
X005112Y001691D01*
X005103Y001691D01*
X005039Y001627D01*
X005039Y001303D01*
X004975Y001366D01*
X004881Y001460D01*
X003949Y001460D01*
X003753Y001264D01*
X003741Y001275D01*
X003389Y001275D01*
X003140Y001026D01*
X003140Y000674D01*
X003140Y000741D02*
X003015Y000741D01*
X003015Y000840D02*
X003140Y000840D01*
X003140Y000938D02*
X003015Y000938D01*
X003015Y001037D02*
X003151Y001037D01*
X003249Y001135D02*
X003015Y001135D01*
X003015Y001234D02*
X003348Y001234D01*
X003015Y001332D02*
X003821Y001332D01*
X003919Y001431D02*
X003015Y001431D01*
X003565Y000850D02*
X004015Y001300D01*
X004815Y001300D01*
X005350Y000765D01*
X005365Y000715D01*
X005039Y000741D02*
X004990Y000741D01*
X004959Y000643D02*
X005039Y000643D01*
X005039Y000544D02*
X004860Y000544D01*
X004762Y000446D02*
X005066Y000446D01*
X005664Y000446D02*
X005766Y000446D01*
X005739Y000544D02*
X005692Y000544D01*
X005692Y000643D02*
X005739Y000643D01*
X005739Y000741D02*
X005692Y000741D01*
X005692Y000840D02*
X005739Y000840D01*
X005739Y000938D02*
X005692Y000938D01*
X005757Y001068D02*
X005791Y001048D01*
X005829Y001038D01*
X006017Y001038D01*
X006017Y001336D01*
X006114Y001336D01*
X006114Y001433D01*
X006017Y001433D01*
X006017Y001731D01*
X005829Y001731D01*
X005791Y001721D01*
X005757Y001702D01*
X005729Y001674D01*
X005709Y001639D01*
X005699Y001601D01*
X005699Y001433D01*
X006017Y001433D01*
X006017Y001336D01*
X005699Y001336D01*
X005699Y001168D01*
X005709Y001130D01*
X005729Y001096D01*
X005757Y001068D01*
X005707Y001135D02*
X005684Y001135D01*
X005692Y001234D02*
X005699Y001234D01*
X005692Y001332D02*
X005699Y001332D01*
X005692Y001431D02*
X006017Y001431D01*
X006114Y001431D02*
X006439Y001431D01*
X006432Y001336D02*
X006114Y001336D01*
X006114Y001038D01*
X006301Y001038D01*
X006340Y001048D01*
X006374Y001068D01*
X006402Y001096D01*
X006421Y001130D01*
X006432Y001168D01*
X006432Y001336D01*
X006432Y001332D02*
X006439Y001332D01*
X006432Y001234D02*
X006439Y001234D01*
X006446Y001135D02*
X006423Y001135D01*
X006439Y000938D02*
X006392Y000938D01*
X006114Y001135D02*
X006017Y001135D01*
X006017Y001234D02*
X006114Y001234D01*
X006114Y001332D02*
X006017Y001332D01*
X006017Y001529D02*
X006114Y001529D01*
X006114Y001628D02*
X006017Y001628D01*
X006017Y001726D02*
X006089Y001726D01*
X005808Y001726D02*
X005667Y001726D01*
X005691Y001628D02*
X005706Y001628D01*
X005692Y001529D02*
X005699Y001529D01*
X005365Y001650D02*
X005365Y001385D01*
X005365Y001650D02*
X005665Y001950D01*
X006265Y001950D01*
X006265Y002269D01*
X006025Y002317D02*
X005526Y002317D01*
X005597Y002416D02*
X006025Y002416D01*
X006025Y002514D02*
X005600Y002514D01*
X005600Y002711D02*
X006025Y002711D01*
X006087Y002810D02*
X005600Y002810D01*
X006025Y002613D02*
X005154Y002613D01*
X005077Y002613D02*
X003515Y002613D01*
X003515Y002514D02*
X004631Y002514D01*
X004633Y002416D02*
X004535Y002416D01*
X004575Y002317D02*
X004704Y002317D01*
X004575Y002219D02*
X004902Y002219D01*
X004800Y002120D02*
X004575Y002120D01*
X004575Y002022D02*
X004770Y002022D01*
X004782Y001923D02*
X004575Y001923D01*
X004575Y001825D02*
X004844Y001825D01*
X005077Y001726D02*
X004575Y001726D01*
X004575Y001628D02*
X005039Y001628D01*
X005039Y001529D02*
X004575Y001529D01*
X004911Y001431D02*
X005039Y001431D01*
X005039Y001332D02*
X005009Y001332D01*
X005305Y001037D02*
X006975Y001037D01*
X007165Y001000D02*
X007165Y001750D01*
X007265Y001850D01*
X007265Y002269D01*
X007025Y002317D02*
X007005Y002317D01*
X007005Y002219D02*
X007025Y002219D01*
X007025Y002120D02*
X007005Y002120D01*
X007005Y002022D02*
X007025Y002022D01*
X007025Y001923D02*
X007005Y001923D01*
X007005Y001825D02*
X007013Y001825D01*
X007325Y001628D02*
X009565Y001628D01*
X009565Y001529D02*
X007325Y001529D01*
X007325Y001431D02*
X007358Y001431D01*
X007358Y001332D02*
X007325Y001332D01*
X007325Y001234D02*
X007358Y001234D01*
X007358Y001135D02*
X007325Y001135D01*
X007325Y001037D02*
X007358Y001037D01*
X007165Y001000D02*
X006881Y000715D01*
X006765Y000715D01*
X006065Y000715D01*
X006392Y000544D02*
X006439Y000544D01*
X006466Y000446D02*
X006364Y000446D01*
X007064Y000446D02*
X007358Y000446D01*
X007358Y000544D02*
X007092Y000544D01*
X007092Y000643D02*
X007358Y000643D01*
X007358Y000741D02*
X007132Y000741D01*
X007231Y000840D02*
X007358Y000840D01*
X007358Y000938D02*
X007325Y000938D01*
X006765Y001385D02*
X006765Y002269D01*
X006525Y002317D02*
X006505Y002317D01*
X006505Y002219D02*
X006525Y002219D01*
X006525Y002120D02*
X006505Y002120D01*
X006505Y002022D02*
X006525Y002022D01*
X006525Y001923D02*
X006505Y001923D01*
X006505Y001825D02*
X006525Y001825D01*
X006505Y001790D02*
X006441Y001726D01*
X006439Y001628D02*
X006425Y001628D01*
X006432Y001529D02*
X006439Y001529D01*
X006025Y002120D02*
X005231Y002120D01*
X005260Y002022D02*
X005510Y002022D01*
X005412Y001923D02*
X005304Y001923D01*
X005128Y002219D02*
X006025Y002219D01*
X006505Y002416D02*
X006525Y002416D01*
X006525Y002514D02*
X006505Y002514D01*
X006505Y002613D02*
X006525Y002613D01*
X006525Y002711D02*
X006505Y002711D01*
X006443Y002810D02*
X006587Y002810D01*
X006943Y002810D02*
X007087Y002810D01*
X007025Y002711D02*
X007005Y002711D01*
X007005Y002613D02*
X007025Y002613D01*
X007025Y002514D02*
X007005Y002514D01*
X007005Y002416D02*
X007025Y002416D01*
X007443Y002810D02*
X007531Y002810D01*
X007750Y002810D02*
X007780Y002810D01*
X007780Y002852D02*
X007780Y002284D01*
X008045Y002284D01*
X008045Y002722D01*
X008035Y002760D01*
X008015Y002794D01*
X007987Y002822D01*
X007953Y002842D01*
X007915Y002852D01*
X007780Y002852D01*
X007780Y002711D02*
X007750Y002711D01*
X007750Y002613D02*
X007780Y002613D01*
X007780Y002514D02*
X007750Y002514D01*
X007750Y002416D02*
X007780Y002416D01*
X007780Y002317D02*
X007750Y002317D01*
X007750Y002219D02*
X007780Y002219D01*
X007780Y002120D02*
X007750Y002120D01*
X007750Y002022D02*
X007780Y002022D01*
X007780Y001923D02*
X007750Y001923D01*
X007750Y001825D02*
X007780Y001825D01*
X007780Y001726D02*
X007750Y001726D01*
X007997Y001726D02*
X009565Y001726D01*
X009565Y001825D02*
X008045Y001825D01*
X008045Y001923D02*
X009565Y001923D01*
X009565Y002022D02*
X008045Y002022D01*
X008045Y002120D02*
X009565Y002120D01*
X009565Y002219D02*
X008045Y002219D01*
X008045Y002317D02*
X009565Y002317D01*
X009565Y002416D02*
X008045Y002416D01*
X008045Y002514D02*
X009565Y002514D01*
X009565Y002613D02*
X008045Y002613D01*
X008045Y002711D02*
X009565Y002711D01*
X009565Y002810D02*
X008000Y002810D01*
X007531Y003204D02*
X009565Y003204D01*
X009565Y003302D02*
X007629Y003302D01*
X007728Y003401D02*
X009565Y003401D01*
X009565Y003499D02*
X007826Y003499D01*
X007915Y003598D02*
X009565Y003598D01*
X009565Y003696D02*
X007915Y003696D01*
X007915Y003795D02*
X009565Y003795D01*
X009565Y003893D02*
X007915Y003893D01*
X007915Y003992D02*
X009565Y003992D01*
X009565Y004090D02*
X007943Y004090D01*
X008005Y004189D02*
X009565Y004189D01*
X009565Y004287D02*
X008005Y004287D01*
X008005Y004386D02*
X009565Y004386D01*
X009565Y004484D02*
X008005Y004484D01*
X008005Y004583D02*
X009565Y004583D01*
X009565Y004681D02*
X008005Y004681D01*
X008005Y004780D02*
X009565Y004780D01*
X009565Y004878D02*
X008005Y004878D01*
X008005Y004977D02*
X009565Y004977D01*
X009565Y005075D02*
X008005Y005075D01*
X007941Y005174D02*
X009565Y005174D01*
X009565Y005272D02*
X007498Y005272D01*
X007510Y005371D02*
X009565Y005371D01*
X009565Y005469D02*
X008673Y005469D01*
X008673Y005568D02*
X009565Y005568D01*
X009565Y005666D02*
X008673Y005666D01*
X008673Y005765D02*
X009565Y005765D01*
X009565Y005863D02*
X008673Y005863D01*
X008673Y005962D02*
X009565Y005962D01*
X009565Y006060D02*
X008673Y006060D01*
X008673Y006159D02*
X009565Y006159D01*
X009564Y006257D02*
X008673Y006257D01*
X008673Y006356D02*
X009540Y006356D01*
X009477Y006454D02*
X008673Y006454D01*
X007358Y006454D02*
X006037Y006454D01*
X006048Y006443D02*
X006020Y006471D01*
X005986Y006491D01*
X005948Y006501D01*
X005765Y006501D01*
X005765Y006194D01*
X006078Y006194D01*
X006078Y006371D01*
X006068Y006409D01*
X006048Y006443D01*
X006078Y006356D02*
X006089Y006356D01*
X006078Y006257D02*
X006089Y006257D01*
X006089Y006159D02*
X005765Y006159D01*
X005765Y006194D02*
X005765Y006094D01*
X005765Y005788D01*
X005948Y005788D01*
X005986Y005798D01*
X006020Y005818D01*
X006048Y005846D01*
X006068Y005880D01*
X006078Y005918D01*
X006078Y006094D01*
X005765Y006094D01*
X005665Y006094D01*
X005665Y005788D01*
X005483Y005788D01*
X005445Y005798D01*
X005410Y005818D01*
X005383Y005846D01*
X005363Y005880D01*
X005353Y005918D01*
X005353Y006094D01*
X005665Y006094D01*
X005665Y006194D01*
X005353Y006194D01*
X005353Y006371D01*
X005363Y006409D01*
X005383Y006443D01*
X005410Y006471D01*
X005445Y006491D01*
X005483Y006501D01*
X005665Y006501D01*
X005665Y006194D01*
X005765Y006194D01*
X005765Y006257D02*
X005665Y006257D01*
X005665Y006159D02*
X004990Y006159D01*
X004959Y006257D02*
X005353Y006257D01*
X005353Y006356D02*
X004861Y006356D01*
X004762Y006454D02*
X005393Y006454D01*
X005665Y006454D02*
X005765Y006454D01*
X005765Y006356D02*
X005665Y006356D01*
X005665Y006060D02*
X005765Y006060D01*
X005765Y005962D02*
X005665Y005962D01*
X005665Y005863D02*
X005765Y005863D01*
X005981Y005765D02*
X006145Y005765D01*
X006118Y005863D02*
X006058Y005863D01*
X006078Y005962D02*
X006089Y005962D01*
X006078Y006060D02*
X006089Y006060D01*
X006089Y005666D02*
X006038Y005666D01*
X005725Y005465D02*
X005715Y005456D01*
X005460Y005456D01*
X004865Y006050D01*
X004565Y006050D01*
X004140Y006060D02*
X003595Y006060D01*
X003595Y006080D02*
X003595Y006020D01*
X003595Y005585D01*
X003758Y005585D01*
X004030Y005857D01*
X004030Y006020D01*
X003595Y006020D01*
X003535Y006020D01*
X003100Y006020D01*
X003100Y005857D01*
X003373Y005585D01*
X003535Y005585D01*
X003535Y006020D01*
X003535Y006080D01*
X003100Y006080D01*
X003100Y006243D01*
X003373Y006515D01*
X003535Y006515D01*
X003535Y006080D01*
X003595Y006080D01*
X003595Y006515D01*
X003758Y006515D01*
X004030Y006243D01*
X004030Y006080D01*
X003595Y006080D01*
X003535Y006060D02*
X003015Y006060D01*
X003015Y005962D02*
X003100Y005962D01*
X003100Y005863D02*
X003015Y005863D01*
X003015Y005765D02*
X003193Y005765D01*
X003292Y005666D02*
X003015Y005666D01*
X003015Y005568D02*
X005121Y005568D01*
X005220Y005469D02*
X004524Y005469D01*
X004610Y005371D02*
X005318Y005371D01*
X005393Y005272D02*
X004615Y005272D01*
X004615Y005174D02*
X005422Y005174D01*
X005725Y005465D02*
X006415Y005465D01*
X006089Y005272D02*
X006038Y005272D01*
X006008Y005174D02*
X006089Y005174D01*
X006025Y005075D02*
X004615Y005075D01*
X004615Y004878D02*
X006025Y004878D01*
X006025Y004780D02*
X004615Y004780D01*
X004615Y004681D02*
X006025Y004681D01*
X006025Y004583D02*
X004615Y004583D01*
X004589Y004484D02*
X004671Y004484D01*
X004639Y004386D02*
X003015Y004386D01*
X003015Y004287D02*
X004540Y004287D01*
X004465Y004189D02*
X003015Y004189D01*
X003015Y004090D02*
X004465Y004090D01*
X004465Y003992D02*
X003015Y003992D01*
X003015Y003893D02*
X004465Y003893D01*
X004465Y003795D02*
X003688Y003795D01*
X003542Y003795D02*
X003015Y003795D01*
X003015Y003696D02*
X003372Y003696D01*
X003302Y003598D02*
X003015Y003598D01*
X003015Y003499D02*
X003269Y003499D01*
X003269Y003401D02*
X003015Y003401D01*
X003015Y003302D02*
X003255Y003302D01*
X003215Y003204D02*
X003015Y003204D01*
X003015Y003105D02*
X003215Y003105D01*
X003215Y003007D02*
X003015Y003007D01*
X003015Y002908D02*
X003215Y002908D01*
X003215Y002810D02*
X003015Y002810D01*
X003015Y002711D02*
X003215Y002711D01*
X003215Y002613D02*
X003015Y002613D01*
X003015Y002514D02*
X003215Y002514D01*
X003515Y002711D02*
X004631Y002711D01*
X004631Y002810D02*
X003515Y002810D01*
X003515Y002908D02*
X003945Y002908D01*
X003847Y003007D02*
X003515Y003007D01*
X003515Y003105D02*
X003543Y003105D01*
X003687Y003105D02*
X003748Y003105D01*
X003975Y003302D02*
X004302Y003302D01*
X004372Y003204D02*
X004074Y003204D01*
X003961Y003401D02*
X004269Y003401D01*
X004269Y003499D02*
X003961Y003499D01*
X003929Y003598D02*
X004302Y003598D01*
X004372Y003696D02*
X003859Y003696D01*
X004765Y003795D02*
X007615Y003795D01*
X007615Y003893D02*
X006684Y003893D01*
X006783Y003992D02*
X007615Y003992D01*
X007588Y004090D02*
X007443Y004090D01*
X007505Y004189D02*
X007525Y004189D01*
X007525Y004287D02*
X007505Y004287D01*
X007505Y004386D02*
X007525Y004386D01*
X007525Y004484D02*
X007505Y004484D01*
X007505Y004583D02*
X007525Y004583D01*
X007525Y004681D02*
X007505Y004681D01*
X007505Y004780D02*
X007525Y004780D01*
X007525Y004878D02*
X007505Y004878D01*
X007505Y004977D02*
X007525Y004977D01*
X007525Y005075D02*
X007505Y005075D01*
X007441Y005174D02*
X007589Y005174D01*
X007089Y005174D02*
X006941Y005174D01*
X007005Y005075D02*
X007025Y005075D01*
X007025Y004977D02*
X007005Y004977D01*
X007005Y004878D02*
X007025Y004878D01*
X007025Y004780D02*
X007005Y004780D01*
X007005Y004681D02*
X007025Y004681D01*
X007025Y004583D02*
X007005Y004583D01*
X007005Y004484D02*
X007025Y004484D01*
X007025Y004386D02*
X007005Y004386D01*
X007005Y004287D02*
X007025Y004287D01*
X007025Y004189D02*
X007005Y004189D01*
X006943Y004090D02*
X007088Y004090D01*
X006715Y004150D02*
X006565Y004000D01*
X006015Y004000D01*
X005738Y004277D01*
X005115Y004277D01*
X005497Y003992D02*
X005797Y003992D01*
X005896Y003893D02*
X004765Y003893D01*
X004859Y003696D02*
X007599Y003696D01*
X007501Y003598D02*
X004929Y003598D01*
X004961Y003499D02*
X007402Y003499D01*
X007304Y003401D02*
X004961Y003401D01*
X004929Y003302D02*
X007205Y003302D01*
X007107Y003204D02*
X004858Y003204D01*
X005077Y002514D02*
X005154Y002514D01*
X005154Y002416D02*
X005077Y002416D01*
X005077Y002317D02*
X005154Y002317D01*
X004249Y001135D02*
X004076Y001135D01*
X004151Y001037D02*
X003980Y001037D01*
X003990Y000938D02*
X004140Y000938D01*
X004140Y000840D02*
X003990Y000840D01*
X003990Y000741D02*
X004140Y000741D01*
X004172Y000643D02*
X003959Y000643D01*
X003860Y000544D02*
X004270Y000544D01*
X004369Y000446D02*
X003762Y000446D01*
X003369Y000446D02*
X003104Y000446D01*
X003041Y000544D02*
X003270Y000544D01*
X004990Y000840D02*
X005039Y000840D01*
X007235Y002908D02*
X009565Y002908D01*
X009565Y003007D02*
X007334Y003007D01*
X007432Y003105D02*
X009565Y003105D01*
X009565Y001431D02*
X008673Y001431D01*
X008673Y001332D02*
X009565Y001332D01*
X009565Y001234D02*
X008673Y001234D01*
X008673Y001135D02*
X009565Y001135D01*
X009565Y001037D02*
X008673Y001037D01*
X008673Y000938D02*
X009565Y000938D01*
X009565Y000840D02*
X008673Y000840D01*
X008673Y000741D02*
X009565Y000741D01*
X009564Y000643D02*
X008673Y000643D01*
X008673Y000544D02*
X009540Y000544D01*
X009477Y000446D02*
X008673Y000446D01*
X005699Y004090D02*
X005560Y004090D01*
X005856Y004386D02*
X006025Y004386D01*
X006025Y004484D02*
X005560Y004484D01*
X005954Y004287D02*
X006025Y004287D01*
X006715Y004150D02*
X006765Y004631D01*
X006025Y004977D02*
X003765Y004977D01*
X003765Y005075D02*
X003665Y005075D01*
X003665Y005174D02*
X003765Y005174D01*
X003765Y005272D02*
X003665Y005272D01*
X003665Y005371D02*
X003765Y005371D01*
X003765Y005469D02*
X003665Y005469D01*
X003595Y005666D02*
X003535Y005666D01*
X003535Y005765D02*
X003595Y005765D01*
X003595Y005863D02*
X003535Y005863D01*
X003535Y005962D02*
X003595Y005962D01*
X003595Y006159D02*
X003535Y006159D01*
X003535Y006257D02*
X003595Y006257D01*
X003595Y006356D02*
X003535Y006356D01*
X003535Y006454D02*
X003595Y006454D01*
X003819Y006454D02*
X004368Y006454D01*
X004270Y006356D02*
X003917Y006356D01*
X004016Y006257D02*
X004171Y006257D01*
X004140Y006159D02*
X004030Y006159D01*
X004030Y005962D02*
X004140Y005962D01*
X004151Y005863D02*
X004030Y005863D01*
X003937Y005765D02*
X004250Y005765D01*
X004348Y005666D02*
X003839Y005666D01*
X003100Y006159D02*
X003015Y006159D01*
X003016Y006257D02*
X003115Y006257D01*
X003040Y006356D02*
X003213Y006356D01*
X003312Y006454D02*
X003103Y006454D01*
X004782Y005666D02*
X005023Y005666D01*
X004924Y005765D02*
X004881Y005765D01*
X005180Y005962D02*
X005353Y005962D01*
X005353Y006060D02*
X005081Y006060D01*
X005278Y005863D02*
X005373Y005863D01*
X005377Y005765D02*
X005449Y005765D01*
X006742Y006060D02*
X007358Y006060D01*
X007358Y005962D02*
X006800Y005962D01*
X006899Y005863D02*
X007358Y005863D01*
X007358Y005765D02*
X006915Y005765D01*
X006915Y005666D02*
X007358Y005666D01*
X007150Y005568D02*
X006915Y005568D01*
X006915Y005469D02*
X007049Y005469D01*
X007020Y005371D02*
X006915Y005371D01*
X006915Y005272D02*
X007032Y005272D01*
X006742Y006159D02*
X007358Y006159D01*
X007358Y006257D02*
X006742Y006257D01*
X006742Y006356D02*
X007358Y006356D01*
X003765Y004878D02*
X003665Y004878D01*
X003665Y004780D02*
X003765Y004780D01*
X003765Y004681D02*
X003665Y004681D01*
X003665Y004583D02*
X003765Y004583D01*
X003765Y004484D02*
X003665Y004484D01*
D19*
X004615Y004150D02*
X004615Y003450D01*
X004015Y003050D02*
X007165Y003050D01*
X007765Y003650D01*
X007765Y004631D01*
X007265Y004631D02*
X007265Y005350D01*
X006765Y005785D02*
X006415Y006135D01*
X006765Y005785D02*
X006765Y004631D01*
X006265Y004631D02*
X006265Y005315D01*
X006415Y005465D01*
X005115Y004277D02*
X004742Y004277D01*
X004615Y004150D01*
X003615Y003450D02*
X003365Y003200D01*
X003365Y002300D01*
X003715Y001950D01*
X005015Y002000D02*
X005365Y001650D01*
X004015Y003050D02*
X003615Y003450D01*
D20*
X004065Y002750D03*
X005015Y002000D03*
X007815Y003250D03*
X007265Y005350D03*
M02*
