G75*
%MOIN*%
%OFA0B0*%
%FSLAX24Y24*%
%IPPOS*%
%LPD*%
%AMOC8*
5,1,8,0,0,1.08239X$1,22.5*
%
%ADD10C,0.0000*%
D10*
X002815Y000650D02*
X002815Y006250D01*
X002817Y006294D01*
X002823Y006337D01*
X002832Y006379D01*
X002845Y006421D01*
X002862Y006461D01*
X002882Y006500D01*
X002905Y006537D01*
X002932Y006571D01*
X002961Y006604D01*
X002994Y006633D01*
X003028Y006660D01*
X003065Y006683D01*
X003104Y006703D01*
X003144Y006720D01*
X003186Y006733D01*
X003228Y006742D01*
X003271Y006748D01*
X003315Y006750D01*
X009265Y006750D01*
X009309Y006748D01*
X009352Y006742D01*
X009394Y006733D01*
X009436Y006720D01*
X009476Y006703D01*
X009515Y006683D01*
X009552Y006660D01*
X009586Y006633D01*
X009619Y006604D01*
X009648Y006571D01*
X009675Y006537D01*
X009698Y006500D01*
X009718Y006461D01*
X009735Y006421D01*
X009748Y006379D01*
X009757Y006337D01*
X009763Y006294D01*
X009765Y006250D01*
X009765Y000650D01*
X009763Y000606D01*
X009757Y000563D01*
X009748Y000521D01*
X009735Y000479D01*
X009718Y000439D01*
X009698Y000400D01*
X009675Y000363D01*
X009648Y000329D01*
X009619Y000296D01*
X009586Y000267D01*
X009552Y000240D01*
X009515Y000217D01*
X009476Y000197D01*
X009436Y000180D01*
X009394Y000167D01*
X009352Y000158D01*
X009309Y000152D01*
X009265Y000150D01*
X003315Y000150D01*
X003271Y000152D01*
X003228Y000158D01*
X003186Y000167D01*
X003144Y000180D01*
X003104Y000197D01*
X003065Y000217D01*
X003028Y000240D01*
X002994Y000267D01*
X002961Y000296D01*
X002932Y000329D01*
X002905Y000363D01*
X002882Y000400D01*
X002862Y000439D01*
X002845Y000479D01*
X002832Y000521D01*
X002823Y000563D01*
X002817Y000606D01*
X002815Y000650D01*
M02*
