G75*
%MOIN*%
%OFA0B0*%
%FSLAX24Y24*%
%IPPOS*%
%LPD*%
%AMOC8*
5,1,8,0,0,1.08239X$1,22.5*
%
%ADD10C,0.0080*%
D10*
X003265Y000550D02*
X003265Y000650D01*
X003265Y000550D02*
X003365Y000550D01*
X003765Y000550D02*
X003865Y000550D01*
X003865Y000650D01*
X004265Y000650D02*
X004265Y000550D01*
X004365Y000550D01*
X004765Y000550D02*
X004865Y000550D01*
X004865Y000650D01*
X005135Y000730D02*
X005135Y000810D01*
X005175Y000850D01*
X005215Y000850D01*
X005255Y000810D01*
X005295Y000850D01*
X005335Y000850D01*
X005375Y000810D01*
X005375Y000730D01*
X005335Y000690D01*
X005255Y000770D02*
X005255Y000810D01*
X005175Y000690D02*
X005135Y000730D01*
X005175Y000985D02*
X005135Y001025D01*
X005135Y001105D01*
X005175Y001145D01*
X005215Y001145D01*
X005255Y001105D01*
X005295Y001145D01*
X005335Y001145D01*
X005375Y001105D01*
X005375Y001025D01*
X005335Y000985D01*
X005255Y001065D02*
X005255Y001105D01*
X005295Y001279D02*
X005135Y001439D01*
X005255Y001319D02*
X005375Y001439D01*
X005375Y001279D02*
X005135Y001279D01*
X004865Y001150D02*
X004765Y001150D01*
X004865Y001150D02*
X004865Y001050D01*
X004365Y001150D02*
X004265Y001150D01*
X004265Y001050D01*
X003865Y001050D02*
X003865Y001150D01*
X003765Y001150D01*
X003365Y001150D02*
X003265Y001150D01*
X003265Y001050D01*
X004525Y002663D02*
X004721Y002663D01*
X004525Y002663D02*
X004525Y004237D01*
X004721Y004237D01*
X005509Y004237D02*
X005706Y004237D01*
X005706Y002663D01*
X005509Y002663D01*
X005952Y002682D02*
X005952Y004218D01*
X005953Y004218D02*
X005955Y004237D01*
X005960Y004256D01*
X005970Y004272D01*
X005982Y004287D01*
X005997Y004299D01*
X006013Y004309D01*
X006032Y004314D01*
X006051Y004316D01*
X006255Y003891D02*
X006415Y003891D01*
X006335Y003891D02*
X006335Y003651D01*
X006550Y003651D02*
X006630Y003651D01*
X006590Y003651D02*
X006590Y003891D01*
X006550Y003891D02*
X006630Y003891D01*
X006746Y003891D02*
X006906Y003651D01*
X006906Y003891D01*
X007041Y003891D02*
X007041Y003851D01*
X007121Y003771D01*
X007121Y003651D01*
X007121Y003771D02*
X007201Y003851D01*
X007201Y003891D01*
X007336Y003851D02*
X007376Y003891D01*
X007456Y003891D01*
X007496Y003851D01*
X007496Y003811D01*
X007336Y003651D01*
X007496Y003651D01*
X007630Y003691D02*
X007670Y003651D01*
X007750Y003651D01*
X007790Y003691D01*
X007790Y003771D01*
X007750Y003811D01*
X007710Y003811D01*
X007630Y003771D01*
X007630Y003891D01*
X007790Y003891D01*
X008202Y004065D02*
X008255Y004065D01*
X008362Y004065D02*
X008575Y004065D01*
X008575Y004118D02*
X008575Y004011D01*
X008705Y004032D02*
X008705Y004085D01*
X009025Y004085D01*
X009025Y004032D02*
X009025Y004139D01*
X009155Y003935D02*
X009475Y003935D01*
X009475Y003882D02*
X009475Y003989D01*
X009422Y004128D02*
X009262Y004128D01*
X009422Y004128D02*
X009475Y004181D01*
X009475Y004341D01*
X009529Y004341D02*
X009582Y004288D01*
X009582Y004234D01*
X009529Y004341D02*
X009262Y004341D01*
X009475Y004496D02*
X009155Y004709D01*
X009025Y004646D02*
X008812Y004646D01*
X008705Y004753D01*
X008812Y004859D01*
X009025Y004859D01*
X008865Y004859D02*
X008865Y004646D01*
X008575Y004625D02*
X008362Y004625D01*
X008468Y004625D02*
X008362Y004732D01*
X008362Y004785D01*
X008415Y004932D02*
X008522Y004932D01*
X008575Y004985D01*
X008575Y005092D01*
X008522Y005146D01*
X008415Y005146D01*
X008362Y005092D01*
X008362Y004985D01*
X008415Y004932D01*
X008705Y005014D02*
X008705Y005068D01*
X009025Y005068D01*
X009025Y005121D02*
X009025Y005014D01*
X009262Y005078D02*
X009475Y005078D01*
X009475Y004918D01*
X009422Y004864D01*
X009262Y004864D01*
X009262Y005233D02*
X009262Y005286D01*
X009315Y005339D01*
X009262Y005393D01*
X009315Y005446D01*
X009475Y005446D01*
X009475Y005339D02*
X009315Y005339D01*
X009262Y005233D02*
X009475Y005233D01*
X009025Y005313D02*
X008972Y005260D01*
X008918Y005313D01*
X008918Y005473D01*
X008865Y005473D02*
X009025Y005473D01*
X009025Y005313D01*
X008812Y005313D02*
X008812Y005420D01*
X008865Y005473D01*
X008812Y005628D02*
X009025Y005628D01*
X008918Y005628D02*
X008812Y005735D01*
X008812Y005788D01*
X008812Y005935D02*
X008812Y005988D01*
X008865Y006042D01*
X008812Y006095D01*
X008865Y006149D01*
X009025Y006149D01*
X009025Y006042D02*
X008865Y006042D01*
X008812Y005935D02*
X009025Y005935D01*
X009262Y005900D02*
X009262Y005846D01*
X009475Y005846D01*
X009475Y005953D02*
X009315Y005953D01*
X009262Y006007D01*
X009315Y006060D01*
X009475Y006060D01*
X009315Y005953D02*
X009262Y005900D01*
X009475Y005708D02*
X009475Y005601D01*
X009475Y005654D02*
X009155Y005654D01*
X009155Y005601D01*
X009422Y006215D02*
X009368Y006268D01*
X009368Y006428D01*
X009315Y006428D02*
X009262Y006375D01*
X009262Y006268D01*
X009422Y006215D02*
X009475Y006268D01*
X009475Y006428D01*
X009315Y006428D01*
X006975Y006134D02*
X006735Y006134D01*
X006855Y006014D01*
X006855Y006174D01*
X006775Y005880D02*
X006935Y005880D01*
X006975Y005840D01*
X006975Y005760D01*
X006935Y005720D01*
X006775Y005880D01*
X006735Y005840D01*
X006735Y005760D01*
X006775Y005720D01*
X006935Y005720D01*
X006975Y005585D02*
X006975Y005425D01*
X006975Y005505D02*
X006735Y005505D01*
X006815Y005425D01*
X005375Y005440D02*
X005375Y005600D01*
X005375Y005520D02*
X005135Y005520D01*
X005215Y005440D01*
X005175Y005735D02*
X005135Y005775D01*
X005135Y005855D01*
X005175Y005895D01*
X005335Y005735D01*
X005375Y005775D01*
X005375Y005855D01*
X005335Y005895D01*
X005175Y005895D01*
X005135Y006029D02*
X005375Y006029D01*
X005295Y006029D02*
X005135Y006189D01*
X005255Y006069D02*
X005375Y006189D01*
X004865Y006250D02*
X004865Y006350D01*
X004765Y006350D01*
X004365Y006350D02*
X004265Y006350D01*
X004265Y006250D01*
X003865Y006250D02*
X003865Y006350D01*
X003765Y006350D01*
X003365Y006350D02*
X003265Y006350D01*
X003265Y006250D01*
X003265Y005850D02*
X003265Y005750D01*
X003365Y005750D01*
X003765Y005750D02*
X003865Y005750D01*
X003865Y005850D01*
X004265Y005850D02*
X004265Y005750D01*
X004365Y005750D01*
X004765Y005750D02*
X004865Y005750D01*
X004865Y005850D01*
X005175Y005735D02*
X005335Y005735D01*
X007980Y004316D02*
X007999Y004314D01*
X008018Y004309D01*
X008034Y004299D01*
X008049Y004287D01*
X008061Y004272D01*
X008071Y004256D01*
X008076Y004237D01*
X008078Y004218D01*
X008078Y002682D01*
X008076Y002663D01*
X008071Y002644D01*
X008061Y002628D01*
X008049Y002613D01*
X008034Y002601D01*
X008018Y002591D01*
X007999Y002586D01*
X007980Y002584D01*
X008308Y002407D02*
X008522Y002407D01*
X008575Y002461D01*
X008575Y002599D02*
X008362Y002599D01*
X008468Y002599D02*
X008362Y002706D01*
X008362Y002760D01*
X008362Y002960D02*
X008362Y003066D01*
X008415Y003120D01*
X008575Y003120D01*
X008575Y002960D01*
X008522Y002906D01*
X008468Y002960D01*
X008468Y003120D01*
X008812Y003087D02*
X008812Y002980D01*
X008865Y002927D01*
X008972Y002927D01*
X009025Y002980D01*
X009025Y003087D01*
X008972Y003141D01*
X008865Y003141D01*
X008812Y003087D01*
X008865Y003295D02*
X008812Y003349D01*
X008812Y003509D01*
X008705Y003509D02*
X009025Y003509D01*
X009025Y003349D01*
X008972Y003295D01*
X008865Y003295D01*
X009102Y003260D02*
X009155Y003260D01*
X009262Y003260D02*
X009262Y003207D01*
X009262Y003260D02*
X009475Y003260D01*
X009475Y003207D02*
X009475Y003314D01*
X009422Y003506D02*
X009475Y003559D01*
X009422Y003506D02*
X009208Y003506D01*
X009262Y003559D02*
X009262Y003452D01*
X009422Y003698D02*
X009422Y003751D01*
X009475Y003751D01*
X009475Y003698D01*
X009422Y003698D01*
X009155Y003882D02*
X009155Y003935D01*
X009025Y003824D02*
X009025Y003717D01*
X008972Y003664D01*
X008865Y003664D01*
X008812Y003717D01*
X008812Y003824D01*
X008865Y003877D01*
X008918Y003877D01*
X008918Y003664D01*
X008575Y003643D02*
X008255Y003643D01*
X008362Y003750D01*
X008255Y003856D01*
X008575Y003856D01*
X008362Y004011D02*
X008362Y004065D01*
X008415Y004257D02*
X008522Y004257D01*
X008575Y004310D01*
X008575Y004470D01*
X008362Y004470D02*
X008362Y004310D01*
X008415Y004257D01*
X006746Y003891D02*
X006746Y003651D01*
X006267Y003214D02*
X006385Y003017D01*
X006149Y003017D01*
X006267Y003214D01*
X006031Y002938D02*
X007999Y002938D01*
X008705Y002772D02*
X009025Y002772D01*
X009155Y002839D02*
X009475Y002839D01*
X009475Y002999D01*
X009422Y003052D01*
X009315Y003052D01*
X009262Y002999D01*
X009262Y002839D01*
X009155Y002684D02*
X009475Y002470D01*
X009155Y002315D02*
X009475Y002102D01*
X009475Y001971D02*
X009422Y001971D01*
X009422Y001918D01*
X009475Y001918D01*
X009475Y001971D01*
X009315Y001971D02*
X009315Y001918D01*
X009262Y001918D01*
X009262Y001971D01*
X009315Y001971D01*
X009315Y001763D02*
X009422Y001763D01*
X009475Y001710D01*
X009475Y001549D01*
X009582Y001549D02*
X009262Y001549D01*
X009262Y001710D01*
X009315Y001763D01*
X009025Y001737D02*
X009025Y001577D01*
X008918Y001630D02*
X008865Y001577D01*
X008812Y001630D01*
X008812Y001790D01*
X008918Y001737D02*
X008918Y001630D01*
X008918Y001737D02*
X008972Y001790D01*
X009025Y001737D01*
X008972Y001998D02*
X008758Y001998D01*
X008812Y001945D02*
X008812Y002052D01*
X008972Y001998D02*
X009025Y002052D01*
X008575Y002108D02*
X008575Y002215D01*
X008575Y002162D02*
X008255Y002162D01*
X008255Y002108D01*
X008255Y001954D02*
X008522Y001954D01*
X008575Y001900D01*
X008575Y001793D01*
X008522Y001740D01*
X008255Y001740D01*
X008812Y001368D02*
X008812Y001262D01*
X008865Y001208D01*
X008972Y001208D01*
X009025Y001262D01*
X009025Y001368D01*
X008972Y001422D01*
X008865Y001422D01*
X008812Y001368D01*
X009025Y001054D02*
X009025Y000840D01*
X008705Y000840D01*
X009155Y000690D02*
X009475Y000690D01*
X009315Y000690D02*
X009262Y000743D01*
X009262Y000850D01*
X009315Y000904D01*
X009475Y000904D01*
X009262Y001058D02*
X009262Y001165D01*
X009208Y001112D02*
X009422Y001112D01*
X009475Y001165D01*
X009262Y001304D02*
X009262Y001411D01*
X009208Y001357D02*
X009422Y001357D01*
X009475Y001411D01*
X008362Y002354D02*
X008362Y002461D01*
X008705Y002559D02*
X008812Y002666D01*
X008705Y002772D01*
X008705Y002559D02*
X009025Y002559D01*
X006975Y001634D02*
X006855Y001514D01*
X006895Y001474D02*
X006735Y001634D01*
X006735Y001474D02*
X006975Y001474D01*
X006935Y001339D02*
X006775Y001339D01*
X006935Y001179D01*
X006975Y001219D01*
X006975Y001299D01*
X006935Y001339D01*
X006775Y001339D02*
X006735Y001299D01*
X006735Y001219D01*
X006775Y001179D01*
X006935Y001179D01*
X006975Y001045D02*
X006975Y000885D01*
X006815Y001045D01*
X006775Y001045D01*
X006735Y001005D01*
X006735Y000925D01*
X006775Y000885D01*
X006775Y000750D02*
X006735Y000710D01*
X006735Y000630D01*
X006775Y000590D01*
X006775Y000750D02*
X006815Y000750D01*
X006975Y000590D01*
X006975Y000750D01*
X006051Y002584D02*
X006032Y002586D01*
X006013Y002591D01*
X005997Y002601D01*
X005982Y002613D01*
X005970Y002628D01*
X005960Y002644D01*
X005955Y002663D01*
X005953Y002682D01*
X004761Y003450D02*
X004763Y003487D01*
X004769Y003524D01*
X004778Y003559D01*
X004792Y003594D01*
X004808Y003627D01*
X004829Y003658D01*
X004852Y003687D01*
X004878Y003713D01*
X004907Y003736D01*
X004938Y003757D01*
X004971Y003773D01*
X005006Y003787D01*
X005041Y003796D01*
X005078Y003802D01*
X005115Y003804D01*
X005152Y003802D01*
X005189Y003796D01*
X005224Y003787D01*
X005259Y003773D01*
X005292Y003757D01*
X005323Y003736D01*
X005352Y003713D01*
X005378Y003687D01*
X005401Y003658D01*
X005422Y003627D01*
X005438Y003594D01*
X005452Y003559D01*
X005461Y003524D01*
X005467Y003487D01*
X005469Y003450D01*
X005467Y003413D01*
X005461Y003376D01*
X005452Y003341D01*
X005438Y003306D01*
X005422Y003273D01*
X005401Y003242D01*
X005378Y003213D01*
X005352Y003187D01*
X005323Y003164D01*
X005292Y003143D01*
X005259Y003127D01*
X005224Y003113D01*
X005189Y003104D01*
X005152Y003098D01*
X005115Y003096D01*
X005078Y003098D01*
X005041Y003104D01*
X005006Y003113D01*
X004971Y003127D01*
X004938Y003143D01*
X004907Y003164D01*
X004878Y003187D01*
X004852Y003213D01*
X004829Y003242D01*
X004808Y003273D01*
X004792Y003306D01*
X004778Y003341D01*
X004769Y003376D01*
X004763Y003413D01*
X004761Y003450D01*
X003175Y003455D02*
X003175Y003375D01*
X003135Y003335D01*
X002975Y003495D01*
X003135Y003495D01*
X003175Y003455D01*
X003135Y003335D02*
X002975Y003335D01*
X002935Y003375D01*
X002935Y003455D01*
X002975Y003495D01*
X003135Y003629D02*
X003135Y003669D01*
X003175Y003669D01*
X003175Y003629D01*
X003135Y003629D01*
X003055Y003777D02*
X003055Y003937D01*
X003175Y003897D02*
X002935Y003897D01*
X003055Y003777D01*
X003055Y003200D02*
X002975Y003200D01*
X002935Y003160D01*
X002935Y003040D01*
X003175Y003040D01*
X003095Y003040D02*
X003095Y003160D01*
X003055Y003200D01*
X003095Y003120D02*
X003175Y003200D01*
M02*
