G75*
%MOIN*%
%OFA0B0*%
%FSLAX24Y24*%
%IPPOS*%
%LPD*%
%AMOC8*
5,1,8,0,0,1.08239X$1,22.5*
%
%ADD10R,0.0433X0.0394*%
%ADD11R,0.0425X0.0413*%
%ADD12R,0.1500X0.0760*%
%ADD13OC8,0.0630*%
%ADD14R,0.1095X0.1095*%
%ADD15C,0.0472*%
%ADD16R,0.0787X0.0472*%
%ADD17R,0.0260X0.0866*%
%ADD18C,0.0100*%
%ADD19C,0.0270*%
%ADD20C,0.0160*%
D10*
X005715Y000715D03*
X006565Y000715D03*
X006565Y001385D03*
X005715Y001385D03*
X005715Y005465D03*
X005715Y006135D03*
D11*
X006565Y006144D03*
X006565Y005456D03*
D12*
X003715Y004950D03*
X003715Y001950D03*
D13*
X003515Y000950D03*
X004515Y000950D03*
X004515Y005950D03*
X003515Y005950D03*
D14*
X008015Y006050D03*
X008015Y000850D03*
D15*
X004615Y003450D03*
X003615Y003450D03*
D16*
X005115Y002623D03*
X005115Y004277D03*
D17*
X006265Y004631D03*
X006765Y004631D03*
X007265Y004631D03*
X007765Y004631D03*
X007765Y002269D03*
X007265Y002269D03*
X006765Y002269D03*
X006265Y002269D03*
D18*
X003015Y000650D02*
X003021Y000591D01*
X003066Y000483D01*
X003148Y000401D01*
X003257Y000356D01*
X003315Y000350D01*
X007358Y000350D01*
X007358Y001443D01*
X007422Y001507D01*
X008608Y001507D01*
X008673Y001443D01*
X008673Y000350D01*
X009265Y000350D01*
X009324Y000356D01*
X009432Y000401D01*
X009515Y000483D01*
X009559Y000591D01*
X009565Y000650D01*
X009565Y006250D01*
X009559Y006309D01*
X009515Y006417D01*
X009432Y006499D01*
X009324Y006544D01*
X009265Y006550D01*
X008673Y006550D01*
X008673Y005457D01*
X008608Y005393D01*
X007422Y005393D01*
X007358Y005457D01*
X007358Y006550D01*
X003315Y006550D01*
X003257Y006544D01*
X003148Y006499D01*
X003066Y006417D01*
X003021Y006309D01*
X003015Y006250D01*
X003015Y005440D01*
X004511Y005440D01*
X004575Y005376D01*
X004575Y005195D01*
X004664Y005195D01*
X004754Y005158D01*
X004823Y005089D01*
X004860Y004999D01*
X004860Y004901D01*
X004823Y004811D01*
X004754Y004742D01*
X004664Y004705D01*
X004575Y004705D01*
X004575Y004547D01*
X004582Y004571D01*
X004601Y004605D01*
X004629Y004633D01*
X004664Y004653D01*
X004702Y004663D01*
X005065Y004663D01*
X005065Y004327D01*
X005165Y004327D01*
X005165Y004663D01*
X005529Y004663D01*
X005567Y004653D01*
X005601Y004633D01*
X005629Y004605D01*
X005649Y004571D01*
X005659Y004533D01*
X005659Y004327D01*
X005165Y004327D01*
X005165Y004227D01*
X005659Y004227D01*
X005659Y004021D01*
X005649Y003983D01*
X005629Y003948D01*
X005601Y003921D01*
X005567Y003901D01*
X005529Y003891D01*
X005165Y003891D01*
X005165Y004227D01*
X005065Y004227D01*
X004571Y004227D01*
X004571Y004021D01*
X004582Y003983D01*
X004601Y003948D01*
X004629Y003921D01*
X004664Y003901D01*
X004702Y003891D01*
X005065Y003891D01*
X005065Y004227D01*
X005065Y004327D01*
X004571Y004327D01*
X004571Y004521D01*
X004511Y004460D01*
X003015Y004460D01*
X003015Y002440D01*
X003955Y002440D01*
X003955Y003016D01*
X004284Y003345D01*
X004269Y003381D01*
X004269Y003519D01*
X004322Y003646D01*
X004419Y003744D01*
X004546Y003796D01*
X004684Y003796D01*
X004811Y003744D01*
X004909Y003646D01*
X004924Y003610D01*
X006149Y003610D01*
X006605Y004066D01*
X006605Y004088D01*
X006590Y004088D01*
X006525Y004152D01*
X006525Y005110D01*
X006554Y005139D01*
X006476Y005139D01*
X006505Y005110D01*
X006505Y004152D01*
X006441Y004088D01*
X006090Y004088D01*
X006025Y004152D01*
X006025Y005110D01*
X006090Y005174D01*
X006105Y005174D01*
X006105Y005222D01*
X006243Y005359D01*
X006243Y005540D01*
X006084Y005540D01*
X006042Y005582D01*
X006042Y005223D01*
X005977Y005159D01*
X005875Y005159D01*
X005875Y005086D01*
X005923Y005039D01*
X005960Y004949D01*
X005960Y004851D01*
X005923Y004761D01*
X005854Y004692D01*
X005764Y004655D01*
X005666Y004655D01*
X005576Y004692D01*
X005507Y004761D01*
X005470Y004851D01*
X005470Y004949D01*
X005507Y005039D01*
X005555Y005086D01*
X005555Y005159D01*
X005453Y005159D01*
X005389Y005223D01*
X005389Y005708D01*
X005453Y005772D01*
X005851Y005772D01*
X005796Y005828D01*
X005453Y005828D01*
X005389Y005892D01*
X005389Y005975D01*
X004940Y005975D01*
X004940Y005774D01*
X004691Y005525D01*
X004339Y005525D01*
X004090Y005774D01*
X004090Y006126D01*
X004339Y006375D01*
X004691Y006375D01*
X004772Y006295D01*
X005389Y006295D01*
X005389Y006377D01*
X005453Y006441D01*
X005977Y006441D01*
X006042Y006377D01*
X006042Y006034D01*
X006216Y005860D01*
X006224Y005860D01*
X006213Y005880D01*
X006203Y005918D01*
X006203Y006094D01*
X006515Y006094D01*
X006615Y006094D01*
X006615Y005788D01*
X006798Y005788D01*
X006836Y005798D01*
X006870Y005818D01*
X006898Y005846D01*
X006918Y005880D01*
X006928Y005918D01*
X006928Y006094D01*
X006615Y006094D01*
X006615Y006194D01*
X006928Y006194D01*
X006928Y006371D01*
X006918Y006409D01*
X006898Y006443D01*
X006870Y006471D01*
X006836Y006491D01*
X006798Y006501D01*
X006615Y006501D01*
X006615Y006194D01*
X006515Y006194D01*
X006515Y006094D01*
X006515Y005788D01*
X006454Y005788D01*
X006469Y005772D01*
X006823Y005772D01*
X006888Y005708D01*
X006888Y005203D01*
X006859Y005174D01*
X006941Y005174D01*
X007005Y005110D01*
X007005Y004152D01*
X006941Y004088D01*
X006925Y004088D01*
X006925Y003934D01*
X006831Y003840D01*
X006401Y003410D01*
X007281Y003410D01*
X007375Y003316D01*
X007515Y003176D01*
X007605Y003266D01*
X007605Y004088D01*
X007590Y004088D01*
X007525Y004152D01*
X007525Y005110D01*
X007590Y005174D01*
X007941Y005174D01*
X008005Y005110D01*
X008005Y004152D01*
X007941Y004088D01*
X007925Y004088D01*
X007925Y003134D01*
X007675Y002884D01*
X007675Y002852D01*
X007750Y002852D01*
X007750Y002284D01*
X007780Y002284D01*
X007780Y002852D01*
X007915Y002852D01*
X007953Y002842D01*
X007987Y002822D01*
X008015Y002794D01*
X008035Y002760D01*
X008045Y002722D01*
X008045Y002284D01*
X007780Y002284D01*
X007780Y002254D01*
X007780Y001686D01*
X007915Y001686D01*
X007953Y001696D01*
X007987Y001716D01*
X008015Y001744D01*
X008035Y001778D01*
X008045Y001816D01*
X008045Y002254D01*
X007780Y002254D01*
X007750Y002254D01*
X007750Y001686D01*
X007627Y001686D01*
X007575Y001634D01*
X007481Y001540D01*
X007181Y001540D01*
X007125Y001484D01*
X007125Y000734D01*
X007025Y000634D01*
X006931Y000540D01*
X006892Y000540D01*
X006892Y000473D01*
X006827Y000409D01*
X006303Y000409D01*
X006239Y000473D01*
X006239Y000832D01*
X006147Y000740D01*
X006042Y000740D01*
X006042Y000473D01*
X005977Y000409D01*
X005453Y000409D01*
X005389Y000473D01*
X005389Y000958D01*
X005453Y001022D01*
X005861Y001022D01*
X005877Y001038D01*
X005764Y001038D01*
X005764Y001336D01*
X005764Y001433D01*
X006082Y001433D01*
X006082Y001601D01*
X006071Y001639D01*
X006052Y001674D01*
X006024Y001702D01*
X005990Y001721D01*
X005951Y001731D01*
X005764Y001731D01*
X005764Y001433D01*
X005667Y001433D01*
X005667Y001731D01*
X005479Y001731D01*
X005441Y001721D01*
X005407Y001702D01*
X005379Y001674D01*
X005359Y001639D01*
X005349Y001601D01*
X005349Y001433D01*
X005667Y001433D01*
X005667Y001336D01*
X005764Y001336D01*
X006082Y001336D01*
X006082Y001168D01*
X006071Y001130D01*
X006054Y001100D01*
X006239Y001284D01*
X006239Y001627D01*
X006303Y001691D01*
X006605Y001691D01*
X006605Y001726D01*
X006590Y001726D01*
X006525Y001790D01*
X006525Y002748D01*
X006590Y002812D01*
X006941Y002812D01*
X007005Y002748D01*
X007005Y001816D01*
X007025Y001836D01*
X007025Y002748D01*
X007058Y002781D01*
X006949Y002890D01*
X005781Y002890D01*
X005619Y002727D01*
X005619Y002600D01*
X005676Y002658D01*
X005766Y002695D01*
X005864Y002695D01*
X005954Y002658D01*
X006023Y002589D01*
X006025Y002583D01*
X006025Y002748D01*
X006090Y002812D01*
X006441Y002812D01*
X006505Y002748D01*
X006505Y001790D01*
X006441Y001726D01*
X006589Y001726D01*
X006441Y001726D02*
X006090Y001726D01*
X006025Y001790D01*
X006025Y002109D01*
X005930Y002109D01*
X005834Y002205D01*
X005766Y002205D01*
X005676Y002242D01*
X005607Y002311D01*
X005602Y002325D01*
X005554Y002277D01*
X004676Y002277D01*
X004611Y002341D01*
X004611Y002905D01*
X004676Y002969D01*
X005154Y002969D01*
X005120Y003051D01*
X005120Y003149D01*
X005157Y003239D01*
X005209Y003290D01*
X004924Y003290D01*
X004909Y003254D01*
X004811Y003156D01*
X004684Y003104D01*
X004546Y003104D01*
X004510Y003119D01*
X004275Y002884D01*
X004275Y002440D01*
X004511Y002440D01*
X004575Y002376D01*
X004575Y001524D01*
X004511Y001460D01*
X003015Y001460D01*
X003015Y000650D01*
X003016Y000643D02*
X003222Y000643D01*
X003123Y000741D02*
X003015Y000741D01*
X003090Y000774D02*
X003339Y000525D01*
X003691Y000525D01*
X003940Y000774D01*
X003940Y001126D01*
X003691Y001375D01*
X003339Y001375D01*
X003090Y001126D01*
X003090Y000774D01*
X003090Y000840D02*
X003015Y000840D01*
X003015Y000938D02*
X003090Y000938D01*
X003090Y001037D02*
X003015Y001037D01*
X003015Y001135D02*
X003099Y001135D01*
X003015Y001234D02*
X003198Y001234D01*
X003296Y001332D02*
X003015Y001332D01*
X003015Y001431D02*
X005667Y001431D01*
X005667Y001336D02*
X005349Y001336D01*
X005349Y001168D01*
X005359Y001130D01*
X005379Y001096D01*
X005407Y001068D01*
X005441Y001048D01*
X005479Y001038D01*
X005667Y001038D01*
X005667Y001336D01*
X005667Y001332D02*
X005764Y001332D01*
X005764Y001431D02*
X006239Y001431D01*
X006239Y001529D02*
X006082Y001529D01*
X006075Y001628D02*
X006239Y001628D01*
X006089Y001726D02*
X005972Y001726D01*
X006025Y001825D02*
X004575Y001825D01*
X004575Y001923D02*
X006025Y001923D01*
X006025Y002022D02*
X004575Y002022D01*
X004575Y002120D02*
X005919Y002120D01*
X005996Y002269D02*
X005815Y002450D01*
X005605Y002317D02*
X005594Y002317D01*
X005734Y002219D02*
X004575Y002219D01*
X004575Y002317D02*
X004636Y002317D01*
X004611Y002416D02*
X004535Y002416D01*
X004611Y002514D02*
X004275Y002514D01*
X004275Y002613D02*
X004611Y002613D01*
X004611Y002711D02*
X004275Y002711D01*
X004275Y002810D02*
X004611Y002810D01*
X004614Y002908D02*
X004299Y002908D01*
X004398Y003007D02*
X005139Y003007D01*
X005120Y003105D02*
X004687Y003105D01*
X004543Y003105D02*
X004496Y003105D01*
X004241Y003302D02*
X003929Y003302D01*
X003909Y003254D02*
X003961Y003381D01*
X003961Y003519D01*
X003909Y003646D01*
X003811Y003744D01*
X003684Y003796D01*
X003546Y003796D01*
X003419Y003744D01*
X003322Y003646D01*
X003269Y003519D01*
X003269Y003381D01*
X003322Y003254D01*
X003419Y003156D01*
X003546Y003104D01*
X003684Y003104D01*
X003811Y003156D01*
X003909Y003254D01*
X003858Y003204D02*
X004142Y003204D01*
X004044Y003105D02*
X003687Y003105D01*
X003543Y003105D02*
X003015Y003105D01*
X003015Y003204D02*
X003372Y003204D01*
X003302Y003302D02*
X003015Y003302D01*
X003015Y003401D02*
X003269Y003401D01*
X003269Y003499D02*
X003015Y003499D01*
X003015Y003598D02*
X003302Y003598D01*
X003372Y003696D02*
X003015Y003696D01*
X003015Y003795D02*
X003542Y003795D01*
X003688Y003795D02*
X004542Y003795D01*
X004688Y003795D02*
X006333Y003795D01*
X006432Y003893D02*
X005538Y003893D01*
X005651Y003992D02*
X006530Y003992D01*
X006588Y004090D02*
X006443Y004090D01*
X006505Y004189D02*
X006525Y004189D01*
X006525Y004287D02*
X006505Y004287D01*
X006505Y004386D02*
X006525Y004386D01*
X006525Y004484D02*
X006505Y004484D01*
X006505Y004583D02*
X006525Y004583D01*
X006525Y004681D02*
X006505Y004681D01*
X006505Y004780D02*
X006525Y004780D01*
X006525Y004878D02*
X006505Y004878D01*
X006505Y004977D02*
X006525Y004977D01*
X006525Y005075D02*
X006505Y005075D01*
X006265Y005156D02*
X006565Y005456D01*
X006560Y005456D01*
X006315Y005700D01*
X006150Y005700D01*
X005715Y006135D01*
X004700Y006135D01*
X004515Y005950D01*
X004123Y006159D02*
X003964Y006159D01*
X003980Y006143D02*
X003708Y006415D01*
X003545Y006415D01*
X003545Y005980D01*
X003485Y005980D01*
X003485Y005920D01*
X003050Y005920D01*
X003050Y005757D01*
X003323Y005485D01*
X003485Y005485D01*
X003485Y005920D01*
X003545Y005920D01*
X003545Y005485D01*
X003708Y005485D01*
X003980Y005757D01*
X003980Y005920D01*
X003545Y005920D01*
X003545Y005980D01*
X003980Y005980D01*
X003980Y006143D01*
X003980Y006060D02*
X004090Y006060D01*
X004090Y005962D02*
X003545Y005962D01*
X003485Y005962D02*
X003015Y005962D01*
X003050Y005980D02*
X003485Y005980D01*
X003485Y006415D01*
X003323Y006415D01*
X003050Y006143D01*
X003050Y005980D01*
X003050Y006060D02*
X003015Y006060D01*
X003015Y006159D02*
X003066Y006159D01*
X003016Y006257D02*
X003165Y006257D01*
X003263Y006356D02*
X003040Y006356D01*
X003103Y006454D02*
X006243Y006454D01*
X006233Y006443D02*
X006213Y006409D01*
X006203Y006371D01*
X006203Y006194D01*
X006515Y006194D01*
X006515Y006501D01*
X006333Y006501D01*
X006295Y006491D01*
X006260Y006471D01*
X006233Y006443D01*
X006203Y006356D02*
X006042Y006356D01*
X006042Y006257D02*
X006203Y006257D01*
X006042Y006159D02*
X006515Y006159D01*
X006515Y006060D02*
X006615Y006060D01*
X006615Y005962D02*
X006515Y005962D01*
X006515Y005863D02*
X006615Y005863D01*
X006831Y005765D02*
X007358Y005765D01*
X007358Y005863D02*
X006908Y005863D01*
X006928Y005962D02*
X007358Y005962D01*
X007358Y006060D02*
X006928Y006060D01*
X006928Y006257D02*
X007358Y006257D01*
X007358Y006356D02*
X006928Y006356D01*
X006887Y006454D02*
X007358Y006454D01*
X007358Y006159D02*
X006615Y006159D01*
X006615Y006257D02*
X006515Y006257D01*
X006515Y006356D02*
X006615Y006356D01*
X006615Y006454D02*
X006515Y006454D01*
X006203Y006060D02*
X006042Y006060D01*
X006115Y005962D02*
X006203Y005962D01*
X006213Y005863D02*
X006223Y005863D01*
X006056Y005568D02*
X006042Y005568D01*
X006042Y005469D02*
X006243Y005469D01*
X006243Y005371D02*
X006042Y005371D01*
X006042Y005272D02*
X006155Y005272D01*
X006089Y005174D02*
X005992Y005174D01*
X006025Y005075D02*
X005887Y005075D01*
X005949Y004977D02*
X006025Y004977D01*
X006025Y004878D02*
X005960Y004878D01*
X005930Y004780D02*
X006025Y004780D01*
X006025Y004681D02*
X005827Y004681D01*
X005642Y004583D02*
X006025Y004583D01*
X006025Y004484D02*
X005659Y004484D01*
X005659Y004386D02*
X006025Y004386D01*
X006025Y004287D02*
X005165Y004287D01*
X005165Y004386D02*
X005065Y004386D01*
X005065Y004287D02*
X003015Y004287D01*
X003015Y004386D02*
X004571Y004386D01*
X004571Y004484D02*
X004535Y004484D01*
X004575Y004583D02*
X004588Y004583D01*
X004575Y004681D02*
X005604Y004681D01*
X005500Y004780D02*
X004791Y004780D01*
X004851Y004878D02*
X005470Y004878D01*
X005482Y004977D02*
X004860Y004977D01*
X004829Y005075D02*
X005544Y005075D01*
X005438Y005174D02*
X004716Y005174D01*
X004575Y005272D02*
X005389Y005272D01*
X005389Y005371D02*
X004575Y005371D01*
X004734Y005568D02*
X005389Y005568D01*
X005389Y005666D02*
X004832Y005666D01*
X004931Y005765D02*
X005445Y005765D01*
X005418Y005863D02*
X004940Y005863D01*
X004940Y005962D02*
X005389Y005962D01*
X005389Y006356D02*
X004711Y006356D01*
X004320Y006356D02*
X003767Y006356D01*
X003866Y006257D02*
X004221Y006257D01*
X004090Y005863D02*
X003980Y005863D01*
X003980Y005765D02*
X004100Y005765D01*
X004198Y005666D02*
X003889Y005666D01*
X003790Y005568D02*
X004297Y005568D01*
X003545Y005568D02*
X003485Y005568D01*
X003485Y005666D02*
X003545Y005666D01*
X003545Y005765D02*
X003485Y005765D01*
X003485Y005863D02*
X003545Y005863D01*
X003545Y006060D02*
X003485Y006060D01*
X003485Y006159D02*
X003545Y006159D01*
X003545Y006257D02*
X003485Y006257D01*
X003485Y006356D02*
X003545Y006356D01*
X003050Y005863D02*
X003015Y005863D01*
X003015Y005765D02*
X003050Y005765D01*
X003015Y005666D02*
X003142Y005666D01*
X003240Y005568D02*
X003015Y005568D01*
X003015Y005469D02*
X005389Y005469D01*
X005715Y005465D02*
X005715Y004900D01*
X006265Y005156D02*
X006265Y004631D01*
X006765Y004631D02*
X006765Y004000D01*
X006215Y003450D01*
X004615Y003450D01*
X004115Y002950D01*
X004115Y002000D01*
X004065Y001950D01*
X003715Y001950D01*
X003955Y002514D02*
X003015Y002514D01*
X003015Y002613D02*
X003955Y002613D01*
X003955Y002711D02*
X003015Y002711D01*
X003015Y002810D02*
X003955Y002810D01*
X003955Y002908D02*
X003015Y002908D01*
X003015Y003007D02*
X003955Y003007D01*
X003961Y003401D02*
X004269Y003401D01*
X004269Y003499D02*
X003961Y003499D01*
X003929Y003598D02*
X004302Y003598D01*
X004372Y003696D02*
X003859Y003696D01*
X004579Y003992D02*
X003015Y003992D01*
X003015Y004090D02*
X004571Y004090D01*
X004571Y004189D02*
X003015Y004189D01*
X003015Y003893D02*
X004693Y003893D01*
X004859Y003696D02*
X006235Y003696D01*
X006490Y003499D02*
X007605Y003499D01*
X007605Y003401D02*
X007291Y003401D01*
X007389Y003302D02*
X007605Y003302D01*
X007542Y003204D02*
X007488Y003204D01*
X007515Y002950D02*
X007765Y003200D01*
X007765Y004631D01*
X007525Y004583D02*
X007505Y004583D01*
X007505Y004681D02*
X007525Y004681D01*
X007525Y004780D02*
X007505Y004780D01*
X007505Y004878D02*
X007525Y004878D01*
X007525Y004977D02*
X007505Y004977D01*
X007505Y005075D02*
X007525Y005075D01*
X007505Y005110D02*
X007497Y005118D01*
X007510Y005151D01*
X007510Y005249D01*
X007473Y005339D01*
X007404Y005408D01*
X007314Y005445D01*
X007216Y005445D01*
X007126Y005408D01*
X007057Y005339D01*
X007020Y005249D01*
X007020Y005151D01*
X007034Y005118D01*
X007025Y005110D01*
X007025Y004152D01*
X007090Y004088D01*
X007441Y004088D01*
X007505Y004152D01*
X007505Y005110D01*
X007510Y005174D02*
X007589Y005174D01*
X007501Y005272D02*
X009565Y005272D01*
X009565Y005371D02*
X007441Y005371D01*
X007358Y005469D02*
X006888Y005469D01*
X006888Y005568D02*
X007358Y005568D01*
X007358Y005666D02*
X006888Y005666D01*
X006888Y005371D02*
X007089Y005371D01*
X007030Y005272D02*
X006888Y005272D01*
X006941Y005174D02*
X007020Y005174D01*
X007025Y005075D02*
X007005Y005075D01*
X007005Y004977D02*
X007025Y004977D01*
X007025Y004878D02*
X007005Y004878D01*
X007005Y004780D02*
X007025Y004780D01*
X007025Y004681D02*
X007005Y004681D01*
X007005Y004583D02*
X007025Y004583D01*
X007025Y004484D02*
X007005Y004484D01*
X007005Y004386D02*
X007025Y004386D01*
X007025Y004287D02*
X007005Y004287D01*
X007005Y004189D02*
X007025Y004189D01*
X007088Y004090D02*
X006943Y004090D01*
X006925Y003992D02*
X007605Y003992D01*
X007588Y004090D02*
X007443Y004090D01*
X007505Y004189D02*
X007525Y004189D01*
X007525Y004287D02*
X007505Y004287D01*
X007505Y004386D02*
X007525Y004386D01*
X007525Y004484D02*
X007505Y004484D01*
X008005Y004484D02*
X009565Y004484D01*
X009565Y004583D02*
X008005Y004583D01*
X008005Y004681D02*
X009565Y004681D01*
X009565Y004780D02*
X008005Y004780D01*
X008005Y004878D02*
X009565Y004878D01*
X009565Y004977D02*
X008005Y004977D01*
X008005Y005075D02*
X009565Y005075D01*
X009565Y005174D02*
X007941Y005174D01*
X008673Y005469D02*
X009565Y005469D01*
X009565Y005568D02*
X008673Y005568D01*
X008673Y005666D02*
X009565Y005666D01*
X009565Y005765D02*
X008673Y005765D01*
X008673Y005863D02*
X009565Y005863D01*
X009565Y005962D02*
X008673Y005962D01*
X008673Y006060D02*
X009565Y006060D01*
X009565Y006159D02*
X008673Y006159D01*
X008673Y006257D02*
X009564Y006257D01*
X009540Y006356D02*
X008673Y006356D01*
X008673Y006454D02*
X009477Y006454D01*
X009565Y004386D02*
X008005Y004386D01*
X008005Y004287D02*
X009565Y004287D01*
X009565Y004189D02*
X008005Y004189D01*
X007943Y004090D02*
X009565Y004090D01*
X009565Y003992D02*
X007925Y003992D01*
X007925Y003893D02*
X009565Y003893D01*
X009565Y003795D02*
X007925Y003795D01*
X007925Y003696D02*
X009565Y003696D01*
X009565Y003598D02*
X007925Y003598D01*
X007925Y003499D02*
X009565Y003499D01*
X009565Y003401D02*
X007925Y003401D01*
X007925Y003302D02*
X009565Y003302D01*
X009565Y003204D02*
X007925Y003204D01*
X007896Y003105D02*
X009565Y003105D01*
X009565Y003007D02*
X007798Y003007D01*
X007699Y002908D02*
X009565Y002908D01*
X009565Y002810D02*
X008000Y002810D01*
X008045Y002711D02*
X009565Y002711D01*
X009565Y002613D02*
X008045Y002613D01*
X008045Y002514D02*
X009565Y002514D01*
X009565Y002416D02*
X008045Y002416D01*
X008045Y002317D02*
X009565Y002317D01*
X009565Y002219D02*
X008045Y002219D01*
X008045Y002120D02*
X009565Y002120D01*
X009565Y002022D02*
X008045Y002022D01*
X008045Y001923D02*
X009565Y001923D01*
X009565Y001825D02*
X008045Y001825D01*
X007997Y001726D02*
X009565Y001726D01*
X009565Y001628D02*
X007569Y001628D01*
X007415Y001700D02*
X007115Y001700D01*
X006965Y001550D01*
X006965Y000800D01*
X006865Y000700D01*
X006581Y000700D01*
X006565Y000715D01*
X006239Y000741D02*
X006148Y000741D01*
X006239Y000643D02*
X006042Y000643D01*
X006042Y000544D02*
X006239Y000544D01*
X006266Y000446D02*
X006014Y000446D01*
X005781Y000715D02*
X005965Y000900D01*
X006081Y000900D01*
X006565Y001385D01*
X006565Y001400D01*
X006765Y001600D01*
X006765Y002269D01*
X006525Y002317D02*
X006505Y002317D01*
X006505Y002416D02*
X006525Y002416D01*
X006525Y002514D02*
X006505Y002514D01*
X006505Y002613D02*
X006525Y002613D01*
X006525Y002711D02*
X006505Y002711D01*
X006443Y002810D02*
X006587Y002810D01*
X006943Y002810D02*
X007029Y002810D01*
X007025Y002711D02*
X007005Y002711D01*
X007005Y002613D02*
X007025Y002613D01*
X007025Y002514D02*
X007005Y002514D01*
X007005Y002416D02*
X007025Y002416D01*
X007025Y002317D02*
X007005Y002317D01*
X007005Y002219D02*
X007025Y002219D01*
X007025Y002120D02*
X007005Y002120D01*
X007005Y002022D02*
X007025Y002022D01*
X007025Y001923D02*
X007005Y001923D01*
X007005Y001825D02*
X007013Y001825D01*
X007415Y001700D02*
X007515Y001800D01*
X007515Y002950D01*
X007215Y003250D01*
X005515Y003250D01*
X005365Y003100D01*
X005143Y003204D02*
X004858Y003204D01*
X005619Y002711D02*
X006025Y002711D01*
X006025Y002613D02*
X005999Y002613D01*
X006087Y002810D02*
X005701Y002810D01*
X005631Y002613D02*
X005619Y002613D01*
X005288Y002623D02*
X005715Y003050D01*
X007015Y003050D01*
X007265Y002800D01*
X007265Y002269D01*
X007750Y002317D02*
X007780Y002317D01*
X007780Y002416D02*
X007750Y002416D01*
X007750Y002514D02*
X007780Y002514D01*
X007780Y002613D02*
X007750Y002613D01*
X007750Y002711D02*
X007780Y002711D01*
X007780Y002810D02*
X007750Y002810D01*
X007750Y002219D02*
X007780Y002219D01*
X007780Y002120D02*
X007750Y002120D01*
X007750Y002022D02*
X007780Y002022D01*
X007780Y001923D02*
X007750Y001923D01*
X007750Y001825D02*
X007780Y001825D01*
X007780Y001726D02*
X007750Y001726D01*
X007358Y001431D02*
X007125Y001431D01*
X007125Y001332D02*
X007358Y001332D01*
X007358Y001234D02*
X007125Y001234D01*
X007125Y001135D02*
X007358Y001135D01*
X007358Y001037D02*
X007125Y001037D01*
X007125Y000938D02*
X007358Y000938D01*
X007358Y000840D02*
X007125Y000840D01*
X007125Y000741D02*
X007358Y000741D01*
X007358Y000643D02*
X007034Y000643D01*
X006935Y000544D02*
X007358Y000544D01*
X007358Y000446D02*
X006864Y000446D01*
X006089Y001135D02*
X006073Y001135D01*
X006082Y001234D02*
X006188Y001234D01*
X006239Y001332D02*
X006082Y001332D01*
X005764Y001234D02*
X005667Y001234D01*
X005667Y001135D02*
X005764Y001135D01*
X005875Y001037D02*
X004940Y001037D01*
X004940Y000938D02*
X005389Y000938D01*
X005389Y000840D02*
X004940Y000840D01*
X004940Y000774D02*
X004691Y000525D01*
X004339Y000525D01*
X004090Y000774D01*
X004090Y001126D01*
X004339Y001375D01*
X004691Y001375D01*
X004940Y001126D01*
X004940Y000774D01*
X004907Y000741D02*
X005389Y000741D01*
X005389Y000643D02*
X004809Y000643D01*
X004710Y000544D02*
X005389Y000544D01*
X005416Y000446D02*
X003104Y000446D01*
X003041Y000544D02*
X003320Y000544D01*
X003710Y000544D02*
X004320Y000544D01*
X004222Y000643D02*
X003809Y000643D01*
X003907Y000741D02*
X004123Y000741D01*
X004090Y000840D02*
X003940Y000840D01*
X003940Y000938D02*
X004090Y000938D01*
X004090Y001037D02*
X003940Y001037D01*
X003931Y001135D02*
X004099Y001135D01*
X004198Y001234D02*
X003833Y001234D01*
X003734Y001332D02*
X004296Y001332D01*
X004575Y001529D02*
X005349Y001529D01*
X005356Y001628D02*
X004575Y001628D01*
X004575Y001726D02*
X005458Y001726D01*
X005667Y001726D02*
X005764Y001726D01*
X005764Y001628D02*
X005667Y001628D01*
X005667Y001529D02*
X005764Y001529D01*
X005349Y001332D02*
X004734Y001332D01*
X004833Y001234D02*
X005349Y001234D01*
X005357Y001135D02*
X004931Y001135D01*
X005715Y000715D02*
X005781Y000715D01*
X007170Y001529D02*
X009565Y001529D01*
X009565Y001431D02*
X008673Y001431D01*
X008673Y001332D02*
X009565Y001332D01*
X009565Y001234D02*
X008673Y001234D01*
X008673Y001135D02*
X009565Y001135D01*
X009565Y001037D02*
X008673Y001037D01*
X008673Y000938D02*
X009565Y000938D01*
X009565Y000840D02*
X008673Y000840D01*
X008673Y000741D02*
X009565Y000741D01*
X009564Y000643D02*
X008673Y000643D01*
X008673Y000544D02*
X009540Y000544D01*
X009477Y000446D02*
X008673Y000446D01*
X006525Y001825D02*
X006505Y001825D01*
X006505Y001923D02*
X006525Y001923D01*
X006525Y002022D02*
X006505Y002022D01*
X006505Y002120D02*
X006525Y002120D01*
X006525Y002219D02*
X006505Y002219D01*
X006265Y002269D02*
X005996Y002269D01*
X005288Y002623D02*
X005115Y002623D01*
X006589Y003598D02*
X007605Y003598D01*
X007605Y003696D02*
X006687Y003696D01*
X006786Y003795D02*
X007605Y003795D01*
X007605Y003893D02*
X006884Y003893D01*
X006088Y004090D02*
X005659Y004090D01*
X005659Y004189D02*
X006025Y004189D01*
X005165Y004189D02*
X005065Y004189D01*
X005065Y004090D02*
X005165Y004090D01*
X005165Y003992D02*
X005065Y003992D01*
X005065Y003893D02*
X005165Y003893D01*
X005165Y004484D02*
X005065Y004484D01*
X005065Y004583D02*
X005165Y004583D01*
X004615Y004950D02*
X003715Y004950D01*
D19*
X004615Y004950D03*
X005715Y004900D03*
X007265Y005200D03*
X008365Y003400D03*
X005815Y002450D03*
X005365Y003100D03*
X003615Y002850D03*
D20*
X007265Y004631D02*
X007265Y005200D01*
M02*
