G75*
%MOIN*%
%OFA0B0*%
%FSLAX24Y24*%
%IPPOS*%
%LPD*%
%AMOC8*
5,1,8,0,0,1.08239X$1,22.5*
%
%ADD10OC8,0.0630*%
%ADD11R,0.1095X0.1095*%
%ADD12R,0.3000X0.3000*%
%ADD13C,0.0500*%
%ADD14C,0.0472*%
%ADD15C,0.0100*%
%ADD16C,0.0270*%
%ADD17C,0.0080*%
D10*
X003565Y000850D03*
X004565Y000850D03*
X004565Y006050D03*
X003565Y006050D03*
D11*
X008015Y006050D03*
X008015Y000850D03*
D12*
X008015Y003450D03*
D13*
X004615Y002450D03*
X003615Y002450D03*
X003615Y004450D03*
X004615Y004450D03*
D14*
X004615Y003450D03*
X003615Y003450D03*
D15*
X004615Y002450D02*
X005715Y003550D01*
X005715Y005050D01*
X004615Y002450D02*
X005015Y002050D01*
X004565Y000850D02*
X008015Y000850D01*
D16*
X005015Y002050D03*
X003965Y002750D03*
X005715Y005050D03*
X007265Y005350D03*
X007815Y003250D03*
D17*
X003565Y000850D02*
X003115Y001300D01*
X003115Y004000D01*
X003565Y004450D01*
X003615Y004450D01*
X004565Y005400D01*
X004565Y006050D01*
X005665Y005500D02*
X007115Y005500D01*
X007265Y005350D01*
X005665Y005500D02*
X004615Y004450D01*
X003965Y002750D02*
X003665Y002450D01*
X003615Y002450D01*
X007815Y003250D02*
X008015Y003450D01*
M02*
