G75*
%MOIN*%
%OFA0B0*%
%FSLAX24Y24*%
%IPPOS*%
%LPD*%
%AMOC8*
5,1,8,0,0,1.08239X$1,22.5*
%
%ADD10C,0.0050*%
%ADD11C,0.0030*%
%ADD12C,0.0020*%
%ADD13C,0.0060*%
D10*
X004525Y002663D02*
X004721Y002663D01*
X004525Y002663D02*
X004525Y004237D01*
X004721Y004237D01*
X005509Y004237D02*
X005706Y004237D01*
X005706Y002663D01*
X005509Y002663D01*
X006031Y002938D02*
X007999Y002938D01*
X008440Y002646D02*
X008790Y002646D01*
X008732Y002780D02*
X008615Y002780D01*
X008557Y002839D01*
X008557Y002956D01*
X008615Y003014D01*
X008732Y003014D01*
X008790Y002956D01*
X008790Y002839D01*
X008732Y002780D01*
X008557Y002529D02*
X008440Y002646D01*
X008557Y002529D02*
X008440Y002412D01*
X008790Y002412D01*
X009040Y002596D02*
X009040Y002655D01*
X009390Y002655D01*
X009390Y002713D02*
X009390Y002596D01*
X009390Y002471D02*
X009332Y002471D01*
X009332Y002412D01*
X009390Y002412D01*
X009390Y002471D01*
X009390Y002283D02*
X009332Y002225D01*
X009098Y002225D01*
X009157Y002167D02*
X009157Y002283D01*
X009390Y002038D02*
X009390Y001921D01*
X009390Y001979D02*
X009157Y001979D01*
X009157Y001921D01*
X009040Y001979D02*
X008981Y001979D01*
X008790Y001915D02*
X008732Y001857D01*
X008498Y001857D01*
X008557Y001915D02*
X008557Y001798D01*
X008557Y001663D02*
X008557Y001488D01*
X008615Y001430D01*
X008673Y001488D01*
X008673Y001605D01*
X008732Y001663D01*
X008790Y001605D01*
X008790Y001430D01*
X008732Y001295D02*
X008615Y001295D01*
X008557Y001237D01*
X008557Y001120D01*
X008615Y001062D01*
X008732Y001062D01*
X008790Y001120D01*
X008790Y001237D01*
X008732Y001295D01*
X009040Y001553D02*
X009390Y001553D01*
X009390Y001728D01*
X009332Y001786D01*
X009215Y001786D01*
X009157Y001728D01*
X009157Y001553D01*
X008790Y000927D02*
X008790Y000693D01*
X008440Y000693D01*
X009157Y002842D02*
X009332Y002842D01*
X009390Y002900D01*
X009390Y003075D01*
X009449Y003075D02*
X009507Y003017D01*
X009507Y002959D01*
X009449Y003075D02*
X009157Y003075D01*
X009390Y003210D02*
X009040Y003444D01*
X009157Y003578D02*
X009332Y003578D01*
X009390Y003637D01*
X009390Y003812D01*
X009157Y003812D01*
X009157Y003947D02*
X009157Y004005D01*
X009215Y004064D01*
X009157Y004122D01*
X009215Y004180D01*
X009390Y004180D01*
X009390Y004064D02*
X009215Y004064D01*
X009157Y003947D02*
X009390Y003947D01*
X009390Y004315D02*
X009390Y004432D01*
X009390Y004373D02*
X009040Y004373D01*
X009040Y004315D01*
X008790Y004499D02*
X008557Y004499D01*
X008440Y004616D01*
X008557Y004733D01*
X008790Y004733D01*
X008790Y004868D02*
X008790Y004984D01*
X008790Y004926D02*
X008440Y004926D01*
X008440Y004868D01*
X008615Y004733D02*
X008615Y004499D01*
X009157Y004561D02*
X009157Y004619D01*
X009215Y004677D01*
X009157Y004736D01*
X009215Y004794D01*
X009390Y004794D01*
X009390Y004677D02*
X009215Y004677D01*
X009157Y004561D02*
X009390Y004561D01*
X009332Y004929D02*
X009273Y004987D01*
X009273Y005162D01*
X009215Y005162D02*
X009157Y005104D01*
X009157Y004987D01*
X009332Y004929D02*
X009390Y004987D01*
X009390Y005162D01*
X009215Y005162D01*
X008790Y005171D02*
X008732Y005113D01*
X008673Y005171D01*
X008673Y005347D01*
X008615Y005347D02*
X008557Y005288D01*
X008557Y005171D01*
X008790Y005171D02*
X008790Y005347D01*
X008615Y005347D01*
X008557Y005481D02*
X008790Y005481D01*
X008673Y005481D02*
X008557Y005598D01*
X008557Y005657D01*
X008557Y005788D02*
X008557Y005847D01*
X008615Y005905D01*
X008557Y005963D01*
X008615Y006022D01*
X008790Y006022D01*
X008790Y005905D02*
X008615Y005905D01*
X008557Y005788D02*
X008790Y005788D01*
X008790Y004002D02*
X008790Y003885D01*
X008790Y003944D02*
X008440Y003944D01*
X008440Y003885D01*
X008615Y003751D02*
X008673Y003751D01*
X008673Y003517D01*
X008615Y003517D02*
X008732Y003517D01*
X008790Y003575D01*
X008790Y003692D01*
X008615Y003751D02*
X008557Y003692D01*
X008557Y003575D01*
X008615Y003517D01*
X008557Y003382D02*
X008557Y003207D01*
X008615Y003149D01*
X008732Y003149D01*
X008790Y003207D01*
X008790Y003382D01*
X008440Y003382D01*
X006385Y003017D02*
X006267Y003214D01*
X006149Y003017D01*
X006385Y003017D01*
X004761Y003450D02*
X004763Y003487D01*
X004769Y003524D01*
X004778Y003559D01*
X004792Y003594D01*
X004808Y003627D01*
X004829Y003658D01*
X004852Y003687D01*
X004878Y003713D01*
X004907Y003736D01*
X004938Y003757D01*
X004971Y003773D01*
X005006Y003787D01*
X005041Y003796D01*
X005078Y003802D01*
X005115Y003804D01*
X005152Y003802D01*
X005189Y003796D01*
X005224Y003787D01*
X005259Y003773D01*
X005292Y003757D01*
X005323Y003736D01*
X005352Y003713D01*
X005378Y003687D01*
X005401Y003658D01*
X005422Y003627D01*
X005438Y003594D01*
X005452Y003559D01*
X005461Y003524D01*
X005467Y003487D01*
X005469Y003450D01*
X005467Y003413D01*
X005461Y003376D01*
X005452Y003341D01*
X005438Y003306D01*
X005422Y003273D01*
X005401Y003242D01*
X005378Y003213D01*
X005352Y003187D01*
X005323Y003164D01*
X005292Y003143D01*
X005259Y003127D01*
X005224Y003113D01*
X005189Y003104D01*
X005152Y003098D01*
X005115Y003096D01*
X005078Y003098D01*
X005041Y003104D01*
X005006Y003113D01*
X004971Y003127D01*
X004938Y003143D01*
X004907Y003164D01*
X004878Y003187D01*
X004852Y003213D01*
X004829Y003242D01*
X004808Y003273D01*
X004792Y003306D01*
X004778Y003341D01*
X004769Y003376D01*
X004763Y003413D01*
X004761Y003450D01*
D11*
X006230Y003916D02*
X006424Y003916D01*
X006327Y003916D02*
X006327Y003626D01*
X006525Y003626D02*
X006622Y003626D01*
X006573Y003626D02*
X006573Y003916D01*
X006525Y003916D02*
X006622Y003916D01*
X006721Y003916D02*
X006915Y003626D01*
X006915Y003916D01*
X007016Y003916D02*
X007016Y003868D01*
X007113Y003771D01*
X007113Y003626D01*
X007113Y003771D02*
X007209Y003868D01*
X007209Y003916D01*
X007311Y003868D02*
X007359Y003916D01*
X007456Y003916D01*
X007504Y003868D01*
X007504Y003819D01*
X007311Y003626D01*
X007504Y003626D01*
X007605Y003674D02*
X007654Y003626D01*
X007750Y003626D01*
X007799Y003674D01*
X007799Y003771D01*
X007750Y003819D01*
X007702Y003819D01*
X007605Y003771D01*
X007605Y003916D01*
X007799Y003916D01*
X006721Y003916D02*
X006721Y003626D01*
X003200Y003653D02*
X003200Y003604D01*
X003152Y003604D01*
X003152Y003653D01*
X003200Y003653D01*
X003055Y003752D02*
X003055Y003945D01*
X003200Y003897D02*
X002910Y003897D01*
X003055Y003752D01*
X002958Y003503D02*
X003152Y003310D01*
X003200Y003358D01*
X003200Y003455D01*
X003152Y003503D01*
X002958Y003503D01*
X002910Y003455D01*
X002910Y003358D01*
X002958Y003310D01*
X003152Y003310D01*
X003200Y003208D02*
X003103Y003112D01*
X003103Y003160D02*
X003103Y003015D01*
X003200Y003015D02*
X002910Y003015D01*
X002910Y003160D01*
X002958Y003208D01*
X003055Y003208D01*
X003103Y003160D01*
D12*
X005135Y001317D02*
X005282Y001170D01*
X005245Y001207D02*
X005355Y001317D01*
X005355Y001170D02*
X005135Y001170D01*
X005135Y001096D02*
X005172Y001096D01*
X005318Y000950D01*
X005355Y000950D01*
X005355Y000875D02*
X005355Y000729D01*
X005208Y000875D01*
X005172Y000875D01*
X005135Y000839D01*
X005135Y000765D01*
X005172Y000729D01*
X005135Y000950D02*
X005135Y001096D01*
X006885Y001097D02*
X006885Y001170D01*
X006922Y001207D01*
X007068Y001060D01*
X007105Y001097D01*
X007105Y001170D01*
X007068Y001207D01*
X006922Y001207D01*
X006885Y001281D02*
X007105Y001281D01*
X007032Y001281D02*
X006885Y001428D01*
X006995Y001318D02*
X007105Y001428D01*
X007068Y001060D02*
X006922Y001060D01*
X006885Y001097D01*
X006922Y000986D02*
X007068Y000839D01*
X007105Y000876D01*
X007105Y000949D01*
X007068Y000986D01*
X006922Y000986D01*
X006885Y000949D01*
X006885Y000876D01*
X006922Y000839D01*
X007068Y000839D01*
X007105Y000765D02*
X007105Y000618D01*
X007105Y000691D02*
X006885Y000691D01*
X006958Y000618D01*
X007008Y005479D02*
X006935Y005552D01*
X007155Y005552D01*
X007155Y005479D02*
X007155Y005625D01*
X007118Y005700D02*
X006972Y005700D01*
X006935Y005736D01*
X006935Y005810D01*
X006972Y005846D01*
X007118Y005700D01*
X007155Y005736D01*
X007155Y005810D01*
X007118Y005846D01*
X006972Y005846D01*
X007045Y005920D02*
X007045Y006067D01*
X006935Y006031D02*
X007045Y005920D01*
X007155Y006031D02*
X006935Y006031D01*
X005355Y006067D02*
X005245Y005957D01*
X005282Y005920D02*
X005135Y006067D01*
X005135Y005920D02*
X005355Y005920D01*
X005318Y005846D02*
X005172Y005846D01*
X005318Y005700D01*
X005355Y005736D01*
X005355Y005810D01*
X005318Y005846D01*
X005172Y005846D02*
X005135Y005810D01*
X005135Y005736D01*
X005172Y005700D01*
X005318Y005700D01*
X005355Y005625D02*
X005355Y005479D01*
X005355Y005552D02*
X005135Y005552D01*
X005208Y005479D01*
D13*
X003215Y000750D02*
X003215Y000650D01*
X003315Y000650D01*
X003715Y000650D02*
X003815Y000650D01*
X003815Y000750D01*
X004215Y000750D02*
X004215Y000650D01*
X004315Y000650D01*
X004715Y000650D02*
X004815Y000650D01*
X004815Y000750D01*
X004815Y001150D02*
X004815Y001250D01*
X004715Y001250D01*
X004315Y001250D02*
X004215Y001250D01*
X004215Y001150D01*
X003815Y001150D02*
X003815Y001250D01*
X003715Y001250D01*
X003315Y001250D02*
X003215Y001250D01*
X003215Y001150D01*
X005952Y002682D02*
X005952Y004218D01*
X005953Y004218D02*
X005954Y004235D01*
X005959Y004252D01*
X005966Y004267D01*
X005976Y004281D01*
X005988Y004293D01*
X006002Y004303D01*
X006017Y004310D01*
X006034Y004315D01*
X006051Y004316D01*
X007980Y004316D02*
X007997Y004315D01*
X008014Y004310D01*
X008029Y004303D01*
X008043Y004293D01*
X008055Y004281D01*
X008065Y004267D01*
X008072Y004252D01*
X008077Y004235D01*
X008078Y004218D01*
X008078Y002682D01*
X008077Y002665D01*
X008072Y002648D01*
X008065Y002633D01*
X008055Y002619D01*
X008043Y002607D01*
X008029Y002597D01*
X008014Y002590D01*
X007997Y002585D01*
X007980Y002584D01*
X006051Y002584D02*
X006034Y002585D01*
X006017Y002590D01*
X006002Y002597D01*
X005988Y002607D01*
X005976Y002619D01*
X005966Y002633D01*
X005959Y002648D01*
X005954Y002665D01*
X005953Y002682D01*
X004815Y005650D02*
X004715Y005650D01*
X004815Y005650D02*
X004815Y005750D01*
X004315Y005650D02*
X004215Y005650D01*
X004215Y005750D01*
X003815Y005750D02*
X003815Y005650D01*
X003715Y005650D01*
X003315Y005650D02*
X003215Y005650D01*
X003215Y005750D01*
X003215Y006150D02*
X003215Y006250D01*
X003315Y006250D01*
X003715Y006250D02*
X003815Y006250D01*
X003815Y006150D01*
X004215Y006150D02*
X004215Y006250D01*
X004315Y006250D01*
X004715Y006250D02*
X004815Y006250D01*
X004815Y006150D01*
M02*
