G75*
G70*
%OFA0B0*%
%FSLAX24Y24*%
%IPPOS*%
%LPD*%
%AMOC8*
5,1,8,0,0,1.08239X$1,22.5*
%
%ADD10C,0.0000*%
D10*
X000912Y000303D02*
X009412Y000303D01*
X009412Y020203D01*
X000912Y020203D01*
X000912Y000303D01*
X005440Y002862D02*
X005442Y002910D01*
X005448Y002958D01*
X005458Y003005D01*
X005471Y003051D01*
X005489Y003096D01*
X005509Y003140D01*
X005534Y003182D01*
X005562Y003221D01*
X005592Y003258D01*
X005626Y003292D01*
X005663Y003324D01*
X005701Y003353D01*
X005742Y003378D01*
X005785Y003400D01*
X005830Y003418D01*
X005876Y003432D01*
X005923Y003443D01*
X005971Y003450D01*
X006019Y003453D01*
X006067Y003452D01*
X006115Y003447D01*
X006163Y003438D01*
X006209Y003426D01*
X006254Y003409D01*
X006298Y003389D01*
X006340Y003366D01*
X006380Y003339D01*
X006418Y003309D01*
X006453Y003276D01*
X006485Y003240D01*
X006515Y003202D01*
X006541Y003161D01*
X006563Y003118D01*
X006583Y003074D01*
X006598Y003029D01*
X006610Y002982D01*
X006618Y002934D01*
X006622Y002886D01*
X006622Y002838D01*
X006618Y002790D01*
X006610Y002742D01*
X006598Y002695D01*
X006583Y002650D01*
X006563Y002606D01*
X006541Y002563D01*
X006515Y002522D01*
X006485Y002484D01*
X006453Y002448D01*
X006418Y002415D01*
X006380Y002385D01*
X006340Y002358D01*
X006298Y002335D01*
X006254Y002315D01*
X006209Y002298D01*
X006163Y002286D01*
X006115Y002277D01*
X006067Y002272D01*
X006019Y002271D01*
X005971Y002274D01*
X005923Y002281D01*
X005876Y002292D01*
X005830Y002306D01*
X005785Y002324D01*
X005742Y002346D01*
X005701Y002371D01*
X005663Y002400D01*
X005626Y002432D01*
X005592Y002466D01*
X005562Y002503D01*
X005534Y002542D01*
X005509Y002584D01*
X005489Y002628D01*
X005471Y002673D01*
X005458Y002719D01*
X005448Y002766D01*
X005442Y002814D01*
X005440Y002862D01*
X005440Y017035D02*
X005442Y017083D01*
X005448Y017131D01*
X005458Y017178D01*
X005471Y017224D01*
X005489Y017269D01*
X005509Y017313D01*
X005534Y017355D01*
X005562Y017394D01*
X005592Y017431D01*
X005626Y017465D01*
X005663Y017497D01*
X005701Y017526D01*
X005742Y017551D01*
X005785Y017573D01*
X005830Y017591D01*
X005876Y017605D01*
X005923Y017616D01*
X005971Y017623D01*
X006019Y017626D01*
X006067Y017625D01*
X006115Y017620D01*
X006163Y017611D01*
X006209Y017599D01*
X006254Y017582D01*
X006298Y017562D01*
X006340Y017539D01*
X006380Y017512D01*
X006418Y017482D01*
X006453Y017449D01*
X006485Y017413D01*
X006515Y017375D01*
X006541Y017334D01*
X006563Y017291D01*
X006583Y017247D01*
X006598Y017202D01*
X006610Y017155D01*
X006618Y017107D01*
X006622Y017059D01*
X006622Y017011D01*
X006618Y016963D01*
X006610Y016915D01*
X006598Y016868D01*
X006583Y016823D01*
X006563Y016779D01*
X006541Y016736D01*
X006515Y016695D01*
X006485Y016657D01*
X006453Y016621D01*
X006418Y016588D01*
X006380Y016558D01*
X006340Y016531D01*
X006298Y016508D01*
X006254Y016488D01*
X006209Y016471D01*
X006163Y016459D01*
X006115Y016450D01*
X006067Y016445D01*
X006019Y016444D01*
X005971Y016447D01*
X005923Y016454D01*
X005876Y016465D01*
X005830Y016479D01*
X005785Y016497D01*
X005742Y016519D01*
X005701Y016544D01*
X005663Y016573D01*
X005626Y016605D01*
X005592Y016639D01*
X005562Y016676D01*
X005534Y016715D01*
X005509Y016757D01*
X005489Y016801D01*
X005471Y016846D01*
X005458Y016892D01*
X005448Y016939D01*
X005442Y016987D01*
X005440Y017035D01*
M02*
